<svg width="129" height="100" viewBox="0 0 129 100" fill="none" xmlns="http://www.w3.org/2000/svg">
<rect x="0.735474" y="40.7637" width="5.82271" height="4.50469" rx="2.25234" fill="#F6F6F6"/>
<rect x="0.735535" y="0.22168" width="5.82271" height="4.50469" rx="2.25234" fill="#F6F6F6"/>
<rect x="18.2037" y="40.7637" width="5.82271" height="4.50469" rx="2.25234" fill="#F6F6F6"/>
<rect x="18.2037" y="0.22168" width="5.82271" height="4.50469" rx="2.25234" fill="#F6F6F6"/>
<rect x="35.6718" y="40.7637" width="5.82271" height="4.50469" rx="2.25234" fill="#F6F6F6"/>
<rect x="35.6718" y="0.22168" width="5.82271" height="4.50469" rx="2.25234" fill="#F6F6F6"/>
<rect x="53.1398" y="40.7637" width="5.82271" height="4.50469" rx="2.25234" fill="#F6F6F6"/>
<rect x="53.1398" y="0.22168" width="5.82271" height="4.50469" rx="2.25234" fill="#F6F6F6"/>
<rect x="70.608" y="40.7637" width="5.82271" height="4.50469" rx="2.25234" fill="#F6F6F6"/>
<rect x="70.608" y="0.22168" width="5.82271" height="4.50469" rx="2.25234" fill="#F6F6F6"/>
<rect x="88.076" y="40.7637" width="5.82271" height="4.50469" rx="2.25234" fill="#F6F6F6"/>
<rect x="88.076" y="0.22168" width="5.82271" height="4.50469" rx="2.25234" fill="#F6F6F6"/>
<rect x="105.544" y="40.7637" width="5.82271" height="4.50469" rx="2.25234" fill="#F6F6F6"/>
<rect x="105.544" y="0.22168" width="5.82271" height="4.50469" rx="2.25234" fill="#F6F6F6"/>
<rect x="123.012" y="40.7637" width="5.82271" height="4.50469" rx="2.25234" fill="#F6F6F6"/>
<rect x="123.012" y="0.22168" width="5.82271" height="4.50469" rx="2.25234" fill="#F6F6F6"/>
<rect x="0.735474" y="54.2783" width="5.82271" height="4.50469" rx="2.25234" fill="#F6F6F6"/>
<rect x="0.735474" y="13.7358" width="5.82271" height="4.50469" rx="2.25234" fill="#F6F6F6"/>
<rect x="18.2037" y="54.2783" width="5.82271" height="4.50469" rx="2.25234" fill="#F6F6F6"/>
<rect x="18.2037" y="13.7358" width="5.82271" height="4.50469" rx="2.25234" fill="#F6F6F6"/>
<rect x="35.6718" y="54.2783" width="5.82271" height="4.50469" rx="2.25234" fill="#F6F6F6"/>
<rect x="35.6718" y="13.7358" width="5.82271" height="4.50469" rx="2.25234" fill="#F6F6F6"/>
<rect x="53.1398" y="54.2783" width="5.82271" height="4.50469" rx="2.25234" fill="#F6F6F6"/>
<rect x="53.1398" y="13.7358" width="5.82271" height="4.50469" rx="2.25234" fill="#F6F6F6"/>
<rect x="70.608" y="54.2783" width="5.82271" height="4.50469" rx="2.25234" fill="#F6F6F6"/>
<rect x="70.608" y="13.7358" width="5.82271" height="4.50469" rx="2.25234" fill="#F6F6F6"/>
<rect x="88.076" y="54.2783" width="5.82271" height="4.50469" rx="2.25234" fill="#F6F6F6"/>
<rect x="88.076" y="13.7358" width="5.82271" height="4.50469" rx="2.25234" fill="#F6F6F6"/>
<rect x="105.544" y="54.2783" width="5.82271" height="4.50469" rx="2.25234" fill="#F6F6F6"/>
<rect x="105.544" y="13.7358" width="5.82271" height="4.50469" rx="2.25234" fill="#F6F6F6"/>
<rect x="123.012" y="54.2783" width="5.82271" height="4.50469" rx="2.25234" fill="#F6F6F6"/>
<rect x="123.012" y="13.7358" width="5.82271" height="4.50469" rx="2.25234" fill="#F6F6F6"/>
<rect x="0.735474" y="67.792" width="5.82271" height="4.50469" rx="2.25234" fill="#F6F6F6"/>
<rect x="0.735474" y="27.2495" width="5.82271" height="4.50469" rx="2.25234" fill="#F6F6F6"/>
<rect x="18.2037" y="67.792" width="5.82271" height="4.50469" rx="2.25234" fill="#F6F6F6"/>
<rect x="18.2037" y="27.2495" width="5.82271" height="4.50469" rx="2.25234" fill="#F6F6F6"/>
<rect x="35.6718" y="67.792" width="5.82271" height="4.50469" rx="2.25234" fill="#F6F6F6"/>
<rect x="35.6718" y="27.2495" width="5.82271" height="4.50469" rx="2.25234" fill="#F6F6F6"/>
<rect x="53.1398" y="67.792" width="5.82271" height="4.50469" rx="2.25234" fill="#F6F6F6"/>
<rect x="53.1398" y="27.2495" width="5.82271" height="4.50469" rx="2.25234" fill="#F6F6F6"/>
<rect x="70.608" y="67.792" width="5.82271" height="4.50469" rx="2.25234" fill="#F6F6F6"/>
<rect x="70.608" y="27.2495" width="5.82271" height="4.50469" rx="2.25234" fill="#F6F6F6"/>
<rect x="88.076" y="67.792" width="5.82271" height="4.50469" rx="2.25234" fill="#F6F6F6"/>
<rect x="88.076" y="27.2495" width="5.82271" height="4.50469" rx="2.25234" fill="#F6F6F6"/>
<rect x="105.544" y="67.792" width="5.82271" height="4.50469" rx="2.25234" fill="#F6F6F6"/>
<rect x="105.544" y="27.2495" width="5.82271" height="4.50469" rx="2.25234" fill="#F6F6F6"/>
<rect x="123.012" y="67.792" width="5.82271" height="4.50469" rx="2.25234" fill="#F6F6F6"/>
<rect x="123.012" y="27.2495" width="5.82271" height="4.50469" rx="2.25234" fill="#F6F6F6"/>
<rect x="0.735474" y="81.3057" width="5.82271" height="4.50469" rx="2.25234" fill="#F6F6F6"/>
<rect x="18.2037" y="81.3057" width="5.82271" height="4.50469" rx="2.25234" fill="#F6F6F6"/>
<rect x="35.6718" y="81.3057" width="5.82271" height="4.50469" rx="2.25234" fill="#F6F6F6"/>
<rect x="53.1398" y="81.3057" width="5.82271" height="4.50469" rx="2.25234" fill="#F6F6F6"/>
<rect x="70.608" y="81.3057" width="5.82271" height="4.50469" rx="2.25234" fill="#F6F6F6"/>
<rect x="88.076" y="81.3057" width="5.82271" height="4.50469" rx="2.25234" fill="#F6F6F6"/>
<rect x="105.544" y="81.3057" width="5.82271" height="4.50469" rx="2.25234" fill="#F6F6F6"/>
<rect x="123.012" y="81.3057" width="5.82271" height="4.50469" rx="2.25234" fill="#F6F6F6"/>
<rect x="0.735474" y="94.8208" width="5.82271" height="4.50469" rx="2.25234" fill="#F6F6F6"/>
<rect x="18.2037" y="94.8208" width="5.82271" height="4.50469" rx="2.25234" fill="#F6F6F6"/>
<rect x="35.6718" y="94.8208" width="5.82271" height="4.50469" rx="2.25234" fill="#F6F6F6"/>
<rect x="53.1398" y="94.8208" width="5.82271" height="4.50469" rx="2.25234" fill="#F6F6F6"/>
<rect x="70.608" y="94.8208" width="5.82271" height="4.50469" rx="2.25234" fill="#F6F6F6"/>
<rect x="88.076" y="94.8208" width="5.82271" height="4.50469" rx="2.25234" fill="#F6F6F6"/>
<rect x="105.544" y="94.8208" width="5.82271" height="4.50469" rx="2.25234" fill="#F6F6F6"/>
<rect x="123.012" y="94.8208" width="5.82271" height="4.50469" rx="2.25234" fill="#F6F6F6"/>
</svg>
