<svg width="20" height="20" viewBox="0 0 20 20" fill="none" xmlns="http://www.w3.org/2000/svg">
<path fill-rule="evenodd" clip-rule="evenodd" d="M16.0732 16.6667C15.2828 17.8476 14.4447 19 13.1685 19.019C11.8923 19.0476 11.4828 18.2667 10.0351 18.2667C8.57799 18.2667 8.13037 19 6.92085 19.0476C5.67323 19.0952 4.73037 17.7905 3.93037 16.6381C2.3018 14.2857 1.05418 9.95238 2.73037 7.03809C3.55894 5.59048 5.04466 4.67619 6.65418 4.64762C7.87323 4.62857 9.03513 5.47619 9.78751 5.47619C10.5304 5.47619 11.9399 4.45714 13.4161 4.60952C14.0351 4.63809 15.7685 4.85714 16.8828 6.49524C16.797 6.55238 14.8161 7.71429 14.8351 10.1238C14.8637 13 17.3589 13.9619 17.3875 13.9714C17.3589 14.0381 16.9875 15.3429 16.0732 16.6667ZM10.6351 1.42857C11.3304 0.638095 12.4828 0.0380952 13.4351 0C13.5589 1.11429 13.1113 2.2381 12.4447 3.0381C11.7875 3.84762 10.7018 4.47619 9.63513 4.39048C9.49228 3.29524 10.0256 2.15238 10.6351 1.42857Z" fill="#1E1F20"/>
</svg>
