<svg width="48" height="47" viewBox="0 0 48 47" fill="none" xmlns="http://www.w3.org/2000/svg">
<rect width="48" height="46.6667" rx="10" fill="#7B61FF"/>
<path fill-rule="evenodd" clip-rule="evenodd" d="M15.833 13.9998H32.1663C32.8107 13.9998 33.333 14.5222 33.333 15.1665V31.4998C33.333 32.1442 32.8107 32.6665 32.1663 32.6665H15.833C15.1887 32.6665 14.6663 32.1442 14.6663 31.4998V15.1665C14.6663 14.5222 15.1887 13.9998 15.833 13.9998ZM12.333 15.1665C12.333 13.2335 13.9 11.6665 15.833 11.6665H32.1663C34.0994 11.6665 35.6663 13.2335 35.6663 15.1665V31.4998C35.6663 33.4329 34.0994 34.9998 32.1663 34.9998H15.833C13.9 34.9998 12.333 33.4329 12.333 31.4998V15.1665Z" fill="white"/>
<path fill-rule="evenodd" clip-rule="evenodd" d="M24.0003 23.333C20.7787 23.333 18.167 20.199 18.167 16.333H20.5003C20.5003 19.3267 22.4476 20.9997 24.0003 20.9997C25.553 20.9997 27.5003 19.3267 27.5003 16.333H29.8337C29.8337 20.199 27.222 23.333 24.0003 23.333Z" fill="white"/>
</svg>
