<svg width="1440" height="400" viewBox="0 0 1440 400" fill="none" xmlns="http://www.w3.org/2000/svg">
<g opacity="0.05">
<path d="M102.008 -376.341C79.8003 -331.618 61.9493 -284.344 49.6469 -234.918C35.3405 -177.443 27.7898 -118.136 13.2523 -60.7229C-0.671356 -5.72787 -19.9059 50.7037 -50.1947 96.9436C-81.1757 144.236 -119.961 182.442 -162.953 215.357C-212.618 253.376 -266.831 282.346 -322.037 308.497C-350.506 321.974 -379.413 334.005 -409.511 342.019C-430.279 347.533 -451.381 351.283 -472.594 353.889V355.193C-432.242 349.945 -392.662 340.502 -354.234 324.509C-307.007 304.856 -260.512 281.133 -216.394 253.824C-130.533 200.631 -51.896 128.072 -12.658 24.3929C-0.552216 -7.59369 9.86655 -40.5351 17.8782 -74.1185C26.3997 -109.854 32.4874 -146.268 39.5531 -182.387C52.9135 -250.741 73.4033 -315.42 103.525 -376.341H102.008Z" fill="white"/>
<path d="M125.128 -376.341C101.236 -337.679 82.7094 -294.526 70.407 -249.564C66.7511 -236.203 63.0464 -222.869 59.9081 -209.34C56.3857 -194.114 54.4305 -178.576 51.0057 -163.332C47.8499 -149.302 44.7976 -135.246 42.2863 -121.046C41.1664 -114.699 40.4438 -109.613 37.5412 -104.027C35.1178 -99.3407 34.9518 -91.041 33.869 -85.7404C22.6396 -30.5933 3.94678 21.8844 -21.2569 70.7745C-26.8596 81.628 -32.4069 92.57 -38.2491 103.27C-45.1963 115.997 -54.7654 126.314 -62.8877 138.051C-77.5829 159.283 -96.1182 177.936 -114.461 195.062C-127.71 207.45 -141.691 218.802 -156.013 229.531C-163.301 234.992 -170.741 240.203 -178.235 245.308C-181.605 247.593 -185.007 249.825 -188.408 252.056C-192.097 254.465 -194.981 258.785 -198.86 261.301C-229.953 281.526 -261.88 300.142 -294.823 316.243C-327.488 332.219 -361.26 345.214 -395.77 355.066C-405.133 357.726 -415.742 361.92 -425.447 361.92C-433.761 361.92 -441.558 364.92 -449.688 366.848C-457.27 368.632 -464.916 370.043 -472.594 371.13V372.452C-459.606 370.561 -446.716 367.864 -433.927 364.242C-428.189 362.617 -422.108 363.313 -416.26 361.92C-410.275 360.475 -404.322 358.904 -398.376 357.279C-385.724 353.818 -373.19 349.801 -360.743 345.447C-314.423 329.274 -270.081 306.659 -227.385 280.883C-216.671 274.404 -206.086 267.675 -195.554 260.821C-190.849 257.768 -187.424 253.091 -182.655 249.949C-176.749 246.041 -170.916 242.008 -165.129 237.902C-145.57 224.032 -126.844 208.699 -109.153 191.956C-90.7219 174.508 -73.188 155.276 -58.3809 133.865C-51.9267 124.538 -44.4651 116.516 -38.6235 106.618C-31.9628 95.3278 -26.2561 83.1802 -20.1521 71.4991C-2.20596 37.1378 12.3309 0.680389 23.3148 -37.2159C29.1649 -57.3853 33.8059 -77.9847 37.7333 -98.7251C38.4482 -102.492 39.6722 -105.034 41.3566 -108.293C42.9863 -111.433 42.9147 -117.101 43.5182 -120.662C45.5223 -132.488 48.0726 -144.188 50.6561 -155.871C55.3049 -176.862 58.4139 -198.174 63.564 -219.04C68.761 -240.095 74.7543 -260.916 81.7958 -281.283C93.4081 -314.866 108.412 -346.834 126.702 -376.341H125.128Z" fill="white"/>
<path d="M143.066 -376.341C88.1863 -296.151 71.3446 -194.953 48.7094 -98.5387C36.1596 -45.0695 21.3128 7.86365 -1.37909 57.0755C-24.6511 107.554 -57.2056 152.884 -94.1226 191.51C-100.959 198.668 -108.222 205.254 -115.853 211.306C-122.354 216.445 -129.125 220.017 -134.865 226.21C-148.749 241.168 -164.637 253.574 -180.802 265.158C-213.563 288.63 -248.949 308.64 -284.523 326.097C-344.355 355.459 -407.835 374.844 -472.594 383.127V384.607C-434.308 379.718 -396.493 370.969 -359.48 358.548C-309.909 341.911 -263.619 317.707 -217.895 290.754C-195.244 277.403 -173.284 262.623 -152.849 245.22C-143.32 237.116 -135.014 225.996 -124.675 219.337C-114.866 213.037 -105.917 205.112 -97.4138 196.793C-61.0516 161.22 -29.5538 116.613 -5.88461 69.4716C29.9352 -1.8822 46.4905 -82.5615 64.3193 -161.298C81.6136 -237.658 101.514 -313.698 144.695 -376.341H143.066Z" fill="white"/>
<path d="M161.14 -376.341C102.882 -296.133 82.3038 -192.124 58.4608 -93.8332C44.4167 -35.9122 27.4805 20.708 1.87115 73.5681C-22.9973 124.913 -58.2618 170.037 -96.8897 208.823C-150.768 262.945 -214.032 306.337 -279.547 339.983C-314.86 358.119 -352.199 369.507 -389.84 379.628C-417.126 386.947 -444.753 392.39 -472.594 395.836V397.244C-431.79 392.068 -391.604 382.465 -351.849 370.31C-302.008 355.084 -255.536 330.791 -210.861 301.821C-124.898 246.095 -43.6695 170.626 4.44623 71.276C40.8715 -3.92566 57.626 -87.131 77.7904 -169.007C95.9754 -242.816 119.278 -316.804 162.808 -376.341H161.14Z" fill="white"/>
<path d="M183.513 -376.341C172.736 -363.124 162.697 -349.191 153.558 -334.42C146.699 -323.355 141.532 -309.102 133.091 -299.588C125.764 -291.331 121.759 -275.927 117.839 -265.236C98.1838 -211.597 88.2177 -154.595 75.4218 -98.6184C62.3706 -41.5251 45.1088 16.0668 19.9051 67.8654C-3.65991 116.29 -34.7444 160.836 -69.4279 199.684C-98.7727 232.547 -131.645 261.605 -165.655 288.059C-199.632 314.494 -236.256 336.503 -274.294 354.514C-337.391 384.412 -404.615 402.154 -472.594 410.346V411.811C-392.043 402.011 -312.953 378.629 -239.887 338.521C-218.253 326.649 -197.327 313.156 -177.124 298.43C-167.307 291.272 -157.729 283.722 -148.311 275.904C-138.782 267.997 -128.648 255.286 -117.617 250.664C-114.342 249.289 -111.609 244.719 -109.161 242.113C-104.733 237.383 -100.132 232.869 -95.5302 228.37C-85.5868 218.642 -75.8269 208.878 -66.4805 198.417C-50.2273 180.211 -35.189 160.675 -21.2016 140.227C4.54254 102.61 26.2318 61.868 42.4374 17.9933C59.9713 -29.4857 72.6481 -78.9658 83.4418 -128.856C94.1145 -178.192 104.44 -227.733 122.727 -274.357C124.849 -279.765 127.138 -285.103 129.475 -290.403C132.034 -296.204 136.263 -300.042 138.996 -305.532C144.281 -316.151 150.14 -326.388 156.323 -336.367C165.057 -350.485 174.801 -363.747 185.198 -376.341H183.513Z" fill="white"/>
<path d="M201.039 -376.341C189.267 -363.239 177.99 -349.602 167.68 -334.965C152.891 -313.975 141.103 -290.322 130.08 -266.645C124.698 -255.097 121.56 -242.264 118.094 -229.875C113.874 -214.82 109.105 -199.746 105.782 -184.403C99.6782 -156.28 93.5826 -128.159 86.8907 -100.207C73.2829 -43.4172 56.529 12.4332 32.6861 64.8765C10.4317 113.819 -19.0953 159.094 -52.9768 198.579C-66.3535 214.161 -80.6756 228.673 -95.5778 242.364C-99.201 245.701 -101.665 249.611 -104.551 253.716C-108.158 258.84 -114.391 262.784 -119.015 266.747C-127.377 273.886 -135.738 281.044 -144.186 288.077C-178.808 316.869 -216.941 341.822 -256.3 361.528C-324.643 395.727 -398.218 415.559 -472.594 423.36V424.806C-382.076 415.256 -293.4 387.785 -213.293 338.484C-189.95 324.116 -167.585 309.049 -146.063 291.396C-135.874 283.043 -125.874 274.404 -115.836 265.836C-111.679 262.285 -107.165 259.088 -103.636 254.734C-99.1308 249.165 -95.3544 244.06 -90.1411 239.205C-54.1045 205.702 -22.9257 166.1 3.39798 122.674C51.4342 43.4196 76.7891 -47.7381 97.3895 -139.976C108.373 -189.179 117.601 -241.281 140.944 -285.21C151.849 -305.736 162.006 -325.362 175.748 -343.828C184.221 -355.215 193.361 -365.952 202.795 -376.341H201.039Z" fill="white"/>
<path d="M78.2506 -376.341C59.0174 -329.949 46.1258 -280.728 34.4582 -231.277C27.6237 -202.334 22.4489 -172.935 17.3931 -143.546C12.3146 -113.941 8.19843 -83.7313 0.688049 -54.7606C-13.9127 1.51022 -34.243 54.5765 -66.2266 101.083C-94.0998 141.611 -128.99 175.187 -166.95 203.167C-216.877 239.99 -272.792 266.836 -327.212 293.931C-341.112 300.857 -355.028 307.73 -368.929 314.656C-383.458 321.902 -400.618 324.472 -416.076 328.47C-434.785 333.308 -453.607 337.646 -472.594 340.645V342.09C-458.884 339.912 -445.253 337.075 -431.678 333.843C-418.898 330.809 -406.181 327.382 -393.465 324.008C-387.105 322.312 -380.756 320.634 -374.398 318.956C-368.388 317.405 -362.022 312.798 -356.364 309.978C-306.181 285.025 -255.878 260.357 -207.357 231.441C-127.791 184.049 -56.037 112.829 -20.7166 17.6007C-8.79382 -14.5474 1.54553 -48.1929 7.9523 -82.2946C14.6052 -117.672 20.0645 -153.318 26.7884 -188.687C38.9084 -252.385 54.7971 -317.16 79.6427 -376.341H78.2506Z" fill="white"/>
<path d="M222.505 -376.341C208.963 -362.874 195.784 -349.316 184.34 -332.993C169.843 -312.314 157.826 -289.548 147.255 -266.084C124.754 -216.132 113.683 -161.868 101.181 -108.015C89.0523 -55.7783 74.7465 -4.04996 55.0034 45.2335C45.379 69.2487 34.2596 92.48 21.7411 114.739C15.6371 125.6 9.07217 136.122 2.23764 146.404C-1.78479 152.455 -5.98886 158.345 -10.2653 164.165C-13.6346 168.762 -15.8516 174.902 -19.2536 179.185C-77.3928 252.466 -143.026 320.154 -221.958 363.669C-241.898 374.648 -262.619 383.752 -283.8 391.158C-294.266 394.835 -304.878 397.906 -315.559 400.637C-326.471 403.421 -336.232 405.241 -346.183 411.169C-357.533 417.952 -372.959 419.11 -385.445 421.967C-398.464 424.931 -411.53 427.626 -424.62 430.125C-440.555 433.159 -456.554 435.782 -472.594 438.014V439.441C-458.63 437.478 -444.688 435.247 -430.787 432.729C-404.075 427.875 -375.821 423.68 -349.927 414.649C-346.119 413.327 -342.613 410.634 -339.078 408.633C-333.402 405.439 -326.782 404.779 -320.645 403.368C-308.994 400.655 -297.462 397.263 -286.056 393.443C-265.496 386.588 -245.492 377.718 -226.074 367.489C-146.483 325.543 -80.3891 257.483 -21.9556 184.727C-15.1205 176.223 -10.2405 166.548 -3.84219 157.568C3.38162 147.441 10.153 136.899 16.6314 126.153C29.7997 104.306 41.2055 81.155 51.3866 57.3789C71.3999 10.6127 85.7382 -38.9917 97.9612 -88.9529C111.521 -144.323 121.384 -201.092 143.186 -253.392C153.542 -278.239 165.711 -302.095 180.072 -324.274C192.978 -344.23 208.215 -360.375 224.317 -376.341H222.505Z" fill="white"/>
<path d="M240.174 -376.341C213.087 -351.725 190.182 -321.872 171.6 -288.486C160.075 -267.771 150.537 -245.698 142.47 -223.021C132.583 -195.211 128.466 -165.126 122.473 -136.076C121.026 -129.061 119.405 -122.098 117.665 -115.173C116.648 -111.13 115.399 -107.346 113.333 -103.82C112.713 -102.768 111.266 -100.331 111.051 -99.019C110.169 -93.4954 110.631 -87.944 109.557 -82.375C107.888 -73.6549 104.47 -65.3106 101.324 -57.1893C91.7302 -32.3955 86.0475 -5.41568 77.2969 19.8599C58.1665 75.1576 32.9641 126.582 -0.720184 172.277C-15.1842 191.903 -30.7857 210.43 -46.7296 228.513C-54.432 237.241 -62.2595 245.844 -70.1038 254.394C-74.4596 259.143 -78.8232 263.873 -83.194 268.604C-86.5406 272.226 -91.3326 273.762 -94.4494 277.242C-111.235 296.038 -129.252 313.209 -148.303 329.005C-167.482 344.911 -187.709 360.992 -209.185 372.648C-292.041 417.63 -381.884 439.085 -472.594 451.775V453.221C-432.226 447.58 -392.057 440.227 -352.381 429.964C-300.395 416.523 -250.593 397.102 -202.676 370.685C-180.794 358.635 -160.05 340.841 -140.641 324.383C-122.116 308.658 -106.005 288.702 -86.8271 274.529C-82.7819 271.53 -79.2041 266.301 -75.7162 262.515C-71.3767 257.803 -67.0515 253.091 -62.7445 248.36C-53.5335 238.277 -44.4326 228.067 -35.4833 217.677C-18.2443 197.705 -1.83167 176.855 13.3485 154.847C41.3012 114.311 61.8386 67.8559 78.5372 20.243C87.7326 -5.99692 93.6932 -33.8687 103.676 -59.67C107.467 -69.4525 111.941 -80.3659 111.941 -91.2289C111.941 -95.495 112.426 -99.4211 114.445 -103.089C115.098 -104.276 116.687 -106.535 117.052 -107.891C118.936 -114.781 120.637 -121.706 122.211 -128.695C128.514 -156.737 132.558 -185.34 140.57 -212.891C147.636 -237.212 158.319 -260.63 169.898 -282.567C188.831 -318.445 213.277 -350.423 242.201 -376.341H240.174Z" fill="white"/>
<path d="M265.98 -376.341C236.629 -352.163 210.528 -323.612 189.451 -289.796C175.272 -267.066 164.175 -239.193 156.45 -212.91C148.011 -184.217 141.182 -155.237 134.267 -126.045C127.369 -96.966 119.969 -68.0414 111.569 -39.4728C107.547 -25.7643 103.199 -12.1815 98.6057 1.29456C96.3009 8.07062 93.8769 14.7801 91.4047 21.4823C88.6147 29.0699 87.3679 36.8687 84.093 44.3576C72.2509 71.4179 62.1167 100.13 47.4528 125.413C40.3005 137.738 33.5683 151.242 25.0956 162.434C17.2271 172.839 9.29553 183.183 1.30789 193.474C-57.7852 269.514 -122.599 342.251 -203.216 388.767C-248.94 415.147 -299.457 430.98 -349.298 444.047C-389.959 454.703 -431.186 462.36 -472.594 468.341V469.75C-432.147 463.896 -391.899 456.381 -352.096 446.242C-302.763 433.695 -253.088 417.862 -207.508 392.802C-125.295 347.587 -59.3979 273.35 0.36908 196.866C7.76874 187.387 15.0805 177.837 22.361 168.261C29.6812 158.639 35.4837 148.314 41.7147 137.773C48.8526 125.68 55.5829 113.819 61.2592 100.771C67.41 86.653 73.4099 72.4349 79.491 58.2804C82.3448 51.6396 85.2206 45.0178 88.1297 38.4048C90.1885 33.7111 89.9736 30.1322 91.3884 25.2227C95.6641 10.408 101.848 -3.94394 106.546 -18.6431C115.583 -46.9171 123.253 -75.7343 130.421 -104.678C137.678 -133.952 143.741 -163.583 151.912 -192.551C160.178 -221.844 170.343 -249.519 183.752 -276.338C203.796 -316.42 234.649 -349.468 268.007 -376.341H265.98Z" fill="white"/>
<path d="M285.271 -376.341C284.673 -375.858 284.11 -375.359 283.641 -374.833C275.255 -365.372 264.629 -358.589 255.354 -350.236C246.579 -342.329 238.418 -333.608 230.619 -324.515C226.558 -319.785 222.688 -314.848 218.866 -309.878C214.97 -304.817 212.411 -298.758 208.367 -293.804C201.872 -285.861 197.899 -274.41 193.043 -265.128C186.24 -252.125 180.43 -238.478 175.168 -224.6C165.725 -199.7 158.81 -173.667 152.413 -147.598C145.681 -120.154 139.577 -92.5325 132.138 -65.3106C128.593 -52.3245 123.992 -39.8749 120.535 -26.8719C116.6 -12.0645 110.535 2.62518 107.522 17.6007C104.558 32.327 98.3747 46.0443 92.7798 59.7353C86.9545 73.9973 80.7073 88.037 74.2778 101.968C61.6792 129.259 48.8754 156.088 31.4782 179.926C15.5102 201.81 -2.5791 221.909 -20.1521 242.15C-38.3286 263.087 -56.9029 283.56 -75.8822 303.57C-95.9828 324.757 -116.449 345.106 -138.416 363.796C-148.336 372.239 -158.445 380.359 -168.999 387.749C-173.888 391.195 -178.935 395.424 -184.824 395.799C-188.48 396.031 -194.267 402.191 -197.501 404.26C-208.931 411.544 -221.44 416.488 -233.752 421.485C-246.333 426.59 -258.605 432.642 -271.416 436.943C-296.962 445.528 -323.826 449.991 -349.869 456.273C-390.62 466.145 -431.471 475.48 -472.594 483.102V484.548C-431.36 476.908 -390.397 467.536 -349.53 457.684C-323.419 451.384 -296.786 446.527 -271.074 438.335C-259.178 434.552 -247.875 428.785 -236.27 424.039C-224.795 419.361 -213.342 414.721 -202.342 408.739C-196.66 405.634 -191.279 401.959 -186.057 397.996C-183.918 396.371 -182.949 397.603 -180.914 396.978C-179.834 396.638 -177.059 394.728 -176.448 394.353C-164.637 387.053 -153.59 378.254 -142.764 369.257C-122.172 352.156 -103.041 333.701 -84.1967 314.209C-65.0253 294.395 -46.3487 273.976 -28.0121 253.199C-9.52625 232.224 9.48569 211.253 26.5345 188.78C59.9225 144.763 82.8768 90.294 103.017 37.3425C107.483 25.5882 109.923 13.2542 113.945 1.29456C118.92 -13.458 121.671 -29.0667 126.972 -43.6768C136.35 -69.4781 141.827 -97.4924 148.184 -124.383C154.606 -151.533 161.179 -178.647 169.708 -205.074C174.198 -218.968 179.413 -232.544 185.23 -245.798C190.857 -258.623 198.042 -270.447 203.598 -283.281C205.847 -288.486 209.47 -292.198 212.348 -296.857C215.979 -302.73 219.461 -308.495 223.674 -313.885C231.813 -324.29 240.58 -334.029 249.838 -343.159C262.189 -355.332 275.582 -366.425 289.546 -376.341H285.271Z" fill="white"/>
<path d="M236.987 341.733C272.125 378.824 316.061 406.064 359.486 428.589C405.434 452.419 456.293 460.004 506.277 463.985C532.576 466.074 558.916 467.109 585.223 468.982C610.609 470.786 636.059 472.75 660.569 480.888C703.473 495.133 740.017 526.084 772.857 559.32C789.214 575.885 804.84 593.342 820.593 610.637C828.509 619.314 836.297 628.166 844.786 636.128C855.006 645.747 865.847 654.709 874.288 666.223C878.882 672.451 885.893 677.271 891.503 682.34C898.561 688.711 905.635 695.102 912.693 701.475C919.608 707.74 926.49 714.059 933.404 720.342H935.439C919.352 705.686 903.251 691.086 887.101 676.521C877.738 668.078 870.315 658.26 861.094 649.585C850.842 639.948 840.62 630.434 831.004 619.992C800.134 586.505 770.218 551.645 735.598 522.977C701.215 494.491 662.747 475.694 620.146 470.715C567.738 464.61 514.892 465.199 462.57 457.862C435.573 454.096 408.883 447.725 383.116 437.782C358.74 428.392 335.349 414.56 312.929 400.369C290.564 386.214 269.294 369.936 249.385 351.71C228.705 332.754 214.272 309.639 207.658 280.204C193.829 218.642 238.148 168.056 269.208 124.584C302 78.6911 333.093 31.2998 364.327 -15.938C372.149 -27.7639 379.985 -39.5898 387.845 -51.3791C392.383 -58.1808 397.001 -64.6139 402.35 -70.6479C406.476 -75.2978 411.18 -79.626 414.152 -85.347C420.336 -97.2351 430.78 -106.944 439.379 -116.736C449.474 -128.24 460.083 -138.467 471.481 -148.276C481.494 -156.896 490.898 -165.858 501.691 -173.283C513.374 -181.316 525.567 -188.384 537.918 -195.006C563.016 -208.474 589.262 -217.702 615.854 -226.6C666.833 -243.646 718.637 -257.258 769.217 -275.83C792.171 -284.254 814.647 -294.133 835.964 -306.977C850.874 -315.956 872.651 -328.039 858.678 -349.37C851.414 -360.446 839.333 -366.39 828.302 -371.155C824.423 -372.833 820.576 -374.573 816.731 -376.341H811.961C812.391 -376.136 812.835 -375.913 813.265 -375.706C825.283 -370.057 837.632 -366.505 848.521 -358.161C854.609 -353.512 861.763 -345.63 862.35 -336.875C863.082 -325.934 853.162 -320.008 846.137 -315.179C834.786 -307.396 822.834 -300.783 810.673 -294.767C762.286 -270.868 709.958 -257.604 659.187 -241.942C633.101 -233.9 607.112 -225.457 581.377 -216.096C557.326 -207.359 534.42 -195.604 512.278 -181.87C490.452 -168.329 470.042 -150.81 451.572 -131.996C442.559 -122.823 434.189 -112.88 425.734 -103.072C416.975 -92.9229 410.297 -81.6512 401.445 -71.6663C383.243 -51.1466 368.945 -25.3366 353.581 -2.08688C337.703 21.9305 321.814 45.9281 305.68 69.7312C288.807 94.631 271.591 119.256 253.94 143.459C238.958 164.004 224.143 184.192 214.143 208.538C195.721 253.413 204.774 307.73 236.987 341.733Z" fill="white"/>
<path d="M316.648 -376.341C312.548 -373.691 309.201 -370.861 305.879 -367.112C300.688 -361.248 292.566 -357.384 286.486 -352.69C266.696 -337.438 249.242 -318.624 232.321 -299.588C229.268 -296.161 227.831 -290.715 224.834 -286.914C221.742 -282.997 217.625 -278.721 215.106 -274.366C208.565 -263.032 201.428 -252.776 196.126 -240.523C185.429 -215.792 179.27 -188.617 172.656 -162.271C158.088 -104.205 144.529 -45.8189 127.639 11.4608C118.889 41.126 109.096 70.4001 97.9775 99.0491C96.6669 102.423 95.2364 110.588 93.638 113.408C90.475 118.996 88.0907 125.359 85.149 131.125C78.1876 144.788 70.1368 157.729 61.4968 170.109C46.611 191.421 28.6961 210.039 12.2124 229.78C-3.76404 248.896 -19.5562 268.211 -35.6578 287.201C-68.0626 325.401 -102.079 362.081 -140.77 392.157C-160.329 407.367 -180.787 419.773 -202.516 430.463C-214.621 436.425 -226.416 440.887 -239.14 444.833C-245.117 446.689 -251.111 448.438 -257.134 450.116C-262.69 451.651 -270.606 451.793 -275.661 454.614C-287.654 461.344 -300.601 463.378 -313.612 466.449C-327.529 469.75 -341.438 473.106 -355.331 476.498C-381.798 482.994 -408.207 489.742 -434.563 496.757C-440.93 498.454 -447.296 500.167 -453.662 501.897C-459.663 503.541 -466.339 502.791 -472.594 503.63V505.005C-467.333 504.058 -462.048 503.808 -456.683 504.2C-451.015 504.593 -442.965 500.488 -437.401 499.006C-411.053 491.937 -384.635 485.208 -358.176 478.675C-345.372 475.517 -332.56 472.446 -319.74 469.375C-307.342 466.431 -293.155 465.145 -281.543 459.344C-270.018 453.579 -256.991 451.688 -244.8 448.045C-232.893 444.512 -220.891 441.208 -209.582 435.639C-187.75 424.893 -167.069 413.364 -147.04 398.637C-128.482 385 -111.028 369.524 -94.2983 353.192C-59.3197 319.045 -28.0446 280.402 3.50867 242.345C19.6753 222.872 36.866 204.272 52.5801 184.343C68.6426 163.995 82.2648 141.281 93.4081 117.13C94.974 113.73 96.1903 111.579 96.5236 107.804C97.1442 100.816 101.76 92.8821 104.169 86.4468C109.184 73.0593 113.833 59.5116 118.301 45.8835C127.551 17.6995 135.635 -10.9678 143.272 -39.758C158.524 -97.2263 169.898 -156.506 187.742 -213.018C191.922 -226.252 196.492 -239.228 202.707 -251.438C208.97 -263.753 217.642 -275.115 225.739 -285.889C228.124 -289.056 230.398 -291.145 231.677 -295.028C233.903 -301.774 241.652 -307.986 246.174 -312.885C256.157 -323.702 266.562 -334.01 277.521 -343.551C287.368 -352.119 299.783 -358.187 308.502 -368.022C311.324 -371.199 314.622 -373.913 318.19 -376.341H316.648Z" fill="white"/>
<path d="M232.265 368.062C270.622 404.581 318.46 430.481 364.137 453.168C387.56 464.789 411.729 473.767 436.892 479.14C462.072 484.513 487.775 486.315 513.327 487.724C565.417 490.616 618.621 491.331 667.945 512.732C691.773 523.067 711.627 539.471 731.973 556.428C753.21 574.117 774.32 592.002 793.252 612.816C810.641 631.951 828.986 648.783 848.362 665.257C869.346 683.108 889.772 701.797 910.262 720.342H912.264C896.003 705.67 879.742 691.015 863.399 676.467C843.769 658.993 823.089 643 804.777 623.722C786.846 604.82 769.361 586.38 749.777 569.601C730.194 552.824 710.689 535.026 688.944 521.943C645.977 496.114 596.335 490.903 548.553 488.117C494.061 484.941 439.88 483.709 387.988 462.468C362.373 451.991 337.965 438.032 313.74 424.055C290.865 410.847 268.461 396.727 247.605 379.734C207.628 347.141 171.106 300.823 172.085 242.042C172.601 211.02 185.635 185.344 203.725 162.96C221.695 140.729 241.008 119.808 259.455 98.0673C295.563 55.5058 325.606 8.04279 355.681 -39.9371C386.089 -88.4704 421.1 -132.907 462.636 -169.722C504.973 -207.251 554.481 -227.367 605.427 -244.878C653.958 -261.55 704.155 -274.616 750.668 -297.767C766.245 -305.522 785.478 -316.785 787.863 -337.936C789.771 -354.849 774.114 -367.434 760.952 -376.341H757.947C759.697 -375.083 761.461 -373.824 763.209 -372.502C775.497 -363.167 789.627 -352.155 785.844 -333.216C783.063 -319.302 769.997 -310.547 759.728 -304.3C748.584 -297.508 736.488 -292.224 724.645 -287.173C700.135 -276.722 674.272 -269.465 649.156 -261.069C622.928 -252.304 596.654 -243.655 570.664 -234.026C524.184 -216.819 482.371 -191.446 445.229 -155.434C406.325 -117.717 374.796 -73.3164 345.5 -26.113C314.065 24.5259 280.454 71.7834 242.209 116.114C225.072 135.98 205.894 155.124 191.191 177.418C178.005 197.418 171.162 220.266 170.748 245.184C169.907 295.86 199.735 337.075 232.265 368.062Z" fill="white"/>
<path d="M349.831 -376.341C289.729 -345.398 235.906 -297.454 207.667 -228.591C197.938 -204.869 192.788 -179.165 186.796 -154.032C179.801 -124.723 172.942 -95.3693 165.884 -66.0878C151.801 -7.7092 136.685 50.3726 118.26 107.216C113.556 121.736 109.16 136.453 101.793 149.572C93.9876 163.487 84.7844 176.982 75.2231 189.395C67.4022 199.542 58.7473 208.878 50.0682 218.071C40.5219 228.191 31.2712 239.24 21.1063 248.54C-19.6357 285.827 -54.391 331.184 -93.0027 371.239C-112.442 391.39 -132.574 410.507 -154.646 426.93C-176.686 443.316 -201.014 451.83 -226.09 460.255C-252.167 469.019 -277.895 477.802 -304.679 483.442C-331.281 489.046 -358.057 493.473 -384.34 500.826C-406.396 507.021 -428.237 514.32 -450.149 521.104C-457.565 523.389 -465.092 525.655 -472.594 528.066V529.333C-458.804 524.853 -444.823 520.961 -431.17 516.713C-405.029 508.575 -378.992 500.238 -352.334 494.491C-325.47 488.69 -298.393 484.263 -271.75 477.158C-246.325 470.393 -220.845 460.397 -196.007 451.258C-150.012 434.337 -112.618 394.353 -78.1871 357.637C-59.0561 337.218 -40.5312 316.119 -21.8528 295.182C-3.27054 274.369 16.6463 255.536 35.6107 235.278C53.1674 216.5 71.185 198.489 86.017 176.802C93.7096 165.548 101.451 153.927 107.547 141.469C113.722 128.857 117.386 114.194 121.726 100.7C139.999 43.8407 154.766 -14.3588 168.801 -72.6913C175.859 -102.018 182.718 -131.398 189.721 -160.744C196.055 -187.269 202.087 -213.399 213.143 -238.042C232.449 -281.078 263.54 -315.956 298.662 -342.809C315.703 -355.831 333.888 -366.898 352.699 -376.341H349.831Z" fill="white"/>
<path d="M43.8047 -376.341C42.9615 -366.889 41.9445 -357.527 39.8785 -348.121C36.4929 -332.689 32.7817 -317.356 29.1877 -301.987C22.4326 -273.125 16.9166 -244.172 12.5054 -214.748C4.35175 -160.369 -2.92877 -105.722 -16.2566 -52.5657C-29.8645 1.67108 -50.5692 54.3725 -82.1458 98.4058C-109.128 136.023 -143.431 165.861 -180.041 190.654C-226.193 221.909 -276.161 245.166 -324.858 270.763C-330.97 273.976 -337.051 277.242 -343.123 280.544C-349.458 283.99 -358.073 291.075 -365.154 291.504C-371.608 291.897 -378.197 296.448 -384.221 298.947C-392.043 302.195 -400.022 304.944 -408.033 307.516C-429.174 314.299 -450.824 318.797 -472.594 322.312V323.686C-459.989 321.634 -447.423 319.259 -434.928 316.368C-422.712 313.531 -410.639 310.014 -398.71 305.925C-392.726 303.891 -386.812 301.554 -380.938 299.126C-377.99 297.894 -375.082 296.573 -372.165 295.253C-369.135 293.878 -365.957 293.878 -363.009 292.807C-354.361 289.629 -346.128 283.758 -337.925 279.331C-328.045 273.976 -318.086 268.781 -308.128 263.642C-288.959 253.716 -269.707 243.988 -250.617 233.868C-175.415 193.956 -101.721 144.218 -57.7051 61.8592C-22.3931 -4.2291 -6.77536 -79.8307 4.89218 -155.041C11.0273 -194.569 15.8207 -234.401 24.0863 -273.456C28.338 -293.517 33.2427 -313.402 37.8687 -333.358C40.0609 -342.846 42.8671 -352.565 43.9791 -362.301C44.5131 -366.969 44.8777 -371.656 45.2273 -376.341H43.8047Z" fill="white"/>
<path d="M392.956 -376.341C365.369 -365.452 338.734 -351.744 313.692 -334.287C294.123 -320.64 275.836 -304.95 260.52 -285.504C246.071 -267.155 235.206 -245.815 226.161 -223.609C216.131 -198.996 208.882 -173.087 202.889 -146.902C199.814 -133.46 197.135 -119.904 194.513 -106.346C193.741 -102.358 191.191 -99.1265 190.347 -94.9043C188.632 -86.3289 186.939 -77.7434 185.253 -69.1564C179.443 -39.464 174.015 -9.68179 169.374 20.2686C167.133 34.7544 165.137 49.2839 163.334 63.8493C161.911 75.3097 159.414 86.2421 162.664 97.5577C163.006 98.4606 163.356 99.3621 163.731 100.254C164.073 101.102 165.176 100.371 164.834 99.5229C159.598 86.278 163.754 70.5698 165.495 56.8613C167.331 42.3675 169.46 27.9183 171.726 13.4955C176.256 -15.2785 181.621 -43.8815 187.209 -72.415C188.401 -78.5454 189.625 -84.6781 190.84 -90.7997C191.858 -95.895 194.163 -99.9037 195.395 -104.607C198.701 -117.217 200.57 -130.454 203.39 -143.234C209.398 -170.499 217.068 -197.22 227.274 -222.878C236.127 -245.156 247.27 -265.976 261.425 -284.477C277.044 -304.898 296.643 -320.695 316.862 -334.796C341.89 -352.243 368.794 -365.712 396.587 -376.341H392.956Z" fill="white"/>
<path d="M705.475 -376.341H702.757C708.464 -372.459 713.964 -368.22 718.844 -362.954C725.455 -355.831 728.81 -346.701 726.886 -336.473C724.407 -323.122 706.572 -314.144 696.7 -308.575C652.748 -283.755 604.362 -272.92 557.883 -255.909C512.254 -239.212 468.882 -210.526 433.053 -174.595C394.354 -135.798 361.664 -88.9076 329.786 -43.1408C305.832 -8.74521 283.156 26.9898 255.696 57.9579C250.529 63.7872 243.949 67.4552 238.545 73.2574C232.091 80.1738 225.192 86.5104 217.887 92.2475C210.631 97.9503 202.746 102.539 194.489 106.09C190.293 107.903 185.928 109.126 181.55 110.17C172.951 112.223 168.556 106.412 164.835 99.5229C164.415 98.7275 163.301 99.4513 163.731 100.254C167.164 106.599 169.35 111.795 176.312 112.56C185.261 113.56 196.882 106.938 204.766 102.663C213.652 97.845 221.735 91.2576 229.381 84.2966C233.561 80.486 237.503 76.3719 241.39 72.1951C245.435 67.8559 250.419 65.955 254.321 61.5558C291.215 19.9491 320.957 -29.1201 353.765 -74.7896C386.438 -120.278 421.171 -166.5 463.962 -200.272C484.516 -216.507 506.707 -231.222 529.731 -242.504C553.957 -254.373 579.643 -262.094 605.126 -269.635C616.316 -272.948 626.918 -278.515 638.061 -281.979C643.101 -283.542 648.138 -283.709 652.955 -286.201C659.378 -289.529 665.99 -292.42 672.571 -295.365C682.586 -299.855 692.536 -304.434 702.09 -310.055C706.795 -312.832 711.277 -316.054 715.601 -319.517C718.621 -321.926 724.598 -325.835 726.045 -329.583C734.326 -351.119 721.148 -365.239 705.475 -376.341Z" fill="white"/>
<path d="M-3.57983 -367.781C-7.59378 -372.199 -12.1566 -374.868 -17.0204 -376.341H-26.7652C-24.3646 -376.1 -21.9634 -375.697 -19.6032 -375.154C-13.1268 -373.663 -7.40375 -369.969 -2.70609 -364.802C4.06528 -357.366 4.37451 -346.523 4.58942 -336.617C5.29776 -304.281 2.58728 -272.474 -1.48987 -240.487C-9.23129 -179.664 -15.8041 -119.359 -29.6743 -59.787C-42.4305 -4.95288 -59.3901 47.2404 -92.073 91.1055C-122.982 132.589 -163.422 163.289 -205.942 187.672C-216.974 193.99 -228.3 198.935 -239.672 204.343C-251.659 210.055 -263.198 217.16 -274.954 223.479C-299.965 236.92 -325.065 250.165 -350.062 263.642C-389.387 284.829 -430.128 299.018 -472.594 306.461V307.98C-434.117 301.356 -396.796 289.272 -360.982 270.976C-335.938 258.178 -311.26 244.363 -286.383 231.172C-274.31 224.763 -262.268 218.267 -250.306 211.609C-238.409 205.005 -225.891 200.203 -213.93 193.742C-171.773 170.902 -132.138 141.772 -99.9479 103.244C-68.4273 65.5185 -49.8452 20.7512 -36.3102 -28.2808C-20.5017 -85.57 -11.6326 -144.206 -4.72449 -203.566C-1.10117 -234.766 3.5249 -265.833 5.39218 -297.266C6.23538 -311.439 6.11624 -325.578 5.80566 -339.757C5.56802 -350.763 3.54959 -359.954 -3.57983 -367.781Z" fill="white"/>
<path d="M267.061 322.15C277.943 338.536 291.278 352.656 305.767 364.937C337.273 391.622 375.041 407.866 412.898 418.949C457.556 432.016 503.948 438.264 549.983 439.834C577.388 440.781 604.792 440.815 632.131 443.368C659.806 445.939 687.02 453.257 712.931 464.52C762.382 486.046 792.616 537.65 827.572 579.776C861.97 621.258 898.355 660.671 936.982 697.1C945.375 705.026 953.911 712.756 962.527 720.341H964.657C930.305 690.086 897.688 657.439 866.611 622.935C848.522 602.855 831.037 582.114 813.916 560.98C797.068 540.186 781.569 517.605 763.273 498.38C727.412 460.665 676.561 446.046 628.826 441.601C601.517 439.066 574.066 439.209 546.692 438.282C519.439 437.335 492.679 434.069 465.735 429.462C386.288 415.934 299.306 383.644 256.212 301.16C241.755 273.492 239.491 242.703 251.73 213.268C262.555 187.234 277.298 163.566 292.892 140.932C307.771 119.326 324.541 99.0669 337.838 76.1645C352.048 51.6756 364.463 26.3203 379.905 2.7233C396.246 -22.2408 413.016 -46.8453 431.559 -69.8098C439.753 -79.9577 448.044 -89.9975 456.58 -99.7872C460.894 -104.741 465.33 -109.561 469.813 -114.326C474.017 -118.799 479.239 -120.923 483.46 -125.223C520.067 -162.538 565.751 -185.502 612.184 -202.576C634.85 -210.92 657.915 -217.845 680.949 -224.762C685.986 -226.271 691.058 -227.662 696.065 -229.331C700.118 -230.687 703.631 -233.285 708.019 -234.445C721.212 -237.918 734.342 -241.674 747.36 -245.897C759.204 -249.733 770.759 -253.456 782.809 -256.419C786.895 -257.426 789.867 -257.881 793.299 -260.444C798.927 -264.638 808.782 -265.19 815.3 -266.94C842.577 -274.295 869.917 -281.471 897.861 -284.656C951.637 -290.805 1004.82 -274.58 1055.5 -255.937C1108.34 -236.497 1158.6 -209.43 1209.82 -185.44C1221.8 -179.825 1233.8 -174.283 1245.77 -168.633C1258.98 -162.404 1271.48 -154.47 1284.59 -147.974C1289.15 -145.724 1294.29 -145.448 1298.96 -143.064C1303.86 -140.566 1308.8 -138.182 1313.76 -135.826C1326.49 -129.776 1339.43 -124.321 1352.5 -119.262C1393.97 -103.205 1437.06 -92.6201 1480.68 -87.7566V-89.2298C1435.04 -94.3784 1390.19 -105.929 1346.82 -123.009C1333.84 -128.133 1321.02 -133.863 1308.37 -139.959C1303.52 -142.306 1298.66 -145.528 1293.64 -147.367C1287.01 -149.811 1280.58 -151.507 1274.18 -155.005C1251.19 -167.572 1227.81 -178.54 1204.22 -189.616C1153.04 -213.668 1102.73 -240.81 1049.68 -259.559C1000.26 -277.017 950.065 -291.449 897.861 -286.111C872.015 -283.461 846.598 -276.803 821.404 -270.073C811.851 -267.521 799.387 -266.71 791.105 -260.55C786.639 -257.212 778.946 -256.946 773.747 -255.651C766.642 -253.875 759.871 -251.67 752.924 -249.261C741.049 -245.156 729.033 -241.665 716.984 -238.346C711.389 -236.801 705.666 -235.615 700.151 -233.785C699.275 -233.491 697.75 -232.16 697.019 -231.607C694.014 -229.368 689.595 -228.85 686.179 -227.823C663.097 -220.907 640.049 -213.972 617.27 -205.923C573.986 -190.633 531.973 -170.267 495.889 -138.817C491.304 -134.817 486.892 -130.569 482.553 -126.25C478.928 -122.635 474.748 -121.421 471.203 -117.762C461.427 -107.659 452.168 -96.9234 443.084 -86.0348C425.933 -65.4625 409.099 -44.1686 394.26 -21.4095C378.523 2.70505 363.286 26.419 349.688 52.1398C336.01 78.0033 319.733 100.95 302.985 124.305C288.218 144.905 273.953 165.957 261.887 188.724C250.014 211.126 241.056 234.242 242.383 260.839C243.511 283.56 255.299 304.427 267.061 322.15Z" fill="white"/>
<path d="M538.966 418.379C583.569 420.271 628.588 417.825 673.031 422.983C695.476 425.59 717.81 430.571 738.57 440.781C760.252 451.418 776.308 468.643 790.915 489.17C807.605 512.679 822.738 537.543 838.889 561.515C853.925 583.845 870.41 603.89 888.054 623.58C896.48 632.985 904.554 642.802 913.074 652.12C922.946 662.901 933.85 672.398 944.452 682.232C958.266 695.066 972.095 707.865 986.162 720.341H988.213C972.906 706.812 957.916 692.853 942.894 678.93C922.977 660.455 905.159 640.626 886.863 620.205C867.787 598.928 850.572 576.795 834.469 552.536C819.59 530.136 805.364 507.216 789.834 485.368C776.291 466.306 761.125 451.276 741.479 440.691C723.263 430.873 703.187 426.019 683.3 422.912C640.159 416.202 596.001 418.611 552.558 417.397C460.855 414.844 361.276 398.458 297.55 315.903C289.745 305.783 283.37 294.395 279.349 281.739C274.739 267.229 275.891 251.948 278.379 237.098C283.148 208.574 295.959 182.442 308.763 157.631C321.845 132.276 337.654 108.188 352.874 84.4203C368.047 60.7159 385.357 38.8591 398.004 13.3174C404.226 0.751556 413.135 -10.1648 420.567 -21.873C429.263 -35.5816 438.457 -47.7109 448.909 -59.7693C467.737 -81.4997 486.986 -102.84 508.907 -120.644C530.447 -138.148 552.765 -152.72 576.655 -165.787C601.183 -179.209 627.03 -189.304 652.907 -198.898C702.597 -217.319 753.496 -231.375 804.76 -242.879C859.902 -255.258 917.207 -270.128 973.16 -255.079C1020.1 -242.451 1066.32 -231.089 1111.52 -211.544C1159.44 -190.802 1205.81 -165.813 1252.9 -142.814C1294.37 -122.554 1336.66 -98.8061 1381.59 -90.4435C1385.64 -89.6941 1389.71 -89.1933 1393.79 -88.729C1397.24 -88.3466 1402.25 -88.8189 1405.29 -86.812C1406.15 -86.2483 1407.45 -84.9637 1408.43 -84.642C1418.83 -81.1802 1430.24 -80.2421 1440.99 -78.8245C1453.42 -77.1714 1465.8 -75.5125 1478.06 -72.664C1478.93 -72.4601 1479.81 -72.2736 1480.68 -72.085V-73.4866C1475.64 -74.5489 1470.62 -75.7969 1465.64 -76.7072C1452.45 -79.144 1439.1 -80.3408 1425.86 -82.4472C1420.17 -83.3567 1412.5 -83.598 1407.48 -86.9173C1404.33 -88.9886 1403.6 -89.4894 1399.88 -89.6758C1385.86 -90.4069 1372 -93.5142 1358.46 -97.5646C1333.44 -105.062 1309.66 -117.137 1285.93 -128.57C1260.97 -140.6 1236.04 -152.623 1211.26 -165.101C1162.73 -189.527 1113.98 -215.043 1062.92 -232.107C1037.68 -240.541 1011.85 -246.556 986.195 -253.152C960.014 -259.872 934.708 -263.871 907.764 -262.586C881.346 -261.318 855.436 -254.999 829.51 -249.662C803.52 -244.317 777.642 -238.284 751.922 -231.5C701.136 -218.114 651.096 -201.227 602.391 -180.184C555.354 -159.869 511.658 -129.009 474.676 -90.5422C456.317 -71.4512 437.559 -51.3701 423.101 -28.3895C415.718 -16.6535 406.388 -5.71228 399.934 6.58737C392.471 20.8223 385.175 34.1126 376.105 47.1683C345.141 91.7579 313.954 138.908 291.794 189.885C282.051 212.287 274.532 237.187 274.857 262.408C275.136 284.06 286.199 303.391 298.368 319.153C358.057 396.495 452.874 414.737 538.966 418.379Z" fill="white"/>
<path d="M349.545 324.652C379.508 356.317 418.715 374.006 458.399 383.359C478.316 388.035 498.631 390.445 518.923 391.677C544.435 393.229 570.074 394.622 595.651 394.514C620.91 394.408 646.057 391.356 671.347 391.23C698.561 391.106 725.855 393.247 752.606 399.068C775.639 404.064 792.792 421.968 805.46 443.243C812.199 454.579 819.75 465.36 825.457 477.409C831.258 489.653 837.108 501.882 843.069 514.018C854.609 537.508 866.484 560.48 881.171 581.687C895.35 602.16 910.929 621.222 927.524 639.215C945.009 658.19 963.591 675.932 981.776 694.014C991.696 703.885 1002.46 712.185 1013.31 720.342H1014.38C1012.33 718.773 1010.31 717.165 1008.31 715.54C996.909 706.312 985.909 696.353 975.498 685.749C957.026 666.935 937.951 648.979 920.259 629.203C902.441 609.247 886.131 587.647 871.524 564.604C856.565 540.989 844.676 514.625 832.482 489.118C821.578 466.307 809.211 442.478 793.41 423.448C779.167 406.278 761.318 399.138 741.256 395.389C714.885 390.445 688.054 389.464 661.38 389.891C634.025 390.32 606.891 393.48 579.5 392.944C491.82 391.195 385.374 385.536 329.182 296.752C322.38 285.988 317.611 273.868 315.52 260.856C312.968 244.989 317.236 229.049 321.322 214.002C328.371 187.958 339.339 163.496 351.524 140.076C363.294 117.434 376.497 95.7653 389.205 73.7842C403.24 49.4904 416.41 24.8575 432.227 1.92877C463.461 -43.3452 500.341 -84.3655 542.496 -116.566C552.399 -124.125 562.636 -131.104 573.032 -137.735C578.246 -141.055 583.539 -144.197 588.849 -147.292C595.317 -151.051 604.379 -158.038 611.721 -158.487C615.6 -158.726 618.812 -160.787 622.357 -162.52C629.302 -165.902 636.377 -169.016 643.451 -172.043C656.611 -177.665 669.996 -182.619 683.428 -187.34C735.885 -205.779 789.263 -222.85 843.849 -230.847C898.515 -238.862 952.624 -235.757 1006.37 -222.182C1049.83 -211.203 1092.01 -194.64 1134.2 -178.772C1144.37 -174.942 1153.75 -168.998 1163.16 -163.314C1171.79 -158.109 1180.14 -154.747 1189.37 -151.283C1212.27 -142.68 1233.77 -129.292 1255.34 -117.191C1273.11 -107.213 1291.46 -99.8485 1310.12 -92.0218C1331.37 -83.1058 1353.37 -76.5111 1375.55 -71.2266C1410.15 -62.9817 1445.41 -58.6512 1480.68 -55.6887V-57.1715C1436.27 -60.9733 1392 -67.0686 1348.83 -79.8209C1336.84 -83.3654 1325.03 -87.5598 1313.38 -92.2288C1307.51 -94.5662 1301.73 -97.136 1295.97 -99.7863C1291.35 -101.92 1284.4 -107.408 1279.2 -107.72C1272.02 -108.158 1265.2 -113.254 1258.89 -116.816C1253.09 -120.074 1247.3 -123.312 1241.5 -126.534C1228.65 -133.692 1215.75 -140.725 1202.78 -147.605C1192.89 -152.845 1181.73 -154.558 1171.83 -159.914C1161.18 -165.688 1151.1 -172.657 1140.16 -177.826C1115.92 -189.276 1089.65 -197.219 1064.55 -205.931C1014.76 -223.218 963.703 -236.31 911.42 -236.97C858.775 -237.631 805.254 -228.206 754.688 -211.954C728.731 -203.609 702.661 -195.712 676.894 -186.554C664.512 -182.145 652.224 -177.334 640.064 -172.14C634.914 -169.935 629.796 -167.633 624.725 -165.205C619.018 -162.484 612.581 -161.726 607.112 -158.87C562.476 -135.611 520.719 -105.142 485.407 -66.3997C467.58 -46.837 450.674 -26.2195 435.039 -4.38959C419.914 16.7457 407.119 39.4141 394.235 62.2961C369.796 105.715 342.551 147.377 325.694 195.544C317.793 218.124 310.481 242.81 315.345 267.14C319.907 289.988 334.817 309.104 349.545 324.652Z" fill="white"/>
<path d="M428.023 344.428C512.652 390.266 609.099 376.306 698.704 362.188C719.751 358.868 741.432 353.282 762.749 355.156C785.241 357.136 803.569 369.614 817.652 388.981C833.643 410.971 840.16 437.103 849.38 463.04C857.424 485.637 866.58 507.699 876.768 529.153C897.847 573.582 924.298 614.636 956.199 649.942C972.747 668.256 991.886 682.661 1010.15 698.6C1018.78 706.134 1027.46 713.595 1036.52 720.341H1038.84C1025.73 710.775 1013.47 699.618 1001.09 688.891C990.789 679.965 980.012 671.863 970.109 662.365C960.332 652.994 951.303 642.607 942.53 632.056C908.162 590.754 881.744 541.22 860.953 489.885C842.848 445.171 833.93 386.231 791.058 362.207C773.653 352.459 754.084 352.229 735.248 355.032C711.659 358.564 688.101 362.527 664.496 365.973C617.748 372.792 570.457 377.415 523.406 372.096C474.693 366.598 422.219 348.462 384.173 312.495C366.18 295.466 353.661 271.477 351.635 244.917C349.33 214.715 359.956 184.201 370.694 157.221C381.567 129.911 394.831 104.671 408.184 78.87C411.356 72.7381 413.772 65.6601 418.85 61.2339C422.332 58.1902 424.08 54.7189 426.448 50.5149C433.332 38.3242 440.699 26.4998 448.386 14.9407C463.533 -7.84467 480.471 -29.0494 498.505 -48.952C507.747 -59.1621 517.19 -68.2924 527.952 -76.4129C538.983 -84.7221 547.662 -95.7526 558.757 -104.036C569.44 -112.006 580.248 -119.761 591.36 -126.963C604.362 -135.389 619.256 -141.271 633.085 -147.732C658.504 -159.611 684.286 -170.481 710.259 -180.7C761.269 -200.772 817.398 -210.947 871.157 -214.971C922.66 -218.817 974.368 -211.857 1024.46 -198.363C1105.29 -176.595 1181.48 -137.173 1255.65 -95.7803C1293.64 -74.5742 1336 -63.1774 1377.55 -54.6548C1411.63 -47.6674 1446.12 -43.6331 1480.68 -41.1597V-42.6424C1434.49 -45.9983 1388.5 -52.2801 1343.36 -64.0789C1316.97 -70.9697 1288.76 -78.7869 1264.43 -92.4684C1241.75 -105.223 1218.96 -117.708 1195.94 -129.658C1106.11 -176.31 1010.83 -214.232 911.04 -217.275C804.68 -220.513 701.613 -183.644 605.364 -135.959C593.522 -130.096 582.632 -123.028 571.681 -115.236C560.904 -107.551 549.983 -100.26 540.955 -90.0776C532.593 -80.6607 522.182 -74.2978 512.891 -66.1589C502.867 -57.3767 493.934 -46.1043 485.136 -35.832C468.898 -16.885 454.012 3.49139 440.341 24.8474C436.876 30.2556 433.539 35.7631 430.247 41.305C426.901 46.9543 424.041 54.0762 419.622 58.7437C416.236 62.3138 414.24 63.7957 411.944 68.499C408.312 75.9331 404.456 83.226 400.594 90.508C387.6 115.042 375.662 139.818 365.806 166.199C356.484 191.136 349.092 217.535 350.347 244.917C352.629 294.539 392.129 324.99 428.023 344.428Z" fill="white"/>
<path d="M440.404 312.246C448.535 318.314 456.078 320.76 464.718 325.435C475.519 331.255 486.931 335.54 498.504 338.912C545.31 352.549 595.396 346.017 642.353 336.788C668.295 331.682 693.76 323.828 719.067 315.655C731.338 311.674 743.577 307.603 755.865 303.64C769.948 299.108 783.046 292.913 797.941 296.395C820.131 301.588 837.664 319.296 849.602 340.252C862.271 362.455 866.928 388.142 871.363 413.631C880.17 464.412 893.124 512.125 916.365 556.945C952.464 626.577 1006.45 684.445 1070.46 720.341H1073.34C1004.57 682.482 947.997 619.348 911.119 543.558C906.159 533.367 901.66 522.906 897.448 512.286C895.556 507.466 895.683 501.933 893.697 497.311C890.216 489.241 887.291 480.96 884.779 472.446C876.896 445.76 873.812 417.558 868.344 390.195C860.046 348.747 839.223 307.747 800.724 295.662C791.535 292.789 782.331 293.306 773.223 296.216C760.125 300.411 747.042 304.98 733.944 309.281C708.701 317.564 683.444 325.739 657.724 331.933C607.223 344.106 552.605 351.336 501.706 338.288C489.181 335.094 477.037 330.202 465.369 324.187C462.612 322.757 458.351 318.831 455.339 318.636C449.06 318.224 443.894 313.119 438.799 309.317C418.215 293.984 398.964 274.189 393.147 246.165C387.05 216.803 394.505 185.432 403.725 157.979C413.278 129.528 426.424 102.77 440.341 76.7715C452.796 53.5051 468.683 31.4259 483.769 10.265C497.995 -9.68213 513.525 -28.3806 530.654 -45.1942C539.3 -53.692 549.156 -60.6333 557.248 -69.765C566.975 -80.7245 578.849 -88.8809 590.373 -97.2442C610.323 -111.712 631.099 -124.715 652.542 -136.157C697.099 -159.924 744.707 -174.515 793.045 -184.61C820.338 -190.304 846.773 -196.935 874.669 -197.515C902.503 -198.094 930.799 -195.31 958.25 -190.304C1004.79 -181.815 1050.95 -165.716 1095.29 -147.902C1142.7 -128.856 1187.47 -102.91 1233.1 -79.1095C1253.4 -68.5243 1273.83 -58.7163 1295.03 -50.6389C1305.67 -46.587 1316.84 -43.6683 1327.83 -41.1877C1332.55 -40.1253 1337.44 -39.9908 1342.23 -39.8753C1348.49 -39.7144 1353.37 -38.1791 1359.29 -36.2964C1363.15 -35.0733 1367.95 -35.4849 1371.92 -35.1537C1378.61 -34.582 1385.29 -33.9678 1391.98 -33.3522C1404.22 -32.219 1416.46 -31.0119 1428.72 -29.8348C1446.03 -28.1751 1463.34 -26.5857 1480.68 -25.2382V-26.6837C1461.11 -28.2102 1441.58 -30.0395 1422.04 -31.9316C1408.67 -33.2162 1395.32 -34.5038 1381.95 -35.7174C1375.28 -36.3235 1368.58 -36.885 1361.91 -37.4297C1355.95 -37.9122 1351.29 -41.2841 1345.19 -41.2936C1319.02 -41.3214 1293.73 -52.3424 1269.6 -62.7667C1242.91 -74.298 1217.19 -89.0154 1191.35 -102.759C1167.42 -115.486 1143.55 -129.767 1118.72 -140.039C1093.95 -150.283 1069.01 -159.611 1043.75 -168.196C992.506 -185.601 941.066 -197.399 887.434 -198.907C861.11 -199.647 836.297 -195.604 810.626 -189.759C785.908 -184.127 761.125 -179.155 736.679 -172.007C691.947 -158.924 649.332 -138.352 609.449 -112.131C599.403 -105.526 589.579 -98.4842 579.883 -91.2381C574.907 -87.5152 569.996 -83.679 565.1 -79.8143C559.489 -75.3785 555.561 -68.8628 549.983 -64.3386C531.892 -49.6124 515.496 -32.4229 500.427 -13.9044C468.707 25.0703 440.58 69.6051 418.96 116.488C407.786 140.729 397.987 166.413 392.893 193.206C388.528 216.126 387.304 244.149 397.764 265.335C407.628 285.309 423.777 299.857 440.404 312.246Z" fill="white"/>
<path d="M559.107 322.812C609.879 326.345 659.378 310.478 704.442 284.987C713.901 279.65 723.628 276.51 733.197 271.35C744.134 265.479 755.548 260.783 767.246 257.267C790.423 250.288 815.173 250.164 837.299 261.356C859.362 272.529 875.163 297.75 884.302 322.258C893.094 345.82 896.13 371.72 898.515 396.94C899.658 408.989 900.58 421.075 901.724 433.122C902.201 438.21 902.727 443.297 903.347 448.366C904.428 457.238 907.4 465.591 907.891 474.534C908.544 486.296 911.437 496.828 915.713 507.537C918.4 514.285 921.88 520.425 924.392 527.297C926.506 533.134 928.367 539.007 930.815 544.666C933.437 550.734 937.49 555.909 940.542 561.711C943.531 567.387 946.09 573.367 949.047 579.079C949.475 579.9 951.94 582.38 952.56 583.076C959.411 590.806 953.815 586.076 956.582 590.841C959.634 596.072 963.48 600.499 966.15 606.085C968.423 610.834 973.176 615.279 976.356 619.313C980.345 624.345 984.462 629.272 988.643 634.109C997.546 644.48 1006.99 654.207 1016.79 663.436C1041.97 687.104 1070.82 706.828 1101.61 720.341H1107.13C1073.53 706.437 1041.83 685.106 1015.43 660.277C996.432 642.408 977.389 621.846 963.624 598.606C961.143 594.394 958.711 590.021 956.296 585.88C953.545 581.15 949.746 577.652 947.234 572.563C940.686 559.213 932.547 546.932 927.62 532.706C923.422 520.639 917.541 509.645 913.377 497.595C910.817 490.188 909.418 482.46 909.179 474.534C908.958 467.358 906.27 460.985 905.333 453.987C901.963 429.053 900.963 403.813 897.91 378.841C892.411 333.877 878.311 284.042 840.336 261.408C804.029 239.793 759.934 254.483 725.695 273.903C721.132 276.492 716.603 276.081 712.12 278.83C706.652 282.186 701.072 285.327 695.446 288.361C682.713 295.252 669.552 301.052 656.166 306.085C629.827 315.993 603.519 320.865 575.781 321.651C526.378 323.025 466.968 307.925 437.138 259.535C407.477 211.412 434.905 147.724 455.943 102.324C476.21 58.5734 503.178 19.0635 534.214 -15.6355C550.285 -33.6101 567.628 -50.0955 585.764 -65.3649C594.269 -72.5226 603.011 -79.3147 611.881 -85.8831C622.245 -93.5402 631.671 -101.608 642.704 -108.016C654.021 -114.576 665.275 -121.288 676.593 -127.857C688.085 -134.523 701.183 -138.851 713.391 -144.037C737.013 -154.086 761.731 -160.566 786.195 -167.394C891.551 -196.793 1004.68 -166.59 1102.44 -120.03C1134.18 -104.92 1165.2 -87.9449 1196.39 -71.4515C1211.88 -63.2593 1227.46 -55.2089 1243.17 -47.5073C1258.49 -39.9913 1274.05 -31.737 1290.17 -26.6937C1305.03 -22.0526 1320.88 -21.0714 1336.14 -19.3313C1355.3 -17.1438 1374.51 -15.9572 1393.73 -15.0104C1422.71 -13.592 1451.72 -12.8865 1480.68 -11.0477V-12.5121C1432.52 -15.5916 1384.19 -15.5456 1336.14 -20.7767C1322.84 -22.2229 1309.42 -23.5974 1296.31 -26.5511C1283.19 -29.5144 1270.79 -36.0031 1258.51 -41.7241C1232.8 -53.6926 1207.64 -67.0428 1182.51 -80.4033C1135.3 -105.499 1088.09 -130.588 1038.29 -148.517C1013.38 -157.479 987.991 -164.609 962.352 -170.286C937.363 -175.81 912.534 -178.193 887.117 -179.522C835.424 -182.218 785.017 -170.429 735.678 -153.934C724.201 -150.098 712.899 -145.59 701.836 -140.449C697.162 -138.281 692.361 -137.513 687.673 -135.792C681.727 -133.613 675.829 -129.035 670.266 -125.805C658.948 -119.208 647.678 -112.497 636.344 -105.955C625.774 -99.8585 616.745 -91.2737 606.794 -83.8221C535.962 -30.8355 477.037 42.3936 442.519 130.41C425.947 172.65 410.617 224.317 439.046 264.979C467.563 305.766 514.956 319.741 559.107 322.812Z" fill="white"/>
<path d="M1480.68 488.706C1442.5 495.043 1405.67 504.325 1375.75 534.955C1359.73 551.378 1348.38 572.976 1337.08 593.591C1325.79 614.19 1314.84 635.038 1301.31 653.923C1269.7 698.12 1221.34 718.701 1171.62 715.754C1120.36 712.702 1070.51 686.178 1031.8 648.854C994.891 613.262 964.084 568.031 946.456 516.588C927.524 461.307 934.645 400.315 927.364 342.626C925.696 329.364 923.358 316.262 919.909 303.427C918.431 297.929 916.54 292.575 914.552 287.273C911.947 280.347 906.891 273.619 906.51 265.997C906.192 259.892 896.353 249.807 892.808 245.506C886.1 237.367 878.215 230.566 869.838 224.763C835.043 200.668 792.282 202.488 754.578 215.624C708.225 231.779 668.549 265.657 621.911 280.759C574.256 296.216 514.854 292.272 481.075 246.38C473.579 236.187 468.7 223.925 466.45 210.984C463.811 195.811 468.024 180.112 469.256 164.994C470.392 151.072 476.496 138.014 481.638 125.404C486.4 113.712 491.701 102.316 497.328 91.1239C519.375 47.215 548.139 7.88213 580.917 -26.3454C653.815 -102.42 749.094 -151.06 848.632 -157.335C875.323 -159.013 902.138 -157.032 928.508 -152.453C954.992 -147.865 980.234 -138.021 1005.4 -128.017C1031.99 -117.449 1058.2 -105.677 1083.97 -92.7641C1094.68 -87.3992 1105.49 -84.0345 1115.98 -78.0101C1128.35 -70.889 1140.66 -63.6326 1152.97 -56.3945C1179.41 -40.8655 1205.91 -25.5061 1233.03 -11.5745C1238.97 -8.53157 1244.95 -5.56688 1250.96 -2.71184C1257.9 0.600082 1266.01 1.34953 1273.43 2.66185C1287.53 5.16011 1301.77 6.58803 1316.02 7.55159C1370.87 11.2731 1425.79 5.75816 1480.68 6.40007V4.94664C1433.44 4.32155 1386.21 8.07072 1338.97 7.09612C1310.55 6.49806 1282.17 3.71471 1254.29 -2.67531C1247.57 -4.2202 1239.99 -9.61952 1233.68 -12.8233C1227.83 -15.8048 1222.01 -18.8843 1216.22 -21.9901C1203.74 -28.6835 1191.39 -35.6892 1179.09 -42.7847C1155.33 -56.4749 1131.78 -70.6294 1107.97 -84.2042C1104.48 -86.2045 1101.52 -88.3094 1097.58 -88.5514C1090.6 -88.9791 1082 -95.3436 1075.59 -98.4925C1063.59 -104.401 1051.45 -109.988 1039.26 -115.38C1014.08 -126.5 988.467 -137.012 962.51 -145.562C938.238 -153.55 912.964 -156.871 887.815 -158.744C791.838 -165.911 693.363 -126.426 617.078 -62.1243C583.015 -33.4044 552.479 0.519699 526.616 38.609C513.327 58.1993 501.532 79.0656 491.128 100.762C486.105 111.222 481.544 121.949 477.268 132.82C473.151 143.271 468.58 153.552 467.977 164.994C467.261 178.427 464.169 191.313 464.542 204.863C464.837 215.624 468.492 226.175 473 235.528C482.592 255.465 499.823 270.066 517.992 278.848C559.457 298.858 609.496 291.451 649.776 271.263C695.032 248.576 737.426 216.16 787.529 208.628C832.054 201.934 876.88 220.088 903.092 262.141C905.159 265.444 904.809 268.907 906.27 272.335C909.435 279.706 912.995 286.542 915.697 294.199C920.466 307.711 923.121 322.117 925.235 336.414C929.749 366.991 930.353 397.764 931.546 428.661C932.627 456.846 935.185 484.174 943.293 510.983C950.605 535.152 961.779 557.626 974.368 578.741C980.266 588.646 986.656 598.179 993.19 607.587C1000.76 618.475 1009.99 626.97 1018.54 636.841C1034.22 654.96 1052.66 669.792 1072.1 682.269C1113.66 708.955 1161.24 723.002 1209.12 715.54C1237.68 711.079 1266.39 695.102 1287.39 673.077C1307.94 651.496 1322.3 623.454 1336.86 596.752C1354.79 563.854 1373.53 531.707 1404.65 513.16C1428.05 499.219 1454.47 493.972 1480.68 489.975V488.706Z" fill="white"/>
<path d="M1480.68 471.767C1476.9 472.07 1473.13 472.392 1469.35 472.785C1464.23 473.321 1459.13 474.07 1454.02 474.962C1451.03 475.479 1448.05 476.194 1445.09 476.907C1440.94 477.906 1435.87 476.497 1431.88 477.693C1410.42 484.101 1388.42 489.544 1370.05 504.29C1361.26 511.339 1354.64 521.443 1347.63 530.527C1339.14 541.523 1332.1 553.34 1325.49 565.854C1312.14 591.163 1301.28 618.562 1284.94 641.713C1253.48 686.231 1205.64 701.099 1156.74 695.798C1109.32 690.658 1065.29 662.455 1031.46 625.666C997.878 589.128 973.286 542.666 962.016 491.615C958.743 476.801 957.693 461.61 955.912 446.492C954.148 431.427 952.813 416.432 953.656 401.225C954.467 386.713 956.803 372.362 957.439 357.814C958.027 344.142 956.406 330.45 954.737 316.939C948.584 267.263 930.845 217.927 889.549 193.776C850.366 170.858 801.454 170.902 759.283 180.56C714.217 190.885 676.99 219.872 635.072 239.471C614.932 248.895 593.472 255.179 571.537 253.216C548.233 251.128 522.975 237.633 511.324 214.036C501.325 193.776 503.415 168.377 509.933 147.295C511.609 141.887 513.828 136.711 516.243 131.686C518.532 126.92 518.118 122.181 520.153 117.138C525.01 105.153 530.414 93.4612 536.185 82.0111C558.599 37.3871 588.275 -2.14981 622.578 -35.6995C659.869 -72.1569 702.884 -101.207 749.57 -119.477C774.7 -129.312 800.786 -135.086 827.158 -138.683C856.183 -142.646 883.635 -140.548 912.184 -133.854C938.746 -127.634 964.21 -119.306 989.294 -107.659C1014.97 -95.7443 1039.94 -81.9737 1064.66 -67.7841C1088.71 -53.9864 1112.79 -40.1425 1136.43 -25.4616C1146.93 -18.9385 1157.33 -12.1991 1167.58 -5.18394C1173.49 -1.13353 1178.85 3.32121 1184.26 8.18462C1188.98 12.4324 1194.62 14.8963 1198.91 19.751C1205.43 27.0966 1218.59 28.4074 1227.14 31.6295C1237.4 35.503 1246.5 40.2334 1257.54 41.1897C1284.5 43.5088 1312.36 37.9047 1339.07 34.2272C1367.49 30.3171 1395.85 25.9706 1424.35 23.0177C1438.56 21.5459 1452.8 20.5457 1467.06 20.0266C1471.6 19.8592 1476.13 19.8043 1480.68 19.778V18.3143C1477.25 18.3421 1473.81 18.3948 1470.38 18.4752C1456.11 18.8137 1441.85 19.8848 1427.62 21.2424C1400.23 23.8562 1372.97 28.0163 1345.69 31.8532C1319.59 35.53 1292.92 40.332 1266.56 40.2516C1255.07 40.2151 1243.44 37.5114 1232.87 32.6019C1220.64 26.9357 1206.03 25.7221 1196.4 14.8693C1193.14 11.1837 1186.91 8.73882 1183.18 5.37343C1179.12 1.72298 1175.39 -1.45375 1170.9 -4.58662C1159.82 -12.3343 1148.47 -19.5885 1137.06 -26.7118C1113.47 -41.4461 1089.33 -55.2 1065.31 -69.0328C1018.24 -96.1377 970.76 -120.94 918.907 -133.721C892.537 -140.217 867.39 -143.805 840.35 -141.591C815.204 -139.529 790.088 -134.443 765.831 -126.75C720.401 -112.353 678.293 -86.4898 640.89 -54.3241C606.587 -24.8292 576.544 10.658 552.065 50.6847C539.363 71.4427 528.459 93.5504 519.049 116.407C517.173 120.967 517.277 126.724 515.138 130.955C513.302 134.568 511.681 138.389 510.307 142.245C506.936 151.704 504.695 161.387 503.638 171.508C501.794 189.216 504.997 209.002 515.027 223.211C527.395 240.703 547.215 250.449 566.434 253.966C606.89 261.39 646.629 236.134 681.233 216.07C701.723 204.182 722.149 192.599 744.531 185.95C770.091 178.346 797.465 173.696 823.915 176.507C847.138 178.969 870.329 184.155 891.186 196.364C914.871 210.215 930.542 234.116 940.732 261.372C950.334 287.04 954.197 315.599 956.056 343.214C957.009 357.637 955.277 372.201 953.783 386.516C952.162 402.1 951.749 417.075 953.147 432.713C955.628 460.771 958.933 488.26 966.659 515.159C973.351 538.508 983.857 559.855 996.018 580.113C1043.91 660.027 1132.63 719.038 1219.86 692.442C1244.41 684.964 1265.77 668.523 1282.51 647.211C1303.13 620.936 1315.29 587.076 1331.51 557.446C1340.46 541.096 1352.08 524.781 1364.4 511.411C1376.26 498.541 1392.21 491.741 1407.7 486.51C1414.89 484.083 1422.2 482.049 1429.46 479.907C1433.84 478.621 1438.27 480.21 1442.48 479.086C1446.43 478.033 1450.38 477.139 1454.37 476.355C1463.07 474.659 1471.86 473.801 1480.68 473.105V471.767Z" fill="white"/>
<path d="M1480.68 455.114C1439 456.006 1397.07 456.827 1357.78 474.408C1341.2 481.816 1328.23 503.308 1319.21 519.765C1308.07 540.078 1300.17 562.461 1291.17 584.024C1281.47 607.299 1270.05 627.898 1252.13 644.266C1231.75 662.882 1206.02 674.163 1179.95 676.2C1131.67 679.931 1082.73 653.049 1048.08 616.76C1012.09 579.061 987.991 527.458 982.03 472.445C978.756 442.047 979.424 411.596 981.346 381.108C983.254 350.942 986.036 320.704 983.668 290.485C981.569 263.943 977.166 237.954 965.038 214.75C954.611 194.776 938.254 177.23 920.642 165.449C901.454 152.624 878.215 148.778 856.422 145.877C829.877 142.335 803.092 142.896 776.562 146.297C726.807 152.678 680.693 173.901 633.769 191.919C613.279 199.773 588.736 204.862 570.377 188.609C546.725 167.68 561.508 122.602 571.204 97.2536C589.69 48.9887 619.099 4.45381 653.051 -31.2995C670.313 -49.4693 689.469 -65.2309 709.719 -78.8678C733.167 -94.6563 761.762 -104.347 788.133 -111.808C890.804 -140.841 985.162 -83.4102 1064.88 -16.0556C1103.89 16.9122 1140.94 54.2819 1183.52 81.4212C1202.79 93.7026 1223.58 99.1728 1245.68 95.817C1258.25 93.9073 1269.12 87.9998 1280.79 82.9032C1293.76 77.2355 1306.89 72.0957 1320.13 67.3288C1372.02 48.6414 1426.21 37.556 1480.68 36.735V35.3079C1436.75 36.0039 1393.16 43.4102 1350.57 55.8794C1324.71 63.4561 1299.34 73.1207 1274.48 84.1358C1261.64 89.8195 1250.26 94.3093 1236.33 95.4784C1222.74 96.6212 1207.4 93.0145 1195.18 86.588C1172.13 74.4865 1151.16 56.8518 1131.02 39.5644C1112.07 23.3117 1093.41 6.63109 1074.48 -9.65608C1037.83 -41.2135 999.787 -71.1222 957.503 -92.354C912.948 -114.728 864.656 -125.679 815.984 -119.093C790.565 -115.656 765.705 -106.935 741.813 -96.7992C719.145 -87.1682 698.767 -74.0043 679.328 -57.7968C644.212 -28.541 615.107 8.90636 592.075 50.5678C579.724 72.8889 568.709 96.3616 561.888 121.602C556.055 143.217 552.129 170.412 567.659 187.823C579.74 201.38 597.845 202.219 613.646 199.346C636.043 195.275 657.153 183.084 678.517 174.919C728.811 155.685 780.965 142.726 834.296 145.307C860.443 146.564 888.198 150.242 912.327 162.272C934.169 173.151 953.291 195.114 965.292 218.07C979.137 244.594 982.809 277.901 983.334 308.175C983.874 338.663 980.536 369.096 979.01 399.512C976.213 455.256 981.475 511.465 1006.84 560.445C1027.78 600.891 1058.25 634.61 1095.38 655.798C1136.46 679.252 1184.26 686.07 1226.71 663.687C1244.44 654.35 1260.94 640.393 1272.88 622.812C1285.97 603.497 1294.05 580.453 1302.98 558.48C1309.99 541.273 1317.46 524.298 1327.16 508.787C1332.42 500.361 1338.57 492.758 1345.33 485.887C1354.95 476.123 1366.37 471.891 1378.58 467.983C1411.68 457.381 1446.36 457.059 1480.68 456.488V455.114Z" fill="white"/>
<path d="M647.79 81.5018C651.223 86.4208 652.367 90.9903 656.357 95.4881C660.553 100.226 662.985 102.859 668.438 105.537C672.651 107.608 676.259 109.749 680.852 110.052C688.625 110.571 696.416 110.884 704.204 111.142C732.053 112.052 759.934 111.302 787.783 110.098C815.744 108.884 843.689 107.073 871.634 105.609C885.066 104.904 898.515 104.314 911.947 103.869C918.67 103.645 925.393 103.494 932.117 103.377C938 103.278 946.9 105.179 952.464 103.216C961.668 99.959 972.652 98.9413 980.155 91.5423C986.768 85.0273 994.985 76.2195 996.129 65.9289C998.816 41.5811 988.453 18.395 979.153 -2.69419C974.972 -12.1732 970.903 -20.5884 964.974 -28.7989C959.108 -36.8939 952.496 -44.2497 945.438 -51.0228C933.39 -62.606 919.575 -71.6828 904.999 -78.5992C855.723 -101.966 798.259 -95.6015 750.206 -71.6478C725.249 -59.2062 702.534 -41.1695 683.698 -18.947C662 6.65832 643.371 44.6072 647.598 80.9842C647.711 81.8944 648.998 81.9134 648.886 80.9842C645.469 51.5952 657.628 26.5068 670.012 1.75835C674.224 -6.66636 681.536 -14.4119 687.497 -21.3027C694.268 -29.1206 701.66 -36.2439 709.37 -42.8657C737.664 -67.1499 771.634 -82.7323 806.668 -89.0068C842.131 -95.3602 879.265 -90.7468 911.914 -73.5742C928.16 -65.0259 942.783 -52.9771 955.388 -38.6529C971.365 -20.4985 981.363 2.53478 989.454 26.24C994.7 41.6264 999.103 62.2162 990.518 76.8518C979.804 95.1299 960.809 101.717 942.21 101.816C908.591 101.994 874.989 103.922 841.417 105.823C807.939 107.723 774.463 109.606 740.939 110.017C724.232 110.222 707.543 109.937 690.852 109.17C681.139 108.724 668.565 107.742 661.333 99.067C658.312 95.4428 654.228 92.1418 652.32 87.5174C651.223 84.8672 650.286 82.7615 648.695 80.4767C648.187 79.7434 647.281 80.7707 647.79 81.5018Z" fill="white"/>
<path d="M712.629 43.5554C727.046 70.3195 757.629 71.8111 782.633 72.7031C813.089 73.7924 845.423 70.8731 874.543 60.1717C885.91 55.9955 894.715 49.6859 902.805 39.6892C907.638 33.7196 913.742 24.8379 914.473 16.5931C915.443 5.65915 913.854 -4.35352 909.926 -14.3955C894.206 -54.5838 849.523 -66.3453 814.219 -63.116C788.864 -60.7947 764.401 -49.6648 743.975 -32.7708C734.215 -24.6934 723.931 -14.8854 718.86 -2.3649C716.109 4.41849 711.039 11.2464 710.388 18.6892C709.641 27.2492 709.624 35.3515 712.564 43.3763C712.883 44.2332 714.124 43.8588 713.804 42.9917C703.885 15.9226 723.358 -12.0472 740.986 -28.3439C757.456 -43.5526 777.403 -53.6641 798.1 -58.8931C839.446 -69.3539 896.384 -56.8686 911.453 -5.96936C918.478 17.7885 905.063 41.6267 886.593 52.9884C874.797 60.2353 860.777 63.3849 847.695 66.0257C815.713 72.4984 780.932 74.3627 748.887 67.4002C734.057 64.1804 721.927 58.0221 713.741 42.8221C713.312 42.0288 712.2 42.7505 712.629 43.5554Z" fill="white"/>
<path d="M1480.68 434.836C1462.26 434.14 1443.82 434.087 1425.43 433.034C1400.22 431.586 1375.28 425.893 1350 425.804C1339.27 425.769 1328.66 427.465 1318.37 430.909C1307.63 434.496 1300.77 440.192 1293.02 448.938C1287.01 455.721 1284.96 466.467 1282.81 475.337C1279.55 488.866 1276.98 502.612 1274.23 516.267C1268.81 543.165 1262.37 569.798 1249.83 593.716C1236.48 619.205 1216.88 635.913 1191.43 642.945C1143.28 656.279 1094.67 631.041 1061.24 592.894C1043.66 572.833 1029.54 549.27 1020.9 522.763C1012.61 497.382 1010.2 470.037 1010.39 443.171C1010.61 413.167 1015.28 383.857 1019.64 354.353C1024.17 323.652 1028.53 292.897 1032.23 262.052C1033.87 248.397 1035.33 234.723 1036.65 221.033C1038.24 204.612 1037.75 187.118 1044.31 172.018C1055.96 145.218 1091.01 152.392 1110.82 160.908C1147.44 176.677 1179.54 214.089 1221.39 198.971C1241.71 191.634 1258.71 174.721 1274.23 158.871C1282.53 150.394 1290.6 141.664 1299.02 133.338C1304 128.419 1309.74 124.599 1314.68 119.559C1317.56 116.64 1320.28 113.507 1323.01 110.427C1325.38 107.742 1329.89 106.331 1333.01 104.466C1334.28 103.708 1335.7 101.897 1336.7 100.779C1340.04 97.0149 1344.04 94.6585 1348.11 92.0703C1355.26 87.5264 1362.4 83.5915 1370.06 80.1991C1384.37 73.8712 1399.26 69.3017 1414.27 65.6168C1436.11 60.2607 1458.38 57.459 1480.68 55.7533V54.3262C1439.81 57.4773 1398.64 64.2694 1360.99 82.8143C1351.34 87.5724 1341.51 93.2913 1334.08 101.681C1331.02 105.127 1325.6 106.269 1322.11 109.402C1316.08 114.792 1311.14 121.548 1304.94 126.823C1289.2 140.174 1275.53 156.274 1260.43 170.564C1244.17 185.976 1225.47 199.578 1203.78 201.47C1181.06 203.451 1160.45 188.225 1141.42 176.347C1124.27 165.637 1106.67 155.257 1086.96 152.41C1069.03 149.822 1050.49 154.524 1042.1 173.821C1037.75 183.826 1037.62 195.188 1036.71 206.04C1035.36 222.211 1033.68 238.347 1031.83 254.465C1028.18 286.489 1023.63 318.404 1018.94 350.248C1011.23 402.831 1003.57 455.65 1015.56 508.271C1035.74 596.857 1129.56 679.627 1211.49 637.001C1238.13 623.15 1254.42 592.503 1264.18 562.604C1269.71 545.682 1273.21 527.958 1276.72 510.395C1280.44 491.777 1282.99 471.09 1291.11 454.168C1300.36 434.908 1323.7 429.267 1341.29 427.626C1358.98 425.964 1376.88 429.053 1394.42 431.356C1423.11 435.14 1451.91 434.943 1480.68 436.193V434.836Z" fill="white"/>
<path d="M1480.68 418.968C1411.74 413.739 1335.2 400.209 1294.4 331.738C1287.8 320.671 1282.72 308.746 1280.43 295.609C1277.63 279.563 1280.17 262.766 1283.45 247.094C1289.06 220.337 1298.36 196.17 1312.2 173.526C1340.62 127.108 1382.87 95.2571 1430.85 80.5118C1447.13 75.5051 1463.86 72.6047 1480.68 71.2214V69.8213C1440.86 73.1859 1401.06 84.9921 1367.8 110.223C1350.13 123.619 1334.31 139.943 1320.75 158.425C1308.35 175.303 1294.99 196.526 1289.42 217.749C1283.18 241.633 1275.29 267.496 1278.74 292.753C1281.78 314.94 1292.87 334.326 1305.94 350.855C1329.94 381.251 1364.29 397.906 1398.66 407.526C1425.48 415.042 1453.09 418.343 1480.68 420.414V418.968Z" fill="white"/>
<path d="M1480.68 397.139C1413.14 385.233 1334.98 349.497 1330.99 262.516C1328.8 214.929 1351.8 170.671 1382.78 140.291C1399.37 124.03 1418.97 111.706 1439.8 103.861C1453.04 98.8708 1466.82 95.9266 1480.68 93.7406V92.3916C1466.76 94.6669 1452.94 97.6755 1439.45 102.468C1419.13 109.688 1400.49 122.13 1384.02 137.239C1351.48 167.101 1329.64 211.449 1329.62 259.286C1329.62 304.322 1356.12 341.645 1388.58 364.67C1416.16 384.233 1448.41 393.73 1480.68 398.836V397.139Z" fill="white"/>
<path d="M1480.68 377.985C1426.08 363.598 1367.52 328.007 1362.13 259.732C1359.16 222.034 1377.26 185.691 1400.07 159.757C1412.36 145.797 1427.07 134.98 1442.74 126.51C1455.09 119.835 1467.76 116.588 1480.68 113.972V112.65C1467.58 115.39 1454.77 118.746 1442.09 125.262C1425.36 133.857 1410.3 146.074 1397.39 160.756C1374.54 186.727 1358.87 222.621 1360.84 259.732C1362.78 296.145 1385.13 326.989 1410.66 347.107C1431.45 363.492 1455.82 373.542 1480.68 379.7V377.985Z" fill="white"/>
<path d="M1480.68 351.729C1440.42 336.237 1401.36 304.053 1398.36 253.699C1395.05 198.151 1436.73 157.302 1480.68 140.237V138.658C1435.82 155.785 1395.18 197.08 1397.07 253.699C1398.79 304.606 1439.96 337.61 1480.68 353.212V351.729Z" fill="white"/>
<path d="M1480.68 324.686C1454.37 309.442 1430.99 284.078 1429.97 250.022C1428.88 213.466 1453.12 185.638 1480.68 169.065V167.36C1453.25 183.647 1430.39 210.575 1428.72 247.166C1427.07 282.919 1452.94 310.281 1480.68 326.222V324.686Z" fill="white"/>
<path d="M-401.959 628.417C-373.197 641.322 -341.453 648.177 -310.686 650.728C-273.014 653.852 -235.205 650.246 -197.5 650.515C-163.421 650.765 -131.056 657.725 -99.8691 673.415C-76.3276 685.251 -54.6769 701.476 -35.0939 720.342H-33.1941C-61.5836 692.907 -94.1382 671.345 -130.174 659.171C-178.044 642.982 -228.902 650.478 -278.068 650.478C-326.773 650.478 -379.443 642.697 -422.777 615.832C-432.885 609.568 -442.106 601.659 -450.443 592.699C-454.066 588.808 -459.194 583.399 -458.199 576.974C-457.468 572.226 -453.479 568.298 -450.435 565.354C-444.513 559.641 -438.473 554.108 -432.123 549.004C-411.338 532.314 -385.318 526.28 -361.029 519.104C-335.381 511.537 -309.351 505.111 -283.529 498.293C-271.313 495.08 -259.042 492.188 -246.699 489.689C-241.23 488.581 -234.514 488.6 -229.404 486.208C-228.815 485.923 -228.1 484.959 -227.838 484.691C-224.985 481.746 -220.105 481.675 -216.472 480.783C-172.329 469.895 -135.261 443.066 -101.419 410.009C-67.5769 376.933 -37.8351 338.949 -5.03442 304.606C3.67719 295.502 12.5222 286.399 22.1715 278.564C26.7486 274.833 31.137 270.834 35.7382 267.14C40.3155 263.48 46.2456 261.462 50.1716 257.054C56.736 249.629 67.4985 245.024 75.6372 239.937C85.27 233.903 96.4916 227.46 107.729 231.101C118.834 234.707 126.36 253.199 131.812 263.658C137.852 275.261 143.138 287.363 148.828 299.198C153.566 309.033 158.653 318.832 164.749 327.704C168.118 332.611 171.686 337.234 175.549 341.661C179.317 345.982 181.208 351.908 185.055 356.423C200.825 374.969 219.795 389.428 239.34 402.405C261.903 417.361 284.587 432.178 307.438 446.583C351.048 474.034 395.055 499.042 445.166 506.271C495.691 513.554 546.789 511.358 597.353 518.677C604.793 519.748 612.135 520.622 619.24 523.46C625.933 526.138 632.388 529.28 639.206 531.565C653.289 536.259 666.197 541.471 679.009 549.806C705.173 566.853 729.335 588.47 753.528 608.782C796.845 645.141 839.27 682.839 881.824 720.342H883.906C848.602 689.266 813.392 658.047 777.723 627.506C755.849 608.782 733.929 589.969 711.373 572.297C692.204 557.304 673.159 542.06 650.874 533.581C639.573 529.299 628.222 525.531 616.968 521.015C606.429 516.804 593.872 516.429 582.84 514.928C557.327 511.501 531.576 510.894 505.944 509.823C479.636 508.698 453.338 507.002 427.411 501.631C400.745 496.114 376.305 484.727 352.041 471.411C328.769 458.63 306.189 444.314 283.768 429.75C261.809 415.488 239.315 401.833 218.326 385.805C208.271 378.128 198.862 369.472 190.078 360.028C185.636 355.245 182.926 350.462 179.596 344.732C176.758 339.859 172.395 335.95 169.033 331.469C153.741 311.176 144.577 285.845 132.917 262.927C125.63 248.593 115.821 225.764 98.0822 228.692C89.7529 230.066 82.3128 234.207 74.9926 238.686C70.8047 241.239 66.7107 243.988 62.5555 246.596C58.6762 249.039 54.1218 250.54 50.9738 254.091C46.5158 259.125 40.3089 261.945 35.0872 265.907C30.4123 269.443 26.0337 273.512 21.5204 277.313C12.6017 284.811 4.29703 293.039 -3.9295 301.501C-20.6202 318.689 -36.4528 336.915 -52.3557 355.013C-83.9975 390.997 -116.312 426.787 -155.321 452.598C-177.6 467.359 -200.72 475.749 -225.898 481.549C-229.117 482.3 -230.579 485.334 -234.276 485.941C-240.642 486.994 -246.977 488.261 -253.294 489.582C-266.607 492.365 -279.808 495.776 -292.978 499.327C-318.73 506.253 -344.688 512.572 -370.24 520.373C-393.258 527.405 -415.44 533.85 -435.103 549.646C-442.868 555.876 -451.5 562.801 -457.237 571.405C-462.611 579.489 -458.453 585.488 -453.303 591.538C-439.054 608.247 -420.916 619.92 -401.959 628.417Z" fill="white"/>
<path d="M-353.288 592.949C-346.533 600.07 -336.399 603.213 -327.824 606.229C-316.204 610.318 -304.075 612.388 -291.994 613.834C-265.79 616.993 -238.512 612.352 -212.254 611.512C-184.736 610.637 -157.572 613.262 -131.59 624.042C-108.787 633.485 -87.0974 646.141 -66.6466 660.849C-43.1129 677.789 -21.5989 698.048 -1.91968 720.342H-0.155243C-28.1164 688.641 -59.7092 661.384 -95.029 640.697C-115.971 628.417 -138.25 618.064 -161.537 613.315C-186.621 608.21 -212.46 609.798 -237.765 611.281C-265.058 612.869 -291.7 614.423 -318.572 607.531C-330.915 604.356 -344.713 599.999 -354.123 590.074C-368.103 575.313 -347.024 558.678 -336.176 552.573C-326.79 547.289 -316.22 544.756 -305.959 542.756C-292.86 540.202 -280.208 535.973 -267.38 532.134C-242.432 524.692 -216.155 523.138 -191.85 512.554C-169.628 502.844 -148.281 491.065 -128.808 475.552C-110.56 461.004 -93.9319 444.011 -77.9171 426.484C-43.5179 388.873 -11.9419 345.893 28.7903 316.584C50.6638 300.839 73.8947 295.931 97.1192 310.585C114.66 321.67 128.004 340.091 141.962 355.995C148.932 363.938 157.117 369.026 164.128 376.933C173.022 386.963 183.099 394.889 193.551 402.761C214.819 418.791 237.431 432.355 259.526 446.831C303.646 475.784 346.945 506.093 395.699 524.265C419.93 533.296 445.085 539.15 470.574 540.847C498.226 542.703 525.725 542.185 553.352 545.63C579.77 548.914 605.936 551.985 631.067 562.354C656.676 572.939 679.088 591.414 701.85 607.943C723.898 623.955 745.104 641.322 766.515 658.387C788.022 675.523 810.371 691.55 831.481 709.274C835.868 712.953 840.272 716.63 844.643 720.342H846.964C812.278 690.479 775.368 663.651 739.778 635.271C717.873 617.813 695.492 601.213 672.777 585.077C651.794 570.173 630.209 558.802 606 552.376C581.488 545.899 555.227 543.917 530.177 541.738C502.017 539.276 473.571 541.149 445.612 536.456C392.44 527.547 343.964 500.649 297.939 470.589C275.303 455.81 252.739 440.887 230.064 426.197C207.587 411.615 183.482 396.709 165.035 375.916C161.688 372.131 158.532 367.669 154.559 364.722C150.244 361.546 146.555 359.119 142.867 354.976C135.643 346.838 128.736 338.377 121.408 330.345C108.787 316.512 94.3931 304.285 76.7647 300.5C56.5288 296.18 37.0722 308.194 20.9792 320.705C1.97519 335.45 -14.9142 353.514 -31.3184 371.703C-65.1765 409.24 -96.8814 449.475 -136.414 479.728C-157.5 495.866 -183.099 508.949 -207.667 516.429C-232.289 523.942 -257.508 527.512 -282.091 535.169C-302.548 541.561 -324.516 542.703 -343.115 555.18C-350.101 559.874 -355.648 566.62 -359.726 574.493C-363.119 581.043 -357.151 588.861 -353.288 592.949Z" fill="white"/>
<path d="M1041.46 489.706C1047.92 556.911 1111.95 629.273 1175.04 613.547C1191.25 609.514 1205.1 598.268 1216 584.507C1219.31 580.329 1220.85 574.458 1223.01 569.459C1224.96 564.89 1229.62 558.607 1230.39 553.734C1231.96 543.701 1233.01 533.617 1233.58 523.442C1235.88 482.084 1229.05 440.013 1214.3 402.118C1202.44 371.685 1184.41 344.375 1161.24 323.757C1151.37 314.977 1138.81 303.946 1126.01 302.82C1111.71 301.572 1101.79 305.801 1090.85 315.904C1070.35 334.862 1058.54 364.812 1050.73 392.64C1042.07 423.556 1037.98 457.4 1041.46 489.706C1041.56 490.616 1042.85 490.635 1042.75 489.706C1038.22 447.688 1046.09 403.101 1061.52 364.778C1068.73 346.874 1078.47 329.828 1091.76 316.94C1099.28 309.64 1107.53 304.587 1117.53 304.034C1130.04 303.321 1139.11 308.675 1149.35 316.011C1183.3 340.287 1206.64 379.682 1219.85 421.878C1226.48 442.995 1230.31 465.199 1231.96 487.493C1232.71 497.757 1232.82 508.056 1232.52 518.337C1232.18 529.725 1232.72 546.183 1227.67 556.233C1224.09 563.39 1220.94 570.833 1217.88 578.312C1215.21 584.826 1209.91 589.916 1205.17 594.538C1196.93 602.624 1187.07 608.318 1176.58 611.621C1156.23 618.046 1134.52 612.476 1115.98 602.231C1078.53 581.561 1047.28 537.044 1042.75 489.706C1042.66 488.78 1041.38 488.78 1041.46 489.706Z" fill="white"/>
<path d="M-96.8902 602.801C-52.9136 637.501 -12.499 677.234 25.0624 720.341H26.8594C-1.79312 687.32 -32.0903 656.117 -64.5648 627.88C-83.6959 611.261 -104.701 597.107 -123.355 579.882C-132.026 571.885 -139.554 561.139 -137.217 547.824C-136.001 540.916 -131.209 534.241 -127.744 528.511C-123.126 520.89 -117.849 513.766 -112.619 506.663C-96.2925 484.458 -77.4649 464.842 -58.9381 445.028C-40.3247 425.143 -23.968 401.884 -4.04915 383.751C17.2982 364.294 41.2766 344.803 70.3101 350.406C82.9562 352.835 94.9884 362.046 106.044 369.025C117.934 376.522 129.546 384.553 141.087 392.711C186.818 425.001 232.519 456.969 279.492 486.974C324.047 515.428 369.375 545.665 419.31 560.195C471.186 575.295 525.82 567.906 578.388 578.383C606.253 583.933 630.749 595.001 655.339 610.548C678.5 625.184 701.025 641.071 723.199 657.528C750.381 677.698 776.911 698.921 803.329 720.341H805.49C769.106 690.872 732.466 661.758 694.427 635.003C673.063 619.973 650.809 603.212 627.427 592.484C603.709 581.614 578.419 575.866 553.035 572.866C526.328 569.708 499.434 569.476 472.649 567.566C445.452 565.621 419.406 560.015 393.639 549.966C367.754 539.864 343.52 524.71 319.437 510.18C295.799 495.9 272.489 480.959 249.313 465.77C202.977 435.39 158.523 401.565 112.172 371.291C93.5658 359.136 73.7921 344.319 51.2591 348.586C28.0835 352.96 10.4552 368.684 -7.33263 384.875C-17.1804 393.853 -25.0566 404.705 -33.7442 415.004C-42.8431 425.839 -52.4532 436.121 -62.0536 446.366C-80.6273 466.234 -99.1313 486.046 -115.495 508.305C-126.258 522.942 -144.553 543.059 -136.986 563.657C-130.446 581.454 -110.02 592.448 -96.8902 602.801Z" fill="white"/>
</g>
</svg>
