<svg width="24" height="24" viewBox="0 0 24 24" fill="none" xmlns="http://www.w3.org/2000/svg">
<path fill-rule="evenodd" clip-rule="evenodd" d="M1 6C1 4.34315 2.34315 3 4 3H20C21.6569 3 23 4.34315 23 6V9V18C23 19.6569 21.6569 21 20 21H4C2.34315 21 1 19.6569 1 18V9V6ZM3 9.99592V18C3 18.5523 3.44772 19 4 19H20C20.5523 19 21 18.5523 21 18V9.99592C20.9341 9.99862 20.8674 10 20.8 10H3.2C3.13258 10 3.06587 9.99862 3 9.99592ZM21 8.00408C20.9341 8.00138 20.8674 8 20.8 8H3.2C3.13258 8 3.06587 8.00138 3 8.00408V6C3 5.44772 3.44772 5 4 5H20C20.5523 5 21 5.44771 21 6V8.00408ZM6.5 17C7.32843 17 8 16.3284 8 15.5C8 16.3284 8.67157 17 9.5 17C10.3284 17 11 16.3284 11 15.5C11 14.6716 10.3284 14 9.5 14C8.67157 14 8 14.6716 8 15.5C8 14.6716 7.32843 14 6.5 14C5.67157 14 5 14.6716 5 15.5C5 16.3284 5.67157 17 6.5 17Z" fill="#171717"/>
</svg>
