<svg width="40" height="40" viewBox="0 0 40 40" fill="none" xmlns="http://www.w3.org/2000/svg">
<path fill-rule="evenodd" clip-rule="evenodd" d="M20 0.75C9.36852 0.75 0.75 9.36852 0.75 20C0.75 30.6314 9.36852 39.25 20 39.25C30.6314 39.25 39.25 30.6314 39.25 20C39.25 9.36852 30.6314 0.75 20 0.75ZM4.25 20C4.25 28.6986 11.3015 35.75 20 35.75C28.6986 35.75 35.75 28.6986 35.75 20C35.75 11.3015 28.6986 4.25 20 4.25C11.3015 4.25 4.25 11.3015 4.25 20ZM9.5 20.1243L16.9245 27.549L29.299 15.1746L26.8241 12.6997L16.9245 22.5993L11.9749 17.6494L9.5 20.1243Z" fill="black"/>
</svg>
