<svg width="48" height="47" viewBox="0 0 48 47" fill="none" xmlns="http://www.w3.org/2000/svg">
<rect width="48" height="46.6667" rx="10" fill="#33C390"/>
<path fill-rule="evenodd" clip-rule="evenodd" d="M22.8333 31.4998V34.9998H25.1667V31.4998H26.3333C28.9106 31.4998 31 29.4105 31 26.8332C31 24.2559 28.9106 22.1665 26.3333 22.1665H25.1667V17.4998H27.5V19.8332H29.8333V15.1665H25.1667V11.6665H22.8333V15.1665H21.6667C19.0893 15.1665 17 17.2558 17 19.8332C17 22.4105 19.0893 24.4998 21.6667 24.4998H22.8333V29.1665H20.5V26.8332H18.1667V31.4998H22.8333ZM25.1667 29.1665H26.3333C27.622 29.1665 28.6667 28.1219 28.6667 26.8332C28.6667 25.5445 27.622 24.4998 26.3333 24.4998H25.1667V29.1665ZM22.8333 22.1665V17.4998H21.6667C20.378 17.4998 19.3333 18.5445 19.3333 19.8332C19.3333 21.1219 20.378 22.1665 21.6667 22.1665H22.8333Z" fill="#FFFCFC"/>
</svg>
