<svg width="14" height="8" viewBox="0 0 14 8" fill="none" xmlns="http://www.w3.org/2000/svg">
<path d="M7.16756 7.99998C6.9922 8.00099 6.81837 7.96738 6.65603 7.90107C6.49369 7.83477 6.34604 7.73707 6.22154 7.61358L0.891854 2.28389C0.767621 2.15966 0.669074 2.01217 0.60184 1.84985C0.534606 1.68754 0.5 1.51356 0.5 1.33787C0.5 1.16218 0.534606 0.988208 0.60184 0.82589C0.669074 0.663572 0.767621 0.516086 0.891854 0.391853C1.01609 0.26762 1.16357 0.169073 1.32589 0.101839C1.48821 0.0346042 1.66218 -2.61801e-09 1.83787 0C2.01357 2.61802e-09 2.18754 0.0346042 2.34986 0.101839C2.51217 0.169073 2.65966 0.26762 2.78389 0.391853L7.16756 4.80217L11.5645 0.565068C11.6871 0.428775 11.8365 0.319238 12.0033 0.243309C12.1702 0.16738 12.3509 0.126691 12.5342 0.123787C12.7174 0.120884 12.8993 0.155827 13.0685 0.226433C13.2377 0.297039 13.3904 0.40179 13.5173 0.534132C13.6441 0.666474 13.7422 0.823561 13.8056 0.995569C13.8689 1.16758 13.8961 1.3508 13.8854 1.53379C13.8747 1.71678 13.8264 1.8956 13.7434 2.05905C13.6605 2.22251 13.5447 2.36709 13.4033 2.48375L8.0736 7.6269C7.82994 7.86183 7.506 7.99521 7.16756 7.99998Z" fill="#222222"/>
</svg>
