<svg width="16" height="16" viewBox="0 0 16 16" fill="none" xmlns="http://www.w3.org/2000/svg">
<path fill-rule="evenodd" clip-rule="evenodd" d="M13.9997 8.00378C13.6315 8.00378 13.333 8.30226 13.333 8.67045V12.6705C13.333 13.0386 13.0345 13.3371 12.6663 13.3371H3.33301C2.96482 13.3371 2.66634 13.0386 2.66634 12.6705V3.33712C2.66634 2.96893 2.96482 2.67045 3.33301 2.67045H7.33301C7.7012 2.67045 7.99967 2.37197 7.99967 2.00378C7.99967 1.63559 7.7012 1.33712 7.33301 1.33712H3.33301C2.22844 1.33712 1.33301 2.23255 1.33301 3.33712V12.6705C1.33301 13.775 2.22844 14.6705 3.33301 14.6705H12.6663C13.7709 14.6705 14.6663 13.775 14.6663 12.6705V8.67045C14.6663 8.30226 14.3679 8.00378 13.9997 8.00378ZM3.99967 8.51045V11.3371C3.99967 11.7053 4.29815 12.0038 4.66634 12.0038H7.49301C7.67021 12.0048 7.84053 11.9352 7.96634 11.8105L12.5797 7.19045L14.473 5.33712C14.5992 5.21194 14.6702 5.04154 14.6702 4.86378C14.6702 4.68603 14.5992 4.51563 14.473 4.39045L11.6463 1.53045C11.5212 1.40424 11.3508 1.33325 11.173 1.33325C10.9952 1.33325 10.8249 1.40424 10.6997 1.53045L8.81967 3.41712L4.19301 8.03712C4.06822 8.16293 3.99865 8.33325 3.99967 8.51045ZM11.173 2.94378L13.0597 4.83045L12.113 5.77712L10.2263 3.89045L11.173 2.94378ZM5.33301 8.78378L9.28634 4.83045L11.173 6.71712L7.21967 10.6705H5.33301V8.78378Z" fill="#171717"/>
</svg>
