<svg width="22" height="15" viewBox="0 0 22 15" fill="none" xmlns="http://www.w3.org/2000/svg">
<path fill-rule="evenodd" clip-rule="evenodd" d="M22 6.66699H20V4.66699H18V6.66699H16V8.66699H18V10.667H20V8.66699H22M7 6.66699V9.06699H11C10.8 10.067 9.8 12.067 7 12.067C4.6 12.067 2.7 10.067 2.7 7.66699C2.7 5.26699 4.6 3.26699 7 3.26699C8.4 3.26699 9.3 3.86699 9.8 4.36699L11.7 2.56699C10.5 1.36699 8.9 0.666992 7 0.666992C3.1 0.666992 0 3.76699 0 7.66699C0 11.567 3.1 14.667 7 14.667C11 14.667 13.7 11.867 13.7 7.86699C13.7 7.36699 13.7 7.06699 13.6 6.66699H7Z" fill="#DA5140"/>
</svg>
