<svg width="48" height="47" viewBox="0 0 48 47" fill="none" xmlns="http://www.w3.org/2000/svg">
<rect width="48" height="46.6667" rx="10" fill="#FF4F60"/>
<path d="M35.6663 23.3332C35.6663 21.8011 35.3646 20.284 34.7783 18.8685C34.192 17.4531 33.3326 16.1669 32.2493 15.0836C31.1659 14.0002 29.8798 13.1409 28.4643 12.5546C27.0488 11.9683 25.5318 11.6665 23.9997 11.6665C20.9055 11.6665 17.938 12.8957 15.7501 15.0836C13.5622 17.2715 12.333 20.239 12.333 23.3332C12.333 26.4274 13.5622 29.3948 15.7501 31.5827C17.938 33.7707 20.9055 34.9998 23.9997 34.9998C27.0939 34.9998 30.0613 33.7707 32.2493 31.5827C34.4372 29.3948 35.6663 26.4274 35.6663 23.3332ZM33.2513 22.1665H29.833C29.6406 19.4227 28.7005 16.7839 27.1147 14.5365C28.7439 15.1151 30.1804 16.1349 31.2639 17.4822C32.3475 18.8294 33.0355 20.4511 33.2513 22.1665ZM20.593 24.4998H27.4997C27.2011 27.3822 25.9726 30.0891 23.9997 32.2115C22.0281 30.0979 20.8277 27.3807 20.593 24.4998ZM20.593 22.1665C20.8647 19.2986 22.0602 16.5965 23.9997 14.4665C25.9885 16.5736 27.2198 19.2826 27.4997 22.1665H20.593ZM21.013 14.5015C19.4188 16.7614 18.4636 19.4093 18.248 22.1665H14.748C14.9684 20.4299 15.6727 18.7903 16.7805 17.4349C17.8884 16.0796 19.355 15.0631 21.013 14.5015ZM14.748 24.4998H18.248C18.4401 27.2546 19.3889 29.903 20.9897 32.1532C19.3376 31.5889 17.877 30.5726 16.7737 29.2197C15.6703 27.8668 14.9685 26.2316 14.748 24.4998ZM27.0563 32.1415C28.6528 29.8906 29.6121 27.2505 29.833 24.4998H33.2747C33.054 26.2268 32.3548 27.8576 31.2559 29.208C30.1571 30.5584 28.7024 31.5745 27.0563 32.1415Z" fill="white"/>
</svg>
