<svg width="181" height="60" viewBox="0 0 181 60" fill="none" xmlns="http://www.w3.org/2000/svg">
<path d="M4.53628 46C4.96772 46 5.31633 45.6706 5.31633 45.263V24.3992C5.31633 23.9934 5.66495 23.6622 6.09639 23.6622H14.6481C15.4127 23.6222 16.9324 23.7841 18.0418 24.0243C18.8103 24.1262 20.1451 24.6758 21.0195 25.2544C21.6532 25.5692 22.5989 26.6009 23.1324 27.5562C23.6659 28.5134 23.9317 29.718 23.9317 31.1682C24.0222 32.1526 23.6698 33.7339 23.1478 34.7019C22.8627 35.3988 21.9305 36.4579 21.0657 37.0674C20.5418 37.526 19.209 38.1192 18.088 38.3921C16.9671 38.6651 15.8191 38.8034 14.6462 38.8034H13.5926C13.1631 38.8034 12.8126 39.1327 12.8126 39.5403V45.2594C12.8126 45.6652 13.1612 45.9964 13.5926 45.9964H26.9672C27.3967 45.9964 27.9957 45.7653 28.3019 45.4796L36.4453 37.8972C36.7516 37.6115 37 37.0511 37 36.6435V14.7369C37 14.3293 36.6514 14 36.22 14H14.1531C13.7217 14 13.0552 14.1365 12.6643 14.3057L1.70882 19.024C1.31783 19.1932 1.00003 19.659 1.00003 20.0666V45.263C1.00003 45.6688 1.34865 46 1.78009 46H4.53628Z" fill="#1E1E1E" stroke="#1E1E1E" stroke-width="2" stroke-linecap="round" stroke-linejoin="round"/>
<path d="M58.84 38.48C58.424 38.48 58.04 38.32 57.688 38C57.336 37.712 57.16 37.36 57.16 36.944V21.44C57.16 20.576 57.432 19.92 57.976 19.472C58.52 19.024 59.128 18.8 59.8 18.8H64.888C65.976 18.8 66.984 19.024 67.912 19.472C68.872 19.888 69.64 20.512 70.216 21.344C70.792 22.176 71.08 23.2 71.08 24.416C71.08 26.304 70.472 27.808 69.256 28.928C68.072 30.048 66.632 30.608 64.936 30.608H61.72C60.92 30.608 60.52 31.088 60.52 32.048V36.944C60.52 37.36 60.344 37.712 59.992 38C59.672 38.32 59.288 38.48 58.84 38.48ZM61.48 27.728H64.408C65.208 27.728 65.976 27.488 66.712 27.008C67.48 26.528 67.864 25.696 67.864 24.512C67.864 23.584 67.512 22.896 66.808 22.448C66.136 21.968 65.4 21.728 64.6 21.728H61.624C60.824 21.728 60.424 22.112 60.424 22.88V26.432C60.424 27.296 60.776 27.728 61.48 27.728ZM77.2465 30.896V36.992C77.2465 37.472 77.0705 37.84 76.7185 38.096C76.3985 38.352 76.0305 38.48 75.6145 38.48C75.1985 38.48 74.8145 38.352 74.4625 38.096C74.1425 37.84 73.9825 37.472 73.9825 36.992V25.712C73.9825 25.168 74.1425 24.768 74.4625 24.512C74.8145 24.224 75.1985 24.08 75.6145 24.08C76.0305 24.08 76.3985 24.224 76.7185 24.512C77.0705 24.768 77.2465 25.168 77.2465 25.712V25.904C77.6945 25.296 78.2705 24.8 78.9745 24.416C79.7105 24.032 80.4785 23.84 81.2785 23.84C81.6625 23.84 82.0465 23.888 82.4305 23.984C82.8145 24.08 83.1025 24.272 83.2945 24.56C83.4865 24.848 83.5825 25.168 83.5825 25.52C83.5825 25.936 83.4385 26.32 83.1505 26.672C82.8945 26.992 82.5105 27.152 81.9985 27.152C81.7745 27.152 81.5345 27.12 81.2785 27.056C81.0545 26.992 80.7665 26.96 80.4145 26.96C79.4865 26.96 78.7185 27.312 78.1105 28.016C77.5345 28.72 77.2465 29.68 77.2465 30.896ZM87.4281 38.48C87.0121 38.48 86.6281 38.352 86.2761 38.096C85.9561 37.84 85.7961 37.472 85.7961 36.992V25.472C85.7961 24.928 85.9561 24.528 86.2761 24.272C86.6281 23.984 87.0121 23.84 87.4281 23.84C87.8441 23.84 88.2121 23.984 88.5321 24.272C88.8841 24.528 89.0601 24.928 89.0601 25.472V36.992C89.0601 37.472 88.8841 37.84 88.5321 38.096C88.2121 38.352 87.8441 38.48 87.4281 38.48ZM87.4761 21.2C86.8681 21.2 86.3401 21.008 85.8921 20.624C85.4761 20.208 85.2681 19.712 85.2681 19.136C85.2681 18.592 85.4761 18.128 85.8921 17.744C86.3401 17.328 86.8681 17.12 87.4761 17.12C88.0521 17.12 88.5481 17.328 88.9641 17.744C89.3801 18.128 89.5881 18.592 89.5881 19.136C89.5881 19.712 89.3801 20.208 88.9641 20.624C88.5481 21.008 88.0521 21.2 87.4761 21.2ZM105.015 38.48C104.599 38.48 104.215 38.352 103.863 38.096C103.543 37.84 103.383 37.472 103.383 36.992V30.944C103.383 29.536 103.063 28.496 102.423 27.824C101.815 27.152 100.999 26.816 99.9749 26.816C98.6629 26.816 97.7029 27.248 97.0949 28.112C96.5189 28.944 96.2309 29.872 96.2309 30.896V36.992C96.2309 37.472 96.0549 37.84 95.7029 38.096C95.3829 38.352 95.0149 38.48 94.5989 38.48C94.1829 38.48 93.7989 38.352 93.4469 38.096C93.1269 37.84 92.9669 37.472 92.9669 36.992V25.712C92.9669 25.168 93.1269 24.768 93.4469 24.512C93.7989 24.224 94.1829 24.08 94.5989 24.08C95.0149 24.08 95.3829 24.224 95.7029 24.512C96.0549 24.768 96.2309 25.168 96.2309 25.712C96.7749 25.168 97.4789 24.72 98.3429 24.368C99.2069 24.016 100.023 23.84 100.791 23.84C102.583 23.84 104.007 24.416 105.063 25.568C106.119 26.72 106.647 28.416 106.647 30.656V36.992C106.647 37.472 106.471 37.84 106.119 38.096C105.767 38.352 105.399 38.48 105.015 38.48ZM115.688 38.48C114.44 38.48 113.416 38.096 112.616 37.328C111.816 36.56 111.416 35.408 111.416 33.872V27.776C111.416 27.456 111.256 27.296 110.936 27.296H110.072C109.656 27.296 109.304 27.168 109.016 26.912C108.728 26.624 108.584 26.272 108.584 25.856C108.584 25.408 108.728 25.04 109.016 24.752C109.304 24.464 109.656 24.32 110.072 24.32H110.936C111.256 24.32 111.416 24.16 111.416 23.84V19.808C111.416 19.36 111.56 19.008 111.848 18.752C112.168 18.464 112.552 18.32 113 18.32C113.48 18.32 113.864 18.464 114.152 18.752C114.472 19.008 114.632 19.36 114.632 19.808V23.84C114.632 24.16 114.792 24.32 115.112 24.32H117.704C118.088 24.32 118.424 24.464 118.712 24.752C119 25.04 119.144 25.408 119.144 25.856C119.144 26.272 119 26.624 118.712 26.912C118.456 27.168 118.104 27.296 117.656 27.296H115.112C114.792 27.296 114.632 27.456 114.632 27.776V33.44C114.632 34.784 115.176 35.456 116.264 35.456C116.584 35.456 116.92 35.408 117.272 35.312C117.624 35.216 117.864 35.168 117.992 35.168C118.44 35.168 118.776 35.312 119 35.6C119.256 35.888 119.384 36.224 119.384 36.608C119.384 36.896 119.304 37.184 119.144 37.472C118.984 37.728 118.728 37.92 118.376 38.048C118.024 38.176 117.576 38.272 117.032 38.336C116.52 38.432 116.072 38.48 115.688 38.48ZM131.731 25.424C131.731 24.976 131.875 24.608 132.163 24.32C132.483 24 132.883 23.84 133.363 23.84C133.811 23.84 134.195 24 134.515 24.32C134.835 24.608 134.995 24.976 134.995 25.424V32.192C134.995 33.632 134.675 34.816 134.035 35.744C133.395 36.672 132.563 37.36 131.539 37.808C130.515 38.256 129.427 38.48 128.275 38.48C127.123 38.48 126.035 38.256 125.011 37.808C123.987 37.36 123.155 36.672 122.515 35.744C121.875 34.816 121.555 33.632 121.555 32.192V25.424C121.555 24.976 121.699 24.608 121.987 24.32C122.307 24 122.707 23.84 123.187 23.84C123.635 23.84 124.019 24 124.339 24.32C124.659 24.608 124.819 24.976 124.819 25.424V32.192C124.819 33.376 125.171 34.224 125.875 34.736C126.579 35.248 127.379 35.504 128.275 35.504C129.203 35.504 130.003 35.248 130.675 34.736C131.379 34.224 131.731 33.376 131.731 32.192V25.424ZM140.208 38.48C139.792 38.48 139.408 38.352 139.056 38.096C138.736 37.84 138.576 37.472 138.576 36.992V25.712C138.576 25.168 138.736 24.768 139.056 24.512C139.408 24.224 139.792 24.08 140.208 24.08C140.528 24.08 140.832 24.16 141.12 24.32C141.408 24.448 141.616 24.688 141.744 25.04C141.808 25.232 141.84 25.408 141.84 25.568C142.32 25.056 142.944 24.64 143.712 24.32C144.48 24 145.232 23.84 145.968 23.84C148.048 23.84 149.584 24.672 150.576 26.336C150.96 25.664 151.584 25.088 152.448 24.608C153.344 24.096 154.432 23.84 155.712 23.84C157.44 23.84 158.816 24.416 159.84 25.568C160.864 26.72 161.376 28.416 161.376 30.656V36.992C161.376 37.472 161.2 37.84 160.848 38.096C160.496 38.352 160.128 38.48 159.744 38.48C159.328 38.48 158.944 38.352 158.592 38.096C158.272 37.84 158.112 37.472 158.112 36.992V30.944C158.112 28.192 157.088 26.816 155.04 26.816C153.888 26.816 153.056 27.12 152.544 27.728C152.032 28.336 151.712 29.056 151.584 29.888V36.992C151.584 37.472 151.408 37.84 151.056 38.096C150.704 38.352 150.336 38.48 149.952 38.48C149.536 38.48 149.152 38.352 148.8 38.096C148.48 37.84 148.32 37.472 148.32 36.992V30.944C148.32 29.536 148.048 28.496 147.504 27.824C146.96 27.152 146.224 26.816 145.296 26.816C143.92 26.816 142.992 27.248 142.512 28.112C142.064 28.944 141.84 29.872 141.84 30.896V36.992C141.84 37.472 141.664 37.84 141.312 38.096C140.992 38.352 140.624 38.48 140.208 38.48ZM171.447 38.48C170.039 38.48 168.759 38.16 167.607 37.52C166.487 36.88 165.607 36 164.967 34.88C164.327 33.728 164.007 32.448 164.007 31.04C164.007 29.664 164.327 28.432 164.967 27.344C165.607 26.256 166.487 25.408 167.607 24.8C168.759 24.16 170.039 23.84 171.447 23.84C172.855 23.84 174.119 24.16 175.239 24.8C176.359 25.408 177.239 26.256 177.879 27.344C178.551 28.432 178.887 29.664 178.887 31.04C178.887 32.448 178.551 33.728 177.879 34.88C177.239 36 176.359 36.88 175.239 37.52C174.119 38.16 172.855 38.48 171.447 38.48ZM171.447 35.504C172.695 35.504 173.703 35.104 174.471 34.304C175.239 33.472 175.623 32.384 175.623 31.04C175.623 29.76 175.239 28.736 174.471 27.968C173.703 27.2 172.695 26.816 171.447 26.816C170.167 26.816 169.143 27.2 168.375 27.968C167.639 28.736 167.271 29.76 167.271 31.04C167.271 32.384 167.639 33.472 168.375 34.304C169.143 35.104 170.167 35.504 171.447 35.504Z" fill="#1E1E1E"/>
</svg>
