<svg width="12" height="12" viewBox="0 0 12 12" fill="none" xmlns="http://www.w3.org/2000/svg">
<path fill-rule="evenodd" clip-rule="evenodd" d="M5.99935 0.666748C5.63115 0.666748 5.33268 0.965228 5.33268 1.33341V5.33341H1.33268C0.964496 5.33341 0.666016 5.63188 0.666016 6.00008C0.666016 6.36828 0.964496 6.66675 1.33268 6.66675H5.33268V10.6667C5.33268 11.0349 5.63115 11.3334 5.99935 11.3334C6.36755 11.3334 6.66602 11.0349 6.66602 10.6667V6.66675H10.666C11.0342 6.66675 11.3327 6.36828 11.3327 6.00008C11.3327 5.63188 11.0342 5.33341 10.666 5.33341H6.66602V1.33341C6.66602 0.965228 6.36755 0.666748 5.99935 0.666748Z" fill="#171717"/>
</svg>
