<svg width="390" height="396" viewBox="0 0 390 396" fill="none" xmlns="http://www.w3.org/2000/svg">
<g opacity="0.05">
<path d="M-275.013 533.957C-239.875 591.912 -195.939 634.474 -152.513 669.67C-106.566 706.903 -55.7069 718.756 -5.72247 724.976C20.5763 728.24 46.9162 729.857 73.2236 732.784C98.6096 735.602 124.06 738.671 148.57 751.388C191.474 773.645 228.017 822.006 260.857 873.936C277.214 899.819 292.84 927.097 308.593 954.12C316.509 967.677 324.298 981.508 332.786 993.949C343.007 1008.98 353.847 1022.98 362.289 1040.97C366.882 1050.7 373.893 1058.24 379.504 1066.15C386.561 1076.11 393.636 1086.1 400.693 1096.05C407.608 1105.84 414.49 1115.72 421.405 1125.53H423.439C407.353 1102.63 391.251 1079.82 375.101 1057.06C365.738 1043.87 358.316 1028.53 349.094 1014.98C338.843 999.918 328.621 985.053 319.004 968.736C288.135 916.413 258.218 861.945 223.598 817.151C189.216 772.641 150.748 743.271 108.147 735.491C55.7386 725.953 2.89264 726.872 -49.4291 715.408C-76.4265 709.525 -103.116 699.569 -128.883 684.033C-153.26 669.363 -176.65 647.749 -199.071 625.575C-221.436 603.459 -242.706 578.024 -262.614 549.547C-283.295 519.927 -297.728 483.811 -304.341 437.819C-318.17 341.628 -273.852 262.587 -242.792 194.661C-209.999 122.954 -178.906 48.9052 -147.672 -24.9038C-139.851 -43.3817 -132.015 -61.8597 -124.155 -80.2805C-119.617 -90.9081 -114.999 -100.96 -109.65 -110.388C-105.524 -117.653 -100.82 -124.416 -97.8475 -133.355C-91.6634 -151.931 -81.2199 -167.101 -72.621 -182.4C-62.5258 -200.376 -51.9162 -216.355 -40.5188 -231.682C-30.5051 -245.151 -21.1013 -259.154 -10.3082 -270.755C1.37433 -283.306 13.5673 -294.351 25.9185 -304.697C51.0168 -325.741 77.2622 -340.16 103.854 -354.063C154.833 -380.697 206.637 -401.966 257.218 -430.985C280.172 -444.147 302.647 -459.584 323.964 -479.652C338.874 -493.682 360.651 -512.562 346.679 -545.891C339.415 -563.198 327.334 -572.485 316.302 -579.93C312.424 -582.552 308.577 -585.271 304.731 -588.033H299.962C300.391 -587.713 300.835 -587.365 301.265 -587.042C313.283 -578.214 325.632 -572.665 336.522 -559.628C342.609 -552.362 349.764 -540.048 350.351 -526.368C351.082 -509.272 341.163 -500.013 334.138 -492.468C322.787 -480.307 310.835 -469.974 298.674 -460.575C250.287 -423.232 197.958 -402.508 147.188 -378.036C121.102 -365.469 95.112 -352.277 69.3775 -337.65C45.3263 -323.999 22.4208 -305.632 0.278534 -284.172C-21.5475 -263.015 -41.9579 -235.642 -60.4273 -206.245C-69.4404 -191.911 -77.8102 -176.375 -86.2659 -161.05C-95.025 -145.193 -101.702 -127.581 -110.555 -111.979C-128.756 -79.9173 -143.054 -39.5891 -158.419 -3.26141C-174.297 34.2657 -190.185 71.762 -206.319 108.954C-223.192 147.86 -240.408 186.337 -258.06 224.154C-273.041 256.256 -287.857 287.799 -297.856 325.84C-316.279 395.957 -307.226 480.827 -275.013 533.957Z" fill="white"/>
<path d="M-279.734 575.096C-241.377 632.158 -193.539 672.626 -147.862 708.074C-124.439 726.232 -100.27 740.261 -75.1076 748.655C-49.928 757.052 -24.2249 759.866 1.32721 762.069C53.4178 766.587 106.622 767.704 155.945 801.144C179.774 817.292 199.627 842.923 219.974 869.418C241.211 897.058 262.321 925.003 281.253 957.524C298.642 987.423 316.986 1013.72 336.363 1039.46C357.346 1067.36 377.772 1096.56 398.262 1125.53H400.264C384.003 1102.61 367.742 1079.71 351.4 1056.98C331.769 1029.68 311.089 1004.69 292.777 974.565C274.846 945.03 257.361 916.218 237.778 890.001C218.195 863.786 198.689 835.977 176.945 815.535C133.977 775.178 84.335 767.035 36.5533 762.682C-17.9386 757.72 -72.1191 755.795 -124.011 722.605C-149.626 706.235 -174.035 684.425 -198.26 662.585C-221.134 641.948 -243.539 619.885 -264.394 593.334C-304.371 542.407 -340.893 470.035 -339.914 378.19C-339.399 329.719 -326.364 289.599 -308.275 254.625C-290.305 219.888 -270.992 187.199 -252.545 153.229C-216.437 86.7271 -186.394 12.5662 -156.318 -62.4023C-125.911 -138.236 -90.8999 -207.667 -49.3636 -265.192C-7.02628 -323.83 42.4814 -355.262 93.4274 -382.622C141.958 -408.672 192.156 -429.088 238.668 -465.262C254.246 -477.379 273.479 -494.977 275.863 -528.026C277.771 -554.453 262.114 -574.116 248.952 -588.033H245.948C247.697 -586.068 249.462 -584.1 251.21 -582.036C263.498 -567.45 277.628 -550.243 273.845 -520.65C271.063 -498.911 257.997 -485.231 247.728 -475.469C236.585 -464.856 224.489 -456.6 212.646 -448.709C188.135 -432.379 162.272 -421.04 137.157 -407.92C110.929 -394.225 84.654 -380.711 58.6643 -365.666C12.1841 -338.78 -29.6289 -299.135 -66.7705 -242.866C-105.674 -183.934 -137.204 -114.558 -166.5 -40.8022C-197.934 38.3211 -231.545 112.161 -269.791 181.427C-286.927 212.469 -306.105 242.38 -320.808 277.215C-333.995 308.465 -340.838 344.164 -341.251 383.099C-342.092 462.28 -312.265 526.678 -279.734 575.096Z" fill="white"/>
<path d="M193.476 -588.033H190.757C196.464 -581.967 201.964 -575.344 206.844 -567.116C213.456 -555.986 216.811 -541.721 214.887 -525.739C212.408 -504.88 194.573 -490.851 184.7 -482.148C140.748 -443.368 92.3625 -426.438 45.883 -399.858C0.254547 -373.769 -43.118 -328.948 -78.9461 -272.805C-117.645 -212.185 -150.335 -138.919 -182.214 -67.4082C-206.168 -13.665 -228.844 42.1709 -256.304 90.5587C-261.47 99.6668 -268.051 105.398 -273.455 114.464C-279.909 125.271 -286.807 135.172 -294.112 144.136C-301.369 153.047 -309.254 160.216 -317.511 165.765C-321.707 168.598 -326.071 170.509 -330.45 172.139C-339.049 175.347 -343.444 166.267 -347.165 155.504C-347.585 154.261 -348.698 155.392 -348.268 156.646C-344.836 166.561 -342.649 174.679 -335.688 175.875C-326.739 177.438 -315.118 167.09 -307.233 160.411C-298.348 152.882 -290.265 142.589 -282.619 131.713C-278.439 125.759 -274.496 119.331 -270.609 112.804C-266.565 106.024 -261.581 103.054 -257.679 96.1803C-220.785 31.1699 -191.043 -45.5008 -158.234 -116.859C-125.561 -187.935 -90.8286 -260.157 -48.037 -312.926C-27.484 -338.292 -5.29282 -361.285 17.7311 -378.913C41.957 -397.458 67.6439 -409.523 93.1263 -421.305C104.317 -426.482 114.918 -435.181 126.062 -440.592C131.101 -443.035 136.139 -443.296 140.955 -447.189C147.379 -452.39 153.99 -456.908 160.571 -461.509C170.587 -468.523 180.537 -475.678 190.09 -484.462C194.796 -488.801 199.277 -493.835 203.602 -499.245C206.621 -503.009 212.598 -509.118 214.045 -514.975C222.327 -548.623 209.149 -570.686 193.476 -588.033Z" fill="white"/>
<path d="M-244.938 503.36C-234.057 528.963 -220.721 551.025 -206.232 570.214C-174.726 611.909 -136.958 637.29 -99.1017 654.608C-54.4434 675.025 -8.05179 684.787 37.9837 687.24C65.388 688.72 92.7925 688.773 120.132 692.763C147.807 696.779 175.021 708.213 200.931 725.812C250.383 759.447 280.616 840.078 315.572 905.899C349.97 970.716 386.356 1032.3 424.983 1089.22C433.375 1101.6 441.911 1113.68 450.527 1125.53H452.658C418.306 1078.26 385.688 1027.25 354.612 973.336C336.522 941.961 319.037 909.553 301.917 876.531C285.068 844.04 269.569 808.757 251.273 778.719C215.413 719.789 164.561 696.947 116.826 690.001C89.5176 686.04 62.0662 686.264 34.6924 684.815C7.43958 683.336 -19.3202 678.233 -46.2644 671.035C-125.712 649.896 -212.693 599.443 -255.787 470.562C-270.244 427.331 -272.509 379.223 -260.27 333.231C-249.444 292.553 -234.701 255.572 -219.108 220.207C-204.229 186.447 -187.458 154.792 -174.161 119.007C-159.952 80.7428 -147.537 41.1251 -132.095 4.25485C-115.753 -34.7516 -98.9833 -73.196 -80.4402 -109.078C-72.2462 -124.934 -63.9558 -140.621 -55.42 -155.918C-51.1053 -163.658 -46.6693 -171.189 -42.1865 -178.634C-37.9824 -185.623 -32.7607 -188.942 -28.5397 -195.661C8.0679 -253.966 53.7518 -289.847 100.184 -316.525C122.85 -329.563 145.915 -340.383 168.949 -351.19C173.987 -353.549 179.059 -355.722 184.066 -358.33C188.119 -360.449 191.632 -364.508 196.02 -366.321C209.213 -371.747 222.342 -377.616 235.361 -384.214C247.204 -390.208 258.759 -396.025 270.81 -400.655C274.895 -402.228 277.867 -402.94 281.3 -406.944C286.927 -413.498 296.783 -414.36 303.3 -417.094C330.578 -428.586 357.917 -439.799 385.862 -444.776C439.638 -454.383 492.825 -429.032 543.501 -399.901C596.339 -369.528 646.602 -327.235 697.818 -289.75C709.803 -280.976 721.805 -272.317 733.775 -263.49C746.984 -253.757 759.478 -241.36 772.591 -231.21C777.154 -227.693 782.288 -227.263 786.961 -223.537C791.857 -219.634 796.801 -215.91 801.76 -212.229C814.492 -202.775 827.432 -194.253 840.499 -186.347C881.971 -161.259 925.064 -144.719 968.682 -137.12V-139.422C923.045 -147.467 878.187 -165.514 834.824 -192.202C821.836 -200.208 809.025 -209.161 796.372 -218.686C791.523 -222.353 786.66 -227.387 781.636 -230.262C775.008 -234.079 768.585 -236.73 762.18 -242.196C739.195 -261.831 715.811 -278.969 692.222 -296.276C641.038 -333.857 590.728 -376.265 537.684 -405.562C488.264 -432.839 438.065 -455.389 385.862 -447.049C360.015 -442.908 334.598 -432.505 309.404 -421.989C299.851 -418.002 287.388 -416.734 279.106 -407.11C274.639 -401.895 266.947 -401.478 261.748 -399.456C254.643 -396.68 247.872 -393.235 240.924 -389.471C229.05 -383.057 217.034 -377.602 204.984 -372.416C199.389 -370.002 193.666 -368.149 188.151 -365.289C187.276 -364.83 185.751 -362.751 185.02 -361.886C182.015 -358.387 177.596 -357.578 174.179 -355.974C151.098 -345.168 128.049 -334.331 105.271 -321.755C61.9861 -297.864 19.9731 -266.043 -16.1104 -216.901C-20.696 -210.653 -25.1071 -204.014 -29.4468 -197.266C-33.0712 -191.617 -37.2513 -189.721 -40.7964 -184.003C-50.5726 -168.218 -59.8313 -151.443 -68.9159 -134.43C-86.0669 -102.286 -102.901 -69.0138 -117.739 -33.4527C-133.476 4.22632 -148.714 41.2794 -162.312 81.4682C-175.989 121.88 -192.266 157.733 -209.014 194.227C-223.781 226.413 -238.047 259.308 -250.113 294.881C-261.985 329.884 -270.943 366.003 -269.616 407.56C-268.488 443.062 -256.7 475.666 -244.938 503.36Z" fill="white"/>
<path d="M26.9667 653.717C71.5699 656.673 116.588 652.852 161.032 660.911C183.476 664.984 205.811 672.767 226.571 688.72C248.252 705.341 264.308 732.255 278.915 764.329C295.606 801.062 310.739 839.911 326.889 877.367C341.926 912.257 358.41 943.578 376.055 974.343C384.48 989.04 392.555 1004.38 401.074 1018.94C410.947 1035.78 421.851 1050.62 432.452 1065.99C446.267 1086.04 460.096 1106.04 474.163 1125.53H476.214C460.906 1104.39 445.917 1082.58 430.894 1060.83C410.977 1031.96 393.159 1000.98 374.863 969.071C355.788 935.825 338.573 901.243 322.47 863.339C307.591 828.338 293.364 792.525 277.834 758.387C264.292 728.603 249.126 705.119 229.479 688.58C211.263 673.24 191.187 665.656 171.301 660.801C128.159 650.316 84.0011 654.08 40.5583 652.184C-51.1447 648.194 -150.724 622.59 -214.45 493.599C-222.255 477.786 -228.629 459.992 -232.651 440.218C-237.261 417.545 -236.108 393.669 -233.621 370.465C-228.852 325.898 -216.04 285.066 -203.236 246.299C-190.154 206.681 -174.346 169.044 -159.125 131.907C-143.953 94.869 -126.642 60.7176 -113.996 20.8087C-107.773 1.17462 -98.8645 -15.8823 -91.4322 -34.1763C-82.737 -55.5959 -73.5423 -74.5479 -63.0903 -93.3892C-44.2626 -127.343 -25.0131 -160.687 -3.09218 -188.506C18.4473 -215.856 40.7653 -238.625 64.6552 -259.042C89.1837 -280.014 115.03 -295.787 140.908 -310.778C190.598 -339.56 241.497 -361.522 292.761 -379.498C347.903 -398.84 405.208 -422.074 461.16 -398.561C508.101 -378.829 554.325 -361.077 599.517 -330.538C647.443 -298.128 693.812 -259.082 740.896 -223.146C782.367 -191.491 824.665 -154.384 869.587 -141.318C873.64 -140.147 877.709 -139.364 881.795 -138.639C885.245 -138.041 890.251 -138.779 893.289 -135.643C894.146 -134.763 895.45 -132.755 896.435 -132.253C906.831 -126.844 918.245 -125.378 928.989 -123.163C941.42 -120.58 953.802 -117.988 966.059 -113.537C966.934 -113.219 967.807 -112.927 968.682 -112.633V-114.822C963.642 -116.482 958.619 -118.432 953.645 -119.855C940.45 -123.662 927.098 -125.532 913.857 -128.823C908.166 -130.245 900.504 -130.622 895.481 -135.808C892.335 -139.044 891.602 -139.827 887.883 -140.118C873.863 -141.261 860.002 -146.116 846.459 -152.444C821.439 -164.16 797.66 -183.026 773.927 -200.89C748.971 -219.687 724.045 -238.473 699.263 -257.969C650.734 -296.136 601.982 -336.004 550.925 -362.667C525.682 -375.844 499.852 -385.244 474.195 -395.55C448.015 -406.05 422.709 -412.298 395.765 -410.291C369.347 -408.308 343.436 -398.436 317.51 -390.097C291.52 -381.745 265.643 -372.318 239.923 -361.719C189.136 -340.803 139.096 -314.416 90.3916 -281.537C43.3547 -249.794 -0.341324 -201.576 -37.3233 -141.472C-55.6827 -111.642 -74.4408 -80.2655 -88.8983 -44.3583C-96.2816 -26.0208 -105.612 -8.92514 -112.065 10.2931C-119.529 32.5352 -126.824 53.3013 -135.894 73.7007C-166.858 143.372 -198.045 217.044 -220.205 296.695C-229.949 331.699 -237.468 370.605 -237.142 410.013C-236.863 443.845 -225.8 474.049 -213.631 498.677C-153.942 619.523 -59.1251 648.028 26.9667 653.717Z" fill="white"/>
<path d="M-162.455 507.268C-132.492 556.745 -93.2843 584.384 -53.6001 598.998C-33.6833 606.304 -13.3681 610.071 6.9234 611.996C32.435 614.42 58.075 616.597 83.6512 616.428C108.91 616.262 134.057 611.493 159.347 611.297C186.562 611.102 213.855 614.448 240.607 623.543C263.639 631.35 280.792 659.324 293.461 692.568C300.2 710.28 307.75 727.125 313.457 745.951C319.259 765.082 325.109 784.19 331.069 803.153C342.61 839.857 354.485 875.75 369.171 908.886C383.351 940.875 398.929 970.659 415.524 998.774C433.01 1028.42 451.592 1056.14 469.777 1084.4C479.696 1099.82 490.457 1112.79 501.314 1125.53H502.378C500.329 1123.08 498.309 1120.57 496.307 1118.03C484.909 1103.61 473.909 1088.05 463.498 1071.48C445.027 1042.09 425.952 1014.03 408.26 983.129C390.441 951.948 374.131 918.198 359.524 882.193C344.565 845.295 332.676 804.101 320.483 764.246C309.579 728.604 297.211 691.371 281.41 661.638C267.168 634.809 249.318 623.654 229.257 617.796C202.886 610.071 176.054 608.538 149.381 609.205C122.025 609.874 94.891 614.812 67.5009 613.975C-20.1797 611.242 -126.625 602.4 -182.818 463.675C-189.62 446.856 -194.389 427.919 -196.479 407.587C-199.031 382.795 -194.763 357.889 -190.678 334.378C-183.628 293.683 -172.661 255.463 -160.476 218.869C-148.705 183.49 -135.503 149.633 -122.795 115.288C-108.759 77.3285 -95.5891 38.8395 -79.7727 3.01343C-48.538 -67.7272 -11.6588 -131.821 30.4961 -182.134C40.3992 -193.946 50.6363 -204.85 61.0323 -215.212C66.2464 -220.398 71.5396 -225.308 76.8493 -230.145C83.3179 -236.018 92.3792 -246.935 99.722 -247.636C103.601 -248.009 106.813 -251.231 110.358 -253.938C117.303 -259.222 124.377 -264.088 131.451 -268.818C144.612 -277.603 157.996 -285.342 171.428 -292.72C223.885 -321.529 277.263 -348.204 331.849 -360.699C386.515 -373.222 440.624 -368.37 494.368 -347.16C537.827 -330.006 580.014 -304.125 622.202 -279.331C632.375 -273.347 641.753 -264.06 651.164 -255.178C659.794 -247.046 668.14 -241.792 677.375 -236.38C700.266 -222.938 721.773 -202.019 743.344 -183.111C761.114 -167.521 779.459 -156.014 798.12 -143.784C819.372 -129.853 841.372 -119.549 863.547 -111.292C898.153 -98.4092 933.409 -91.6429 968.682 -87.0139V-89.3307C924.269 -95.2711 880 -104.795 836.826 -124.72C824.841 -130.259 813.03 -136.812 801.379 -144.108C795.512 -147.76 789.728 -151.775 783.972 -155.916C779.348 -159.25 772.401 -167.826 767.203 -168.314C760.018 -168.997 753.198 -176.959 746.888 -182.526C741.086 -187.615 735.3 -192.675 729.498 -197.71C716.654 -208.894 703.747 -219.884 690.777 -230.634C680.888 -238.821 669.73 -241.498 659.827 -249.866C649.176 -258.887 639.1 -269.777 628.163 -277.854C603.921 -295.744 577.646 -308.155 552.547 -321.767C502.761 -348.778 451.704 -369.235 399.421 -370.267C346.776 -371.298 293.254 -356.572 242.689 -331.178C216.731 -318.14 190.661 -305.8 164.895 -291.49C152.513 -284.602 140.225 -277.085 128.064 -268.97C122.914 -265.524 117.796 -261.927 112.726 -258.133C107.019 -253.881 100.582 -252.696 95.1125 -248.234C50.4769 -211.893 8.71904 -164.284 -26.5929 -103.75C-44.42 -73.1832 -61.3254 -40.9682 -76.96 -6.85901C-92.085 26.1649 -104.88 61.5843 -117.764 97.3373C-142.204 165.18 -169.449 230.276 -186.306 305.538C-194.207 340.818 -201.519 379.39 -196.655 417.406C-192.093 453.106 -177.183 482.975 -162.455 507.268Z" fill="white"/>
<path d="M-83.9768 538.168C0.6521 609.789 97.0996 587.978 186.705 565.919C207.751 560.73 229.433 552.002 250.749 554.93C273.241 558.025 291.57 577.521 305.653 607.782C321.643 642.141 328.161 682.972 337.38 723.499C345.425 758.807 354.58 793.278 364.769 826.801C385.848 896.221 412.298 960.368 444.2 1015.53C460.747 1044.15 479.886 1066.66 498.151 1091.56C506.781 1103.33 515.462 1114.99 524.522 1125.53H526.843C513.729 1110.58 501.473 1093.15 489.089 1076.39C478.789 1062.45 468.012 1049.79 458.109 1034.94C448.333 1020.3 439.304 1004.07 430.53 987.587C396.162 923.052 369.744 845.656 348.954 765.444C330.848 695.578 321.93 603.486 279.059 565.947C261.653 550.717 242.085 550.357 223.249 554.736C199.66 560.256 176.102 566.448 152.496 571.832C105.748 582.487 58.4572 589.71 11.4062 581.399C-37.3065 572.808 -89.78 544.472 -127.827 488.272C-145.819 461.665 -158.338 424.182 -160.365 382.682C-162.67 335.491 -152.044 287.814 -141.305 245.656C-130.432 202.985 -117.168 163.548 -103.816 123.234C-100.644 113.652 -98.228 102.593 -93.1495 95.6772C-89.6674 90.9215 -87.9192 85.4975 -85.5512 78.9288C-78.6672 59.8808 -71.3002 41.4051 -63.6139 23.3441C-48.4662 -12.2581 -31.5282 -45.3904 -13.4949 -76.4883C-4.2527 -92.4415 5.19012 -106.708 15.9527 -119.396C26.9835 -132.379 35.6626 -149.614 46.7571 -162.557C57.4402 -175.01 68.2484 -187.128 79.3607 -198.38C92.3628 -211.546 107.257 -220.736 121.086 -230.833C146.504 -249.393 172.286 -266.377 198.26 -282.345C249.269 -313.706 305.399 -329.605 359.158 -335.894C410.661 -341.903 462.369 -331.027 512.457 -309.942C593.287 -275.93 669.476 -214.333 743.646 -149.658C781.636 -116.523 823.998 -98.7155 865.551 -85.3988C899.631 -74.4811 934.125 -68.1775 968.682 -64.3128V-66.6295C922.489 -71.873 876.502 -81.6884 831.359 -100.124C804.972 -110.891 776.757 -123.105 752.435 -144.483C729.752 -164.411 706.958 -183.92 683.94 -202.592C594.114 -275.485 498.835 -334.738 399.04 -339.492C292.681 -344.553 189.613 -286.945 93.3642 -212.437C81.5222 -203.275 70.6327 -192.232 59.6812 -180.056C48.9044 -168.05 37.9837 -156.657 28.9551 -140.747C20.5931 -126.033 10.1821 -116.091 0.891037 -103.374C-9.13251 -89.6519 -18.0655 -72.0387 -26.8632 -55.9883C-43.1013 -26.3835 -57.9872 5.45456 -71.6582 38.8233C-75.1239 47.2735 -78.4608 55.879 -81.7521 64.5383C-85.0987 73.3654 -87.9583 84.4933 -92.3778 91.7862C-95.7636 97.3645 -97.7592 99.6801 -100.056 107.029C-103.687 118.645 -107.543 130.04 -111.406 141.418C-124.4 179.753 -136.338 218.466 -146.194 259.685C-155.516 298.649 -162.907 339.897 -161.652 382.682C-159.37 460.216 -119.87 507.796 -83.9768 538.168Z" fill="white"/>
<path d="M-71.5954 487.884C-63.4646 497.365 -55.9218 501.187 -47.2817 508.492C-36.4802 517.586 -25.0683 524.28 -13.4953 529.549C33.3104 550.858 83.3969 540.651 130.354 526.231C156.295 518.253 181.761 505.982 207.067 493.21C219.338 486.99 231.578 480.629 243.865 474.437C257.948 467.356 271.047 457.676 285.942 463.116C308.131 471.231 325.665 498.899 337.603 531.643C350.272 566.336 354.928 606.471 359.364 646.298C368.17 725.644 381.125 800.196 404.366 870.226C440.464 979.027 494.446 1069.45 558.459 1125.53H561.336C492.571 1066.38 435.998 967.731 399.12 849.309C394.16 833.385 389.661 817.04 385.448 800.447C383.557 792.915 383.684 784.271 381.698 777.049C378.217 764.439 375.291 751.499 372.78 738.196C364.897 696.5 361.812 652.435 356.344 609.679C348.046 544.916 327.223 480.855 288.724 461.972C279.535 457.482 270.332 458.29 261.223 462.836C248.125 469.392 235.043 476.531 221.945 483.251C196.702 496.194 171.444 508.967 145.725 518.645C95.224 537.666 40.6058 548.962 -10.2932 528.575C-22.8188 523.584 -34.963 515.94 -46.6307 506.542C-49.3879 504.308 -53.6481 498.174 -56.6608 497.869C-62.9391 497.225 -68.1056 489.248 -73.2004 483.308C-93.7846 459.35 -113.035 428.42 -118.853 384.633C-124.949 338.755 -117.494 289.738 -108.275 246.843C-98.7213 202.387 -85.5757 160.578 -71.6586 119.955C-59.2031 83.6013 -43.3167 49.1027 -28.2308 16.0388C-14.0043 -15.1287 1.5255 -44.345 18.6543 -70.6163C27.3009 -83.8941 37.1564 -94.7399 45.2482 -109.008C54.9755 -126.132 66.8494 -138.877 78.3737 -151.944C98.3233 -174.55 119.099 -194.867 140.542 -212.745C185.099 -249.882 232.707 -272.68 281.046 -288.453C308.338 -297.35 334.774 -307.711 362.67 -308.617C390.504 -309.522 418.799 -305.172 446.25 -297.35C492.794 -284.087 538.955 -258.932 583.288 -231.097C630.705 -201.339 675.467 -160.798 721.104 -123.609C741.403 -107.07 761.83 -91.7445 783.034 -79.1236C793.668 -72.7925 804.844 -68.2321 815.828 -64.356C820.549 -62.6962 825.445 -62.4859 830.229 -62.3055C836.492 -62.0542 841.372 -59.6552 847.286 -56.7135C851.148 -54.8023 855.949 -55.4455 859.924 -54.928C866.615 -54.0347 873.29 -53.0751 879.984 -52.1132C892.222 -50.3425 904.463 -48.4564 916.718 -46.6172C934.029 -44.024 951.34 -41.5405 968.682 -39.4351V-41.6935C949.115 -44.0788 929.579 -46.9371 910.043 -49.8935C896.674 -51.9007 883.322 -53.9125 869.954 -55.8087C863.277 -56.7558 856.585 -57.6331 849.908 -58.4842C843.947 -59.2382 839.291 -64.5068 833.186 -64.5217C807.022 -64.5651 781.731 -81.7853 757.601 -98.0733C730.913 -116.091 705.193 -139.087 679.346 -160.561C655.423 -180.447 631.548 -202.761 606.718 -218.811C581.953 -234.818 557.013 -249.393 531.754 -262.806C480.506 -290.002 429.067 -308.437 375.434 -310.792C349.111 -311.949 324.298 -305.632 298.627 -296.499C273.908 -287.699 249.126 -279.931 224.679 -268.762C179.947 -248.319 137.332 -216.176 97.4496 -175.204C87.4031 -164.885 77.5795 -153.882 67.8835 -142.56C62.9072 -136.743 57.9967 -130.749 53.1004 -124.71C47.4893 -117.779 43.5618 -107.598 37.9833 -100.529C19.8926 -77.5197 3.49681 -50.6612 -11.5726 -21.7259C-43.2924 39.1719 -71.4197 108.758 -93.0392 182.013C-104.213 219.888 -114.012 260.02 -119.107 301.885C-123.471 337.696 -124.695 381.483 -114.235 414.586C-104.371 445.796 -88.2224 468.527 -71.5954 487.884Z" fill="white"/>
<path d="M47.1073 504.393C97.8796 509.914 147.379 485.121 192.442 445.292C201.901 436.953 211.629 432.047 221.198 423.985C232.135 414.811 243.548 407.474 255.246 401.979C278.424 391.075 303.173 390.881 325.299 408.369C347.363 425.826 363.164 465.235 372.303 503.527C381.095 540.344 384.13 580.813 386.515 620.219C387.659 639.045 388.58 657.929 389.725 676.753C390.201 684.703 390.728 692.651 391.347 700.572C392.428 714.434 395.4 727.486 395.892 741.46C396.545 759.837 399.437 776.294 403.713 793.027C406.401 803.571 409.881 813.164 412.393 823.902C414.507 833.021 416.367 842.198 418.816 851.04C421.438 860.521 425.49 868.608 428.543 877.673C431.531 886.542 434.09 895.886 437.047 904.812C437.476 906.093 439.94 909.968 440.56 911.057C447.411 923.134 441.815 915.744 444.583 923.189C447.634 931.363 451.481 938.28 454.15 947.008C456.424 954.427 461.177 961.373 464.356 967.677C468.345 975.538 472.462 983.238 476.644 990.795C485.546 1007 494.987 1022.2 504.795 1036.62C529.975 1073.6 558.824 1104.42 589.615 1125.53H595.131C561.526 1103.81 529.831 1070.48 503.428 1031.68C484.433 1003.76 465.389 971.634 451.624 935.321C449.144 928.741 446.712 921.907 444.296 915.438C441.545 908.047 437.746 902.58 435.234 894.63C428.686 873.77 420.547 854.581 415.62 832.353C411.422 813.498 405.541 796.32 401.377 777.492C398.817 765.918 397.419 753.843 397.18 741.46C396.958 730.247 394.271 720.289 393.333 709.355C389.964 670.395 388.963 630.957 385.911 591.939C380.411 521.683 366.312 443.815 328.337 408.451C292.03 374.676 247.935 397.629 213.696 427.974C209.133 432.018 204.603 431.376 200.12 435.671C194.653 440.915 189.073 445.824 183.446 450.565C170.714 461.331 157.552 470.394 144.167 478.258C117.827 493.738 91.5196 501.351 63.7818 502.58C14.3783 504.727 -45.0318 481.132 -74.8616 405.524C-104.522 330.331 -77.0948 230.819 -56.0569 159.881C-35.7896 91.5209 -8.82138 29.7867 22.2142 -24.4305C38.2851 -52.5158 55.6283 -78.2742 73.7644 -102.133C82.2695 -113.317 91.0118 -123.929 99.8816 -134.192C110.245 -146.157 119.672 -158.763 130.704 -168.776C142.022 -179.025 153.276 -189.513 164.594 -199.776C176.085 -210.192 189.183 -216.955 201.391 -225.057C225.013 -240.759 249.732 -250.884 274.195 -261.554C379.552 -307.489 492.682 -260.297 590.441 -187.547C622.185 -163.938 653.199 -137.414 684.386 -111.643C699.883 -98.8427 715.463 -86.264 731.167 -74.2302C746.491 -62.4865 762.053 -49.589 778.171 -41.709C793.034 -34.4571 808.881 -32.9241 824.141 -30.2052C843.296 -26.7872 862.513 -24.9331 881.732 -23.4537C910.71 -21.2375 939.72 -20.1351 968.682 -17.2621V-19.5503C920.518 -24.3619 872.195 -24.2899 824.141 -32.4637C810.836 -34.7233 797.42 -36.871 784.307 -41.4861C771.193 -46.1162 758.794 -56.2548 746.507 -65.194C720.803 -83.8947 695.64 -104.754 670.508 -125.63C623.299 -164.842 576.088 -204.044 526.286 -232.058C501.377 -246.061 475.991 -257.201 450.352 -266.072C425.364 -274.703 400.534 -278.427 375.118 -280.502C323.424 -284.715 273.018 -266.295 223.678 -240.523C212.201 -234.527 200.9 -227.485 189.837 -219.451C185.163 -216.064 180.361 -214.865 175.673 -212.175C169.727 -208.77 163.83 -201.617 158.266 -196.57C146.949 -186.262 135.679 -175.776 124.344 -165.554C113.774 -156.029 104.745 -142.615 94.7946 -130.972C23.9623 -48.1805 -34.9627 66.24 -69.4804 203.765C-86.0526 269.766 -101.383 350.496 -72.9539 414.029C-44.4362 477.759 2.95683 499.595 47.1073 504.393Z" fill="white"/>
<path d="M968.682 763.603C930.5 773.505 893.67 788.007 863.754 835.867C847.73 861.527 836.382 895.274 825.079 927.486C813.794 959.673 802.841 992.247 789.314 1021.76C757.697 1090.81 709.343 1122.97 659.62 1118.37C608.356 1113.6 558.508 1072.15 519.801 1013.83C482.891 958.222 452.084 887.549 434.456 807.169C415.524 720.792 422.645 625.493 415.365 535.353C413.696 514.631 411.359 494.159 407.91 474.105C406.432 465.514 404.54 457.148 402.553 448.864C399.947 438.042 394.891 427.53 394.51 415.621C394.193 406.082 384.353 390.323 380.808 383.603C374.1 370.885 366.215 360.259 357.839 351.193C323.043 313.544 280.283 316.388 242.578 336.913C196.225 362.155 156.549 415.09 109.912 438.685C62.2564 462.838 2.8541 456.676 -30.9246 384.969C-38.42 369.043 -43.2999 349.883 -45.5494 329.663C-48.1882 305.955 -43.9757 281.426 -42.7433 257.804C-41.6071 236.05 -35.5032 215.648 -30.3614 195.944C-25.6 177.675 -20.2988 159.869 -14.6714 142.381C7.37582 73.7735 36.1397 12.3159 68.9171 -41.1646C141.815 -160.031 237.094 -236.031 336.633 -245.836C363.323 -248.458 390.138 -245.362 416.509 -238.208C442.992 -231.039 468.235 -215.657 493.398 -200.026C519.992 -183.514 546.203 -165.121 571.97 -144.944C582.684 -136.561 593.494 -131.304 603.984 -121.891C616.352 -110.764 628.656 -99.4259 640.975 -88.1162C667.409 -63.8522 693.907 -39.8531 721.026 -18.0851C726.971 -13.3305 732.948 -8.69815 738.956 -4.23714C745.903 0.937729 754.009 2.10875 761.433 4.15924C775.533 8.06277 789.775 10.2939 804.018 11.7995C858.874 17.6143 913.793 8.99722 968.682 10.0002V7.72922C921.44 6.75253 874.213 12.6106 826.97 11.0878C798.55 10.1533 770.175 5.80434 742.294 -4.18007C735.57 -6.59396 727.988 -15.0304 721.677 -20.0363C715.828 -24.6948 710.01 -29.5066 704.223 -34.3594C691.745 -44.8178 679.394 -55.7642 667.092 -66.8509C643.326 -88.242 619.785 -110.358 595.973 -131.569C592.476 -134.694 589.52 -137.983 585.578 -138.361C578.6 -139.03 569.999 -148.974 563.594 -153.894C551.593 -163.127 539.448 -171.856 527.256 -180.281C502.078 -197.657 476.468 -214.081 450.511 -227.441C426.238 -239.921 400.964 -245.111 375.816 -248.038C279.838 -259.235 181.364 -197.541 105.079 -97.0691C71.0155 -52.1943 40.4793 0.812134 14.616 60.3266C1.32718 90.9366 -10.4673 123.54 -20.8718 157.441C-25.895 173.785 -30.4558 190.546 -34.7315 207.531C-38.8485 223.861 -43.4191 239.926 -44.0226 257.804C-44.7388 278.792 -47.8303 298.927 -47.4572 320.099C-47.1629 336.913 -43.507 353.398 -38.9996 368.012C-29.4076 399.165 -12.1764 421.978 5.99229 435.7C47.4571 466.965 97.4967 455.393 137.776 423.848C183.033 388.4 225.426 337.751 275.53 325.981C320.055 315.522 364.881 343.887 391.092 409.595C393.159 414.756 392.809 420.167 394.271 425.523C397.435 437.04 400.995 447.722 403.697 459.686C408.467 480.799 411.121 503.307 413.236 525.647C417.749 573.423 418.353 621.506 419.546 669.783C420.627 713.821 423.186 756.521 431.294 798.411C438.606 836.176 449.78 871.29 462.369 904.282C468.266 919.76 474.657 934.655 481.19 949.355C488.756 966.367 497.992 979.641 506.544 995.063C522.217 1023.37 540.656 1046.55 560.096 1066.05C601.663 1107.74 649.24 1129.69 697.118 1118.03C725.683 1111.06 754.392 1086.1 775.389 1051.68C795.943 1017.96 810.296 974.146 824.858 932.425C842.787 881.022 861.529 830.793 892.652 801.813C916.051 780.03 942.469 771.831 968.682 765.586V763.603Z" fill="white"/>
<path d="M968.681 737.136C964.899 737.61 961.13 738.112 957.348 738.727C952.23 739.563 947.127 740.734 942.024 742.128C939.035 742.936 936.047 744.053 933.091 745.167C928.942 746.728 923.872 744.527 919.882 746.395C898.422 756.408 876.422 764.912 858.046 787.952C849.256 798.967 842.643 814.754 835.634 828.949C827.145 846.13 820.104 864.594 813.491 884.146C800.138 923.692 789.281 966.502 772.941 1002.68C741.483 1072.24 693.636 1095.47 644.741 1087.18C597.323 1079.15 553.293 1035.09 519.465 977.603C485.879 920.512 461.287 847.915 450.017 768.148C446.744 745.001 445.693 721.266 443.913 697.644C442.148 674.105 440.814 650.675 441.657 626.913C442.467 604.239 444.803 581.816 445.44 559.085C446.027 537.722 444.406 516.328 442.737 495.218C436.585 417.599 418.846 340.51 377.549 302.775C338.366 266.965 289.454 267.033 247.283 282.124C202.218 298.257 164.99 343.55 123.073 374.174C102.933 388.899 81.4728 398.718 59.5375 395.65C36.2335 392.387 10.9757 371.301 -0.675431 334.43C-10.6744 302.775 -8.58417 263.089 -2.0669 230.148C-0.390181 221.698 1.82801 213.61 4.24351 205.759C6.53214 198.313 6.11862 190.908 8.15342 183.028C13.0105 164.302 18.4144 146.033 24.1851 128.142C46.5991 58.4171 76.2757 -3.35933 110.578 -55.7807C147.87 -112.745 190.884 -158.137 237.571 -186.682C262.701 -202.051 288.787 -211.072 315.158 -216.693C344.184 -222.884 371.635 -219.606 400.184 -209.147C426.747 -199.429 452.211 -186.416 477.294 -168.218C502.967 -149.601 527.939 -128.084 552.657 -105.913C576.706 -84.3539 600.789 -62.723 624.427 -39.784C634.933 -29.5917 645.33 -19.0613 655.581 -8.10017C661.495 -1.77141 666.852 5.18913 672.257 12.7882C676.978 19.4254 682.621 23.2752 686.913 30.8606C693.429 42.3381 706.591 44.3863 715.143 49.4208C725.396 55.4731 734.505 62.8643 745.536 64.3586C772.496 67.9822 800.361 59.2259 827.066 53.4797C855.487 47.3702 883.846 40.5788 912.347 35.9648C926.557 33.6652 940.8 32.1023 955.059 31.2913C959.605 31.0297 964.135 30.944 968.681 30.9029V28.6158C965.248 28.6593 961.814 28.7415 958.381 28.8672C944.106 29.3961 929.849 31.0697 915.621 33.1911C888.233 37.2751 860.971 43.7752 833.694 49.7704C807.593 55.5154 780.92 63.0185 754.565 62.8929C743.072 62.8358 731.437 58.6112 720.866 50.9402C708.642 42.0867 694.035 40.1905 684.402 23.233C681.143 17.4742 674.91 13.6541 671.176 8.39572C667.122 2.69189 663.386 -2.27174 658.905 -7.16685C647.825 -19.2726 636.475 -30.6073 625.061 -41.7375C601.472 -64.7598 577.327 -86.2502 553.308 -107.864C506.24 -150.215 458.761 -188.969 406.908 -208.939C380.537 -219.089 355.39 -224.695 328.35 -221.236C303.204 -218.014 278.088 -210.067 253.832 -198.047C208.402 -175.552 166.294 -135.141 128.891 -84.8816C94.5878 -38.7959 64.5445 16.6529 40.0653 79.1946C27.3638 111.629 16.4599 146.172 7.0497 181.885C5.1734 189.011 5.27743 198.005 3.1386 204.616C1.30241 210.262 -0.31876 216.232 -1.69251 222.257C-5.06387 237.037 -7.3049 252.168 -8.36165 267.982C-10.2053 295.65 -7.00225 326.565 3.02793 348.767C15.3953 376.099 35.2159 391.326 54.4349 396.821C94.8904 408.422 134.63 368.959 169.233 337.61C189.723 319.033 210.15 300.936 232.531 290.546C258.091 278.665 285.465 271.4 311.916 275.792C335.138 279.639 358.33 287.741 379.186 306.819C402.871 328.461 418.543 365.806 428.732 408.394C438.335 448.499 442.197 493.124 444.056 536.271C445.01 558.807 443.278 581.563 441.784 603.931C440.163 628.281 439.749 651.68 441.148 676.113C443.628 719.954 446.934 762.905 454.659 804.936C461.351 841.418 471.858 874.773 484.019 906.427C531.913 1031.29 620.628 1123.5 707.864 1081.94C732.407 1070.26 753.771 1044.57 770.509 1011.27C791.126 970.213 803.286 917.306 819.514 871.009C828.464 845.462 840.085 819.969 852.403 799.079C864.263 778.97 880.206 768.345 895.704 760.172C902.889 756.379 910.2 753.201 917.465 749.854C921.837 747.845 926.271 750.328 930.483 748.571C934.426 746.926 938.384 745.53 942.374 744.304C951.07 741.654 959.859 740.314 968.681 739.226V737.136Z" fill="white"/>
<path d="M968.682 711.116C927.004 712.509 885.07 713.792 845.776 741.263C829.197 752.838 816.226 786.419 807.213 812.133C796.069 843.872 788.17 878.845 779.172 912.537C769.475 948.905 758.047 981.091 740.133 1006.67C719.753 1035.75 694.019 1053.38 667.949 1056.56C619.674 1062.39 570.732 1020.39 536.079 963.687C500.089 904.784 475.991 824.154 470.03 738.196C466.757 690.699 467.424 643.119 469.347 595.482C471.254 548.347 474.036 501.101 471.668 453.884C469.57 412.412 465.167 371.804 453.038 335.547C442.611 304.339 426.255 276.922 408.642 258.514C389.455 238.475 366.215 232.466 344.422 227.933C317.877 222.398 291.092 223.275 264.562 228.59C214.807 238.56 168.694 271.72 121.77 299.874C101.28 312.146 76.7368 320.098 58.3779 294.703C34.7251 262.001 49.5081 191.565 59.2048 151.959C77.6906 76.5451 107.099 6.95943 141.052 -48.9051C158.314 -77.2955 177.469 -101.923 197.719 -123.231C221.167 -147.9 249.763 -163.042 276.134 -174.7C378.804 -220.064 473.162 -130.328 552.88 -25.0865C591.889 26.4256 628.94 84.8159 671.525 127.221C690.791 146.411 711.583 154.958 733.679 149.714C746.253 146.73 757.124 137.5 768.792 129.537C781.763 120.681 794.893 112.65 808.134 105.202C860.018 76.0025 914.207 58.6817 968.682 57.3988V55.169C924.747 56.2565 881.159 67.8287 838.574 87.3119C812.713 99.1505 787.343 114.251 762.481 131.463C749.638 140.343 738.257 147.359 724.332 149.185C710.74 150.971 695.401 145.336 683.178 135.294C660.128 116.385 639.163 88.8313 619.023 61.8198C600.074 36.4248 581.413 10.3614 562.48 -15.0873C525.826 -64.3958 487.787 -111.128 445.504 -144.303C400.948 -179.262 352.656 -196.372 303.984 -186.082C278.565 -180.713 253.705 -167.086 229.814 -151.248C207.146 -136.2 186.768 -115.631 167.328 -90.3072C132.213 -44.5949 103.108 13.9165 80.0755 79.0126C67.7242 113.889 56.7091 150.565 49.8889 190.004C44.0552 223.777 40.1291 266.269 55.6596 293.473C67.7406 314.656 85.8455 315.968 101.646 311.478C124.044 305.118 145.153 286.068 166.518 273.312C216.811 243.258 268.965 223.009 322.296 227.042C348.444 229.007 376.198 234.753 400.328 253.551C422.169 270.549 441.291 304.866 453.292 340.735C467.138 382.179 470.81 434.22 471.334 481.524C471.874 529.161 468.536 576.712 467.011 624.239C464.213 711.338 469.475 799.164 494.844 875.696C515.779 938.892 546.252 991.578 583.383 1024.68C624.458 1061.33 672.258 1071.98 714.715 1037.01C732.438 1022.42 748.939 1000.61 760.876 973.143C773.974 942.964 782.05 906.959 790.983 872.625C797.993 845.739 805.464 819.216 815.161 794.981C820.422 781.815 826.573 769.934 833.33 759.199C842.947 743.943 854.374 737.331 866.582 731.224C899.678 714.658 934.363 714.155 968.682 713.263V711.116Z" fill="white"/>
<path d="M135.791 127.346C139.224 135.032 140.368 142.172 144.358 149.199C148.554 156.602 150.986 160.717 156.439 164.901C160.651 168.137 164.26 171.482 168.853 171.956C176.626 172.767 184.416 173.256 192.204 173.658C220.054 175.08 247.935 173.909 275.784 172.028C303.745 170.13 331.69 167.301 359.635 165.013C373.067 163.911 386.515 162.99 399.947 162.295C406.671 161.945 413.393 161.709 420.118 161.526C426 161.372 434.901 164.342 440.464 161.274C449.669 156.185 460.653 154.595 468.155 143.034C474.768 132.854 482.985 119.092 484.13 103.013C486.817 64.9698 476.453 28.7416 467.154 -4.21036C462.973 -19.0212 458.903 -32.17 452.975 -44.9989C447.109 -57.6473 440.497 -69.1408 433.439 -79.7238C421.391 -97.8225 407.576 -112.005 393 -122.812C343.723 -159.322 286.26 -149.378 238.206 -111.95C213.25 -92.5104 190.534 -64.328 171.698 -29.6054C150.001 10.4029 131.372 69.6981 135.599 126.537C135.711 127.959 136.998 127.989 136.886 126.537C133.469 80.6169 145.629 41.4162 158.012 2.74675C162.225 -10.4169 169.537 -22.5193 175.497 -33.2861C182.269 -45.5016 189.661 -56.6318 197.371 -66.9783C225.664 -104.922 259.635 -129.27 294.669 -139.074C330.132 -149.001 367.265 -141.793 399.914 -114.96C416.16 -101.604 430.784 -82.7774 443.389 -60.3959C459.365 -32.0295 469.363 3.95992 477.454 40.9992C482.701 65.0406 487.103 97.2121 478.519 120.08C467.805 148.64 448.809 158.933 430.211 159.087C396.592 159.364 362.989 162.377 329.417 165.347C295.94 168.317 262.464 171.259 228.939 171.901C212.232 172.222 195.543 171.776 178.852 170.577C169.14 169.88 156.566 168.346 149.333 154.791C146.312 149.129 142.229 143.971 140.321 136.745C139.224 132.604 138.286 129.314 136.696 125.744C136.188 124.598 135.281 126.203 135.791 127.346Z" fill="white"/>
<path d="M200.63 68.0546C215.047 109.874 245.63 112.204 270.634 113.598C301.09 115.3 333.423 110.739 362.543 94.0175C373.91 87.4922 382.716 77.6335 390.806 62.0138C395.638 52.6862 401.742 38.8086 402.473 25.926C403.444 8.84175 401.855 -6.80305 397.927 -22.4936C382.206 -85.2879 337.524 -103.665 302.22 -98.6194C276.865 -94.9924 252.401 -77.602 231.975 -51.2051C222.216 -38.5841 211.931 -23.2591 206.861 -3.69583C204.11 6.90321 199.04 17.5718 198.389 29.2013C197.641 42.5763 197.625 55.2361 200.565 67.7748C200.884 69.1137 202.124 68.5287 201.805 67.1739C191.886 24.8784 211.358 -18.8243 228.987 -44.288C245.456 -68.0517 265.404 -83.8508 286.101 -92.0211C327.446 -108.366 384.384 -88.8578 399.454 -9.3278C406.479 27.7938 393.063 65.0411 374.594 82.7937C362.797 94.1169 348.778 99.0383 335.696 103.165C303.714 113.278 268.933 116.191 236.888 105.312C222.057 100.281 209.927 90.6588 201.742 66.9089C201.312 65.6694 200.2 66.7969 200.63 68.0546Z" fill="white"/>
<path d="M-913.959 981.9C-885.197 1002.07 -853.453 1012.78 -822.686 1016.76C-785.014 1021.64 -747.205 1016.01 -709.5 1016.43C-675.421 1016.82 -643.056 1027.69 -611.869 1052.21C-588.328 1070.7 -566.677 1096.05 -547.094 1125.53H-545.194C-573.584 1082.67 -606.138 1048.97 -642.174 1029.95C-690.044 1004.66 -740.902 1016.37 -790.068 1016.37C-838.773 1016.37 -891.443 1004.21 -934.777 962.236C-944.885 952.449 -954.106 940.091 -962.443 926.092C-966.066 920.012 -971.194 911.56 -970.199 901.521C-969.468 894.103 -965.479 887.965 -962.435 883.364C-956.513 874.439 -950.473 865.793 -944.123 857.817C-923.338 831.74 -897.318 822.312 -873.029 811.1C-847.381 799.276 -821.351 789.235 -795.529 778.582C-783.313 773.561 -771.042 769.043 -758.699 765.138C-753.23 763.408 -746.514 763.437 -741.404 759.699C-740.815 759.253 -740.1 757.747 -739.838 757.328C-736.985 752.727 -732.105 752.616 -728.472 751.222C-684.329 734.21 -647.261 692.29 -613.419 640.638C-579.577 588.956 -549.835 529.606 -517.034 475.946C-508.323 461.721 -499.478 447.498 -489.829 435.255C-485.251 429.426 -480.863 423.177 -476.262 417.406C-471.685 411.687 -465.754 408.534 -461.828 401.647C-455.264 390.044 -444.501 382.849 -436.363 374.9C-426.73 365.472 -415.508 355.405 -404.271 361.094C-393.166 366.729 -385.64 395.623 -380.188 411.964C-374.148 430.094 -368.862 449.004 -363.172 467.495C-358.434 482.863 -353.347 498.174 -347.251 512.037C-343.882 519.704 -340.314 526.928 -336.451 533.845C-332.683 540.596 -330.792 549.855 -326.945 556.909C-311.175 585.888 -292.205 608.48 -272.66 628.757C-250.097 652.126 -227.413 675.277 -204.562 697.785C-160.952 740.678 -116.945 779.753 -66.8337 791.048C-16.309 802.427 34.7886 798.996 85.3525 810.432C92.7926 812.105 100.135 813.47 107.24 817.905C113.933 822.09 120.388 826.999 127.206 830.569C141.289 837.903 154.197 846.047 167.009 859.071C193.173 885.706 217.335 919.483 241.528 951.222C284.845 1008.03 327.27 1066.94 369.824 1125.53H371.906C336.602 1076.98 301.392 1028.2 265.723 980.477C243.849 951.222 221.929 921.825 199.373 894.214C180.204 870.787 161.159 846.968 138.874 833.719C127.573 827.028 116.222 821.141 104.968 814.085C94.4287 807.505 81.8724 806.919 70.8397 804.573C45.3266 799.219 19.576 798.271 -6.05627 796.597C-32.3636 794.84 -58.6625 792.19 -84.589 783.797C-111.255 775.178 -135.695 757.385 -159.959 736.579C-183.231 716.608 -205.811 694.24 -228.232 671.484C-250.191 649.199 -272.685 627.862 -293.674 602.819C-303.729 590.824 -313.138 577.299 -321.922 562.544C-326.364 555.07 -329.074 547.597 -332.404 538.643C-335.242 531.029 -339.605 524.92 -342.967 517.92C-358.259 486.211 -367.423 446.632 -379.083 410.822C-386.37 388.426 -396.179 352.755 -413.918 357.33C-422.247 359.478 -429.687 365.947 -437.007 372.947C-441.195 376.936 -445.289 381.231 -449.445 385.305C-453.324 389.123 -457.878 391.468 -461.026 397.016C-465.484 404.882 -471.691 409.288 -476.913 415.48C-481.588 421.004 -485.966 427.361 -490.48 433.301C-499.398 445.017 -507.703 457.873 -515.93 471.094C-532.62 497.951 -548.453 526.428 -564.356 554.707C-595.997 610.932 -628.312 666.854 -667.321 707.183C-689.6 730.248 -712.72 743.357 -737.898 752.419C-741.117 753.592 -742.579 758.333 -746.276 759.282C-752.642 760.927 -758.977 762.906 -765.294 764.971C-778.607 769.32 -791.808 774.649 -804.978 780.198C-830.73 791.019 -856.688 800.893 -882.24 813.082C-905.258 824.069 -927.44 834.139 -947.103 858.82C-954.868 868.556 -963.5 879.376 -969.237 892.82C-974.611 905.451 -970.453 914.824 -965.303 924.278C-951.054 950.384 -932.916 968.625 -913.959 981.9Z" fill="white"/>
</g>
</svg>
