<svg width="250" height="250" viewBox="0 0 250 250" fill="none" xmlns="http://www.w3.org/2000/svg">
<path d="M205.001 100.003C205.517 96.215 205.769 92.3434 205.738 88.4074C205.4 44.4499 169.48 8.58027 125.523 8.30146C80.6914 8.01777 44.2593 44.2746 44.2593 89.0407C44.2593 92.759 44.5112 96.4182 44.998 100.003C46.9722 114.528 40.1704 128.881 27.8047 136.752C10.4165 147.82 0 161.918 0 177.27C0 212.854 55.9644 241.7 125 241.7C194.036 241.7 250 212.854 250 177.27C250 161.918 239.583 147.82 222.194 136.752C209.829 128.881 203.027 114.528 205.001 100.003Z" fill="url(#paint0_linear_831_9676)"/>
<path opacity="0.1" d="M189.63 155.802C186.538 155.802 183.559 156.285 180.761 157.173V107.986H207.076C208.424 107.986 209.518 106.893 209.518 105.545V94.583C209.518 86.5781 203.096 80.0771 195.124 79.9409C195.219 79.939 195.313 79.9336 195.409 79.9336H135.694V61.5576C135.694 58.8608 133.508 56.6748 130.812 56.6748H33.5439C30.8472 56.6748 28.6611 58.8608 28.6611 61.5576V132.352C28.6611 135.048 30.8472 137.234 33.5439 137.234H90.9858V187.124H64.0947C62.7466 187.124 61.6533 188.218 61.6533 189.566V211.306C61.6533 219.396 68.2114 225.955 76.3018 225.955H166.077C166.068 225.955 166.058 225.954 166.049 225.954H166.113C173.648 225.954 179.858 220.258 180.669 212.934C183.494 213.841 186.503 214.336 189.63 214.336C205.794 214.336 218.897 201.233 218.897 185.069C218.897 168.905 205.794 155.802 189.63 155.802Z" fill="#5516FF"/>
<path d="M209.518 95.291V84.3291C209.518 76.2388 202.96 69.6807 194.87 69.6807H169.742V97.7324H207.077C208.425 97.7324 209.518 96.6392 209.518 95.291Z" fill="#FF9D33"/>
<path d="M209.52 84.3311V91.582C209.52 83.4961 202.962 76.9336 194.871 76.9336H169.744V69.6826H194.871C202.962 69.6826 209.52 76.2402 209.52 84.3311Z" fill="#FF8B00"/>
<path d="M195.41 69.6797C187.319 69.6797 180.762 76.2373 180.762 84.3281V201.052C180.762 209.143 174.199 215.7 166.113 215.7H90.9863V84.3281C90.9863 76.2373 97.5439 69.6797 105.635 69.6797H195.41Z" fill="white"/>
<path d="M156.271 106.039H135.67C134.322 106.039 133.229 104.945 133.229 103.597V82.9961C133.229 81.6479 134.322 80.5547 135.67 80.5547H156.271C157.619 80.5547 158.712 81.6479 158.712 82.9961V103.597C158.712 104.945 157.619 106.039 156.271 106.039Z" fill="#EBEBFF"/>
<path d="M149.469 197.043C159.316 197.043 167.298 189.061 167.298 179.215C167.298 169.368 159.316 161.386 149.469 161.386C139.623 161.386 131.641 169.368 131.641 179.215C131.641 189.061 139.623 197.043 149.469 197.043Z" fill="#EBEBFF"/>
<path d="M135.693 69.6797V130.402C135.693 133.103 133.511 135.285 130.811 135.285H90.9863V84.3281C90.9863 76.2373 97.5439 69.6797 105.635 69.6797H135.693Z" fill="#EBEBFF"/>
<path d="M151.429 201.053V179.312C151.429 177.964 150.335 176.871 148.987 176.871H64.0947C62.7466 176.871 61.6533 177.964 61.6533 179.312V201.053C61.6533 209.143 68.2114 215.701 76.3018 215.701H166.077C157.986 215.701 151.429 209.144 151.429 201.053Z" fill="#FF9D33"/>
<path d="M130.812 126.98H33.5439C30.8472 126.98 28.6611 124.794 28.6611 122.098V51.3037C28.6611 48.6069 30.8472 46.4209 33.5439 46.4209H130.812C133.508 46.4209 135.694 48.6069 135.694 51.3037V122.098C135.694 124.794 133.508 126.98 130.812 126.98Z" fill="#CEBCFF"/>
<path d="M51.4336 113.872H44.0918C42.7437 113.872 41.6504 112.778 41.6504 111.43V93.2998C41.6504 91.9517 42.7437 90.8584 44.0918 90.8584H51.4336C52.7817 90.8584 53.875 91.9517 53.875 93.2998V111.43C53.875 112.778 52.7822 113.872 51.4336 113.872Z" fill="#FF2C2C"/>
<path d="M74.377 113.872H67.0352C65.687 113.872 64.5938 112.778 64.5938 111.43V78.5835C64.5938 77.2354 65.687 76.1421 67.0352 76.1421H74.377C75.7251 76.1421 76.8184 77.2354 76.8184 78.5835V111.43C76.8184 112.778 75.7256 113.872 74.377 113.872Z" fill="#FF2C2C"/>
<path d="M97.3203 113.872H89.9785C88.6304 113.872 87.5371 112.778 87.5371 111.43V43.2236C87.5371 41.8755 88.6304 40.7822 89.9785 40.7822H97.3203C98.6685 40.7822 99.7617 41.8755 99.7617 43.2236V111.43C99.7617 112.778 98.6689 113.872 97.3203 113.872Z" fill="#FF2C2C"/>
<path d="M120.264 113.872H112.922C111.574 113.872 110.48 112.778 110.48 111.43V28.9277C110.48 27.5796 111.574 26.4863 112.922 26.4863H120.264C121.612 26.4863 122.705 27.5796 122.705 28.9277V111.43C122.705 112.778 121.612 113.872 120.264 113.872Z" fill="#FF2C2C"/>
<path d="M147.028 156.347H105.769C104.42 156.347 103.327 155.253 103.327 153.905C103.327 152.557 104.42 151.464 105.769 151.464H147.028C148.377 151.464 149.47 152.557 149.47 153.905C149.47 155.253 148.377 156.347 147.028 156.347Z" fill="#B3B3FF"/>
<path d="M114.802 143.128H105.769C104.42 143.128 103.327 142.035 103.327 140.687C103.327 139.339 104.42 138.246 105.769 138.246H114.802C116.15 138.246 117.243 139.339 117.243 140.687C117.243 142.035 116.15 143.128 114.802 143.128Z" fill="#FF9D33"/>
<path d="M164.606 166.173H105.769C104.42 166.173 103.327 165.08 103.327 163.732C103.327 162.384 104.42 161.291 105.769 161.291H164.606C165.955 161.291 167.048 162.384 167.048 163.732C167.048 165.08 165.955 166.173 164.606 166.173Z" fill="#B3B3FF"/>
<path d="M158.141 107.362C153.668 107.362 150.029 103.723 150.029 99.2505C150.029 94.7778 153.668 91.1387 158.141 91.1387C162.614 91.1387 166.253 94.7778 166.253 99.2505C166.253 103.723 162.614 107.362 158.141 107.362ZM158.141 96.021C156.361 96.021 154.912 97.4697 154.912 99.25C154.912 101.03 156.361 102.479 158.141 102.479C159.921 102.479 161.37 101.03 161.37 99.25C161.37 97.4697 159.921 96.021 158.141 96.021Z" fill="#FF2C2C"/>
<path d="M163.812 113.033C162.463 113.033 161.37 111.94 161.37 110.591C161.37 108.811 159.921 107.362 158.141 107.362C156.361 107.362 154.912 108.811 154.912 110.591C154.912 111.94 153.819 113.033 152.471 113.033C151.123 113.033 150.029 111.94 150.029 110.591C150.029 106.119 153.668 102.479 158.141 102.479C162.614 102.479 166.253 106.119 166.253 110.591C166.253 111.94 165.16 113.033 163.812 113.033Z" fill="#FF2C2C"/>
<path d="M163.812 124.035C165.319 124.035 166.541 122.813 166.541 121.306C166.541 119.798 165.319 118.576 163.812 118.576C162.304 118.576 161.082 119.798 161.082 121.306C161.082 122.813 162.304 124.035 163.812 124.035Z" fill="#FF9D33"/>
<path d="M41.6504 61.6494C43.1578 61.6494 44.3799 60.4274 44.3799 58.9199C44.3799 57.4125 43.1578 56.1904 41.6504 56.1904C40.1429 56.1904 38.9209 57.4125 38.9209 58.9199C38.9209 60.4274 40.1429 61.6494 41.6504 61.6494Z" fill="white"/>
<path d="M163.812 132.292C165.319 132.292 166.541 131.07 166.541 129.563C166.541 128.056 165.319 126.833 163.812 126.833C162.304 126.833 161.082 128.056 161.082 129.563C161.082 131.07 162.304 132.292 163.812 132.292Z" fill="#FF9D33"/>
<path d="M166.541 137.82C166.541 139.327 165.319 140.549 163.812 140.549C162.304 140.549 161.082 139.327 161.082 137.82C161.082 136.312 162.304 135.09 163.812 135.09C165.319 135.09 166.541 136.312 166.541 137.82Z" fill="#FF9D33"/>
<path d="M189.63 204.083C205.794 204.083 218.897 190.979 218.897 174.815C218.897 158.651 205.794 145.547 189.63 145.547C173.466 145.547 160.362 158.651 160.362 174.815C160.362 190.979 173.466 204.083 189.63 204.083Z" fill="#FF9D33"/>
<path d="M51.4336 88.417H44.0918C41.3994 88.417 39.209 90.6074 39.209 93.2998V111.43C39.209 114.123 41.3994 116.313 44.0918 116.313H51.4341C54.1265 116.313 56.3169 114.123 56.3169 111.43V93.2998C56.3164 90.6074 54.1265 88.417 51.4336 88.417ZM44.0918 111.43V93.2998H51.4341L51.437 111.43H44.0918Z" fill="#5516FF"/>
<path d="M74.3774 73.7002H67.0352C64.3428 73.7002 62.1523 75.8906 62.1523 78.583V111.43C62.1523 114.123 64.3428 116.313 67.0352 116.313H74.3774C77.0698 116.313 79.2603 114.123 79.2603 111.43V78.583C79.2603 75.8911 77.0698 73.7002 74.3774 73.7002ZM67.0356 111.43V78.583H74.3779L74.3809 111.43H67.0356Z" fill="#5516FF"/>
<path d="M101.781 187.905L96.8978 192.788C95.9442 193.741 95.9442 195.287 96.8978 196.24C97.8514 197.194 99.3969 197.194 100.35 196.24L103.507 193.084L106.663 196.24C107.14 196.717 107.765 196.955 108.39 196.955C109.015 196.955 109.639 196.717 110.116 196.24C111.07 195.287 111.07 193.741 110.116 192.788L105.233 187.905C104.28 186.952 102.734 186.952 101.781 187.905Z" fill="#5516FF"/>
<path d="M189.63 143.106C187.428 143.106 185.277 143.333 183.201 143.762V100.174H207.076C209.769 100.174 211.959 97.9834 211.959 95.291V84.3291C211.959 75.1475 204.679 67.6367 195.589 67.2573C195.528 67.2529 195.47 67.2393 195.408 67.2393H138.136V51.3037C138.136 47.2651 134.85 43.9795 130.812 43.9795H125.146V28.9277C125.146 26.2354 122.956 24.0449 120.264 24.0449H112.922C110.229 24.0449 108.039 26.2354 108.039 28.9277V43.9795H102.203V43.2236C102.203 40.5313 100.013 38.3408 97.3203 38.3408H89.9785C87.2861 38.3408 85.0957 40.5313 85.0957 43.2236V43.9795H33.5439C29.5054 43.9795 26.2197 47.2651 26.2197 51.3037V122.098C26.2197 126.136 29.5054 129.422 33.5439 129.422H88.543V174.429H64.0947C61.4023 174.429 59.2119 176.62 59.2119 179.312V201.052C59.2119 210.476 66.8784 218.142 76.3018 218.142H166.077H166.111C173.917 218.142 180.515 212.879 182.549 205.716C184.828 206.238 187.195 206.523 189.63 206.523C207.114 206.523 221.339 192.299 221.339 174.815C221.339 157.331 207.114 143.106 189.63 143.106ZM195.139 72.1289C201.746 72.273 207.077 77.6885 207.077 84.3291V95.291H183.201V84.3291C183.201 77.6885 188.532 72.273 195.139 72.1289ZM112.922 28.9277H120.264L120.267 111.43H112.922V28.9277ZM89.9785 43.2236H97.3203L97.3232 111.43H89.9785V43.2236ZM166.111 213.26H166.077C159.346 213.26 153.87 207.784 153.87 201.053V179.313C153.87 176.62 151.68 174.43 148.987 174.43H107.586C106.238 174.43 105.145 175.522 105.145 176.871C105.145 178.22 106.238 179.313 107.586 179.313H148.987V201.053C148.987 205.83 150.958 210.156 154.128 213.26H76.3018C69.5708 213.26 64.0947 207.784 64.0947 201.053V179.313H90.9844C92.3325 179.313 93.4258 178.22 93.4258 176.871V129.422H130.812C134.85 129.422 138.136 126.137 138.136 122.098V86.2842C138.136 84.9356 137.042 83.8428 135.694 83.8428C134.346 83.8428 133.253 84.9356 133.253 86.2842V122.098C133.253 123.444 132.158 124.54 130.812 124.54H33.5439C32.1978 124.54 31.1025 123.444 31.1025 122.098V51.3037C31.1025 49.9575 32.1978 48.8623 33.5439 48.8623H85.0957V111.43C85.0957 114.123 87.2861 116.313 89.9785 116.313H97.3203C100.013 116.313 102.203 114.123 102.203 111.43V48.8623H108.039V111.43C108.039 114.123 110.229 116.313 112.922 116.313H120.264C122.956 116.313 125.146 114.123 125.146 111.43V48.8623H130.812C132.158 48.8623 133.253 49.9575 133.253 51.3037V69.6826C133.253 71.0313 134.346 72.124 135.694 72.124C135.701 72.124 135.707 72.1221 135.713 72.1221H183.459C180.288 75.2261 178.318 79.5518 178.318 84.3291V145.199C166.405 149.765 157.921 161.315 157.921 174.815C157.921 188.15 166.2 199.581 177.885 204.259C176.473 209.439 171.732 213.26 166.111 213.26ZM189.63 201.641C174.838 201.641 162.804 189.607 162.804 174.815C162.804 160.024 174.838 147.989 189.63 147.989C204.422 147.989 216.456 160.023 216.456 174.815C216.456 189.607 204.422 201.641 189.63 201.641Z" fill="#5516FF"/>
<path d="M189.63 195.51C201.06 195.51 210.325 186.245 210.325 174.815C210.325 163.385 201.06 154.12 189.63 154.12C178.2 154.12 168.935 163.385 168.935 174.815C168.935 186.245 178.2 195.51 189.63 195.51Z" fill="white"/>
<path d="M192.462 186.029H184.651C183.303 186.029 182.209 184.936 182.209 183.587C182.209 182.239 183.303 181.146 184.651 181.146H192.462C193.535 181.146 194.407 180.273 194.407 179.201C194.407 178.129 193.535 177.257 192.462 177.257H186.797C183.033 177.257 179.97 174.194 179.97 170.43C179.97 166.665 183.033 163.602 186.797 163.602H194.609C195.957 163.602 197.05 164.695 197.05 166.043C197.05 167.392 195.957 168.485 194.609 168.485H186.797C185.725 168.485 184.853 169.357 184.853 170.43C184.853 171.502 185.725 172.374 186.797 172.374H192.462C196.227 172.374 199.29 175.437 199.29 179.201C199.29 182.966 196.227 186.029 192.462 186.029Z" fill="#FF7300"/>
<path d="M189.63 189.295C188.282 189.295 187.188 188.202 187.188 186.854V162.776C187.188 161.428 188.282 160.335 189.63 160.335C190.978 160.335 192.071 161.428 192.071 162.776V186.854C192.071 188.202 190.979 189.295 189.63 189.295Z" fill="#FF7300"/>
<path d="M41.6508 185.563C41.0258 185.563 40.4012 185.325 39.9242 184.848C38.9706 183.894 38.9706 182.349 39.9242 181.395L44.807 176.513C45.7606 175.559 47.306 175.559 48.2596 176.513C49.2133 177.466 49.2133 179.012 48.2596 179.965L43.3768 184.848C42.9003 185.325 42.2758 185.563 41.6508 185.563Z" fill="#6C6CFF"/>
<path d="M216.456 119.583C215.831 119.583 215.207 119.345 214.73 118.868C213.776 117.914 213.776 116.369 214.73 115.415L219.613 110.533C220.566 109.579 222.112 109.579 223.065 110.533C224.019 111.486 224.019 113.032 223.065 113.985L218.183 118.868C217.706 119.345 217.081 119.583 216.456 119.583Z" fill="#FF9D33"/>
<path d="M51.434 31.369C50.809 31.369 50.1844 31.1307 49.7074 30.6537C48.7538 29.7006 48.7538 28.1547 49.7074 27.2015L54.5902 22.3187C55.5438 21.3651 57.0892 21.3651 58.0428 22.3187C58.9965 23.2719 58.9965 24.8177 58.0428 25.7709L53.16 30.6537C52.684 31.1307 52.059 31.369 51.434 31.369Z" fill="#FF9D33"/>
<path d="M67.9716 158.233C67.3466 158.233 66.722 157.995 66.245 157.517L63.0887 154.361L59.9325 157.517C58.9789 158.471 57.4335 158.471 56.4799 157.517C55.5262 156.564 55.5262 155.018 56.4799 154.065L61.3627 149.182C62.3163 148.229 63.8617 148.229 64.8153 149.182L69.6981 154.065C70.6517 155.018 70.6517 156.564 69.6981 157.517C69.2211 157.994 68.5961 158.233 67.9716 158.233Z" fill="#FF6C6C"/>
<path d="M174.627 48.954C174.002 48.954 173.377 48.7157 172.9 48.2386L169.744 45.0824L166.588 48.2386C165.634 49.1923 164.089 49.1923 163.135 48.2386C162.182 47.2855 162.182 45.7396 163.135 44.7865L168.018 39.9037C168.972 38.9501 170.517 38.9501 171.471 39.9037L176.353 44.7865C177.307 45.7396 177.307 47.2855 176.353 48.2386C175.876 48.7157 175.252 48.954 174.627 48.954Z" fill="#6C6CFF"/>
<defs>
<linearGradient id="paint0_linear_831_9676" x1="205.728" y1="64.5568" x2="16.2744" y2="257.916" gradientUnits="userSpaceOnUse">
<stop offset="0.0023" stop-color="#FF9494"/>
<stop offset="0.992" stop-color="#FFE8DC" stop-opacity="0"/>
</linearGradient>
</defs>
</svg>
