<svg width="40" height="40" viewBox="0 0 40 40" fill="none" xmlns="http://www.w3.org/2000/svg">
<rect width="40" height="40" rx="4" fill="white"/>
<path fill-rule="evenodd" clip-rule="evenodd" d="M11.6004 15C10.9377 15 10.4004 15.5373 10.4004 16.2C10.4004 16.8628 10.9377 17.4 11.6004 17.4H28.4004C29.0632 17.4 29.6004 16.8628 29.6004 16.2C29.6004 15.5373 29.0632 15 28.4004 15H11.6004ZM13.7006 19.8C13.2036 19.8 12.5003 20.3372 12.5003 21C12.5003 21.6628 13.2036 22.2 13.7006 22.2H26.3006C26.7977 22.2 27.5003 21.6628 27.5003 21C27.5003 20.3372 26.7977 19.8 26.3006 19.8H13.7006ZM14.783 25.8C14.783 25.1372 15.4689 24.6 15.8003 24.6H24.2003C24.5317 24.6 25.2544 25.1372 25.2544 25.8C25.2544 26.4628 24.5317 27 24.2003 27H15.8003C15.4689 27 14.783 26.4628 14.783 25.8Z" fill="#171717"/>
</svg>
