<svg width="259" height="259" viewBox="0 0 259 259" fill="none" xmlns="http://www.w3.org/2000/svg">
<g clip-path="url(#clip0_831_8337)">
<path d="M258.94 136.328C259.654 122.358 254.002 108.937 243.534 97.0956C236.251 88.8561 230.311 79.5402 225.931 69.4534C211.92 37.1963 186.352 15.115 156.125 13.5691C134.644 12.4709 114.447 21.9304 98.3746 38.4999C87.7359 49.4674 74.5937 57.6249 60.1423 62.5874C25.1368 74.6071 1.4095 96.7136 0.0603755 123.091C-1.28825 149.467 20.0605 173.879 53.6572 189.407C67.5273 195.818 79.7686 205.274 89.2333 217.269C103.532 235.391 122.658 246.862 144.139 247.96C174.366 249.506 202.054 230.148 219.281 199.488C224.668 189.9 231.526 181.239 239.613 173.785C251.233 163.073 258.225 150.299 258.94 136.328Z" fill="url(#paint0_linear_831_8337)"/>
<path opacity="0.1" d="M191.264 200.898L195.494 182.618H199.186C201.98 182.618 204.244 180.353 204.244 177.559V155.64C204.244 152.846 201.98 150.581 199.186 150.581H177.622V85.2914C177.832 85.3025 178.043 85.3086 178.255 85.3086C184.785 85.3086 190.078 80.0153 190.078 73.4862V65.0879H71.8534V73.4862C71.8534 80.0153 77.1468 85.3086 83.6759 85.3086C83.8894 85.3086 84.1008 85.3025 84.3112 85.2914V150.581H59.813C57.0191 150.581 54.7544 152.846 54.7544 155.64V177.559C54.7544 180.353 57.0191 182.618 59.813 182.618H63.5047L67.7347 200.898L55.2127 213.42C52.1335 216.499 52.1335 221.492 55.2127 224.57C58.2919 227.649 63.2842 227.649 66.3628 224.57L71.9248 219.008L77.7948 244.376C78.3259 246.668 80.3696 248.291 82.7269 248.291H176.27C178.628 248.291 180.671 246.668 181.203 244.376L187.073 219.008L192.634 224.57C195.714 227.649 200.706 227.649 203.785 224.57C206.864 221.491 206.864 216.499 203.785 213.42L191.264 200.898Z" fill="#5516FF"/>
<path d="M196.415 168.017L181.204 233.753C180.673 236.045 178.629 237.668 176.272 237.668H82.7283C80.371 237.668 78.3273 236.045 77.7961 233.753L62.585 168.017H196.415Z" fill="#FF4D4D"/>
<path d="M196.415 168.017H62.585L65.1446 179.075H90.0885L69.8289 199.334L73.81 216.518L111.254 179.075H147.746L185.19 216.518L189.171 199.334L168.912 179.075H193.855L196.415 168.017Z" fill="#FF2C2C"/>
<path d="M177.622 143.821V21.9785C177.622 17.1511 173.709 13.2378 168.882 13.2378H93.0503C88.2229 13.2378 84.3096 17.1511 84.3096 21.9785V143.822H177.622V143.821Z" fill="#FF9D33"/>
<path d="M84.3115 33.8477H177.622V143.821H84.3115V33.8477Z" fill="white"/>
<path d="M177.622 33.8477V81.7525C173.393 81.616 169.524 80.0832 166.433 77.5994C163.195 80.2046 159.083 81.7677 154.611 81.7677C150.139 81.7677 146.026 80.2046 142.789 77.5994C139.546 80.2046 135.439 81.7677 130.967 81.7677C126.495 81.7677 122.382 80.2046 119.145 77.5994C115.902 80.2046 111.79 81.7677 107.323 81.7677C102.851 81.7677 98.7386 80.2046 95.4961 77.5994C92.4154 80.0781 88.5354 81.616 84.3115 81.7525V33.8477H177.622Z" fill="#EBEBFF"/>
<path d="M95.4984 53.478H71.8535L84.3088 33.8496H102.971L95.4984 53.478Z" fill="#FFC599"/>
<path d="M119.144 53.478H95.499L102.972 33.8496H121.635L119.144 53.478Z" fill="#FF4D4D"/>
<path d="M142.788 53.478H119.144L121.634 33.8496H140.297L142.788 53.478Z" fill="#FFC599"/>
<path d="M166.433 53.478H142.788L140.297 33.8496H158.96L166.433 53.478Z" fill="#FF4D4D"/>
<path d="M190.078 53.478H166.434L158.96 33.8496H177.623L190.078 53.478Z" fill="#FFC599"/>
<path d="M83.676 74.6857C77.1468 74.6857 71.8535 69.3924 71.8535 62.8632V53.478H95.4984V62.8632C95.4984 69.3929 90.2051 74.6857 83.676 74.6857Z" fill="#FFD6BB"/>
<path d="M107.321 74.6857C100.792 74.6857 95.499 69.3924 95.499 62.8632V53.478H119.144V62.8632C119.144 69.3929 113.851 74.6857 107.321 74.6857Z" fill="#FF6C6C"/>
<path d="M130.966 74.6857C124.437 74.6857 119.144 69.3924 119.144 62.8632V53.478H142.788V62.8632C142.788 69.3929 137.495 74.6857 130.966 74.6857Z" fill="#FFD6BB"/>
<path d="M154.611 74.6857C148.081 74.6857 142.788 69.3924 142.788 62.8632V53.478H166.433V62.8632C166.433 69.3929 161.14 74.6857 154.611 74.6857Z" fill="#FF6C6C"/>
<path d="M178.256 74.6857C171.727 74.6857 166.434 69.3924 166.434 62.8632V53.478H190.078V62.8632C190.078 69.3929 184.785 74.6857 178.256 74.6857Z" fill="#FFD6BB"/>
<path d="M199.187 171.995H59.8135C57.0196 171.995 54.7549 169.73 54.7549 166.936V145.017C54.7549 142.223 57.0196 139.958 59.8135 139.958H199.187C201.981 139.958 204.245 142.223 204.245 145.017V166.936C204.245 169.73 201.981 171.995 199.187 171.995Z" fill="#FF6C6C"/>
<path d="M94.6768 189.946V215.745C94.6768 217.141 93.5436 218.274 92.1475 218.274C90.7513 218.274 89.6182 217.141 89.6182 215.745V189.946C89.6182 188.55 90.7513 187.417 92.1475 187.417C93.5436 187.417 94.6768 188.55 94.6768 189.946Z" fill="white"/>
<path d="M94.6768 189.946V195.652L89.6182 200.711V189.946C89.6182 188.55 90.7513 187.417 92.1475 187.417C93.5436 187.417 94.6768 188.55 94.6768 189.946Z" fill="#FFD9D9"/>
<path d="M110.824 187.416C112.221 187.416 113.354 188.548 113.354 189.945V215.744C113.354 217.141 112.221 218.273 110.824 218.273C109.428 218.273 108.295 217.141 108.295 215.744V189.945C108.295 188.548 109.427 187.416 110.824 187.416Z" fill="white"/>
<path d="M129.5 187.416C130.897 187.416 132.029 188.548 132.029 189.945V215.744C132.029 217.141 130.897 218.273 129.5 218.273C128.103 218.273 126.971 217.141 126.971 215.744V189.945C126.971 188.548 128.103 187.416 129.5 187.416Z" fill="white"/>
<path d="M148.175 187.416C149.571 187.416 150.704 188.548 150.704 189.945V215.744C150.704 217.141 149.571 218.273 148.175 218.273C146.778 218.273 145.646 217.141 145.646 215.744V189.945C145.646 188.548 146.778 187.416 148.175 187.416Z" fill="white"/>
<path d="M169.382 189.946V215.745C169.382 217.141 168.249 218.274 166.853 218.274C165.456 218.274 164.323 217.141 164.323 215.745V189.946C164.323 188.55 165.456 187.417 166.853 187.417C168.249 187.417 169.382 188.55 169.382 189.946Z" fill="white"/>
<path d="M169.382 189.946V200.711L164.323 195.652V189.946C164.323 188.55 165.456 187.417 166.853 187.417C168.249 187.417 169.382 188.55 169.382 189.946Z" fill="#FFD9D9"/>
<path d="M203.786 213.947C200.707 217.026 195.715 217.026 192.636 213.947L141.534 162.846C138.455 159.767 138.455 154.774 141.534 151.696C144.613 148.616 149.605 148.616 152.684 151.696L203.786 202.797C206.865 205.876 206.865 210.868 203.786 213.947Z" fill="#FFAB66"/>
<path d="M117.466 151.695C114.387 148.616 109.394 148.616 106.316 151.695L55.2137 202.797C52.1345 205.876 52.1345 210.869 55.2137 213.947C58.2928 217.026 63.2852 217.026 66.3638 213.947L117.466 162.846C120.545 159.767 120.545 154.774 117.466 151.695Z" fill="#FFAB66"/>
<path d="M205.576 201.008L194.045 189.477L197.505 174.524H199.188C203.372 174.524 206.776 171.12 206.776 166.936V145.017C206.776 140.833 203.372 137.429 199.188 137.429H180.152V77.0858C187.172 76.1546 192.608 70.1333 192.608 62.8631V53.4779C192.608 53.014 192.462 52.5142 192.214 52.1227L180.152 33.115V21.9785C180.152 15.7641 175.096 10.7085 168.882 10.7085H93.0502C86.8357 10.7085 81.7802 15.7641 81.7802 21.9785V33.115L69.718 52.1232C69.4671 52.5183 69.3244 53.0105 69.3244 53.4784V62.8636C69.3244 70.7773 75.7625 77.2153 83.6761 77.2153C88.5759 77.2153 92.9081 74.7457 95.4986 70.9872C98.0891 74.7452 102.421 77.2153 107.321 77.2153C112.221 77.2153 116.553 74.7457 119.143 70.9872C121.734 74.7452 126.066 77.2153 130.966 77.2153C135.866 77.2153 140.198 74.7457 142.788 70.9872C145.379 74.7452 149.711 77.2153 154.611 77.2153C159.511 77.2153 163.843 74.7457 166.433 70.9872C168.449 73.9116 171.521 76.0529 175.093 76.8597V139.958C175.093 141.355 176.226 142.487 177.622 142.487H199.187C200.581 142.487 201.716 143.622 201.716 145.017V166.936C201.716 168.331 200.581 169.465 199.187 169.465H174.032L154.474 149.907C150.413 145.846 143.807 145.846 139.747 149.907C137.78 151.874 136.696 154.489 136.696 157.271C136.696 160.052 137.779 162.668 139.746 164.634L144.578 169.466H114.423L119.255 164.634C121.222 162.668 122.305 160.052 122.305 157.271C122.305 154.489 121.221 151.874 119.255 149.907C115.195 145.847 108.588 145.847 104.527 149.907L84.9691 169.465H59.8143C58.4196 169.465 57.285 168.331 57.285 166.936V145.017C57.285 143.622 58.4196 142.487 59.8143 142.487H160.424C161.82 142.487 162.953 141.355 162.953 139.958C162.953 138.561 161.82 137.429 160.424 137.429H86.8393V91.8853C86.8393 90.4881 85.7067 89.356 84.31 89.356C82.9133 89.356 81.7807 90.4881 81.7807 91.8853V137.429H59.8143C55.6303 137.429 52.2264 140.833 52.2264 145.017V166.936C52.2264 171.12 55.6303 174.524 59.8143 174.524H61.4967L64.9573 189.477L53.4263 201.008C49.3657 205.068 49.3657 211.675 53.4263 215.735C55.4563 217.766 58.1232 218.781 60.7901 218.781C63.4569 218.781 66.1238 217.766 68.1538 215.735L70.4929 213.396L75.3355 234.322C76.1363 237.783 79.176 240.199 82.7277 240.199H176.275C179.826 240.199 182.866 237.783 183.667 234.322L188.509 213.396L190.849 215.735C192.879 217.766 195.545 218.781 198.212 218.781C200.879 218.781 203.546 217.766 205.576 215.735C209.636 211.675 209.636 205.069 205.576 201.008ZM118.765 36.3788L116.915 50.9491H99.1686L104.716 36.3788H118.765ZM123.864 36.3788H138.069L139.918 50.9491H122.014L123.864 36.3788ZM145.017 50.9491L143.168 36.3788H157.216L162.764 50.9491H145.017ZM168.177 50.9491L162.63 36.3788H176.232L185.478 50.9491H168.177ZM93.0502 15.7671H168.882C172.307 15.7671 175.093 18.5539 175.093 21.9785V31.3202H86.8393V21.9785C86.8393 18.5539 89.6256 15.7671 93.0502 15.7671ZM85.7006 36.3788H99.3031L93.7559 50.9491H76.455L85.7006 36.3788ZM83.6767 72.1562C78.5523 72.1562 74.3835 67.9875 74.3835 62.8631V56.0072H92.9698V62.8631C92.9698 67.9875 88.8005 72.1562 83.6767 72.1562ZM107.322 72.1562C102.197 72.1562 98.0284 67.9875 98.0284 62.8631V56.0072H116.615V62.8631C116.614 67.9875 112.445 72.1562 107.322 72.1562ZM130.966 72.1562C125.842 72.1562 121.673 67.9875 121.673 62.8631V56.0072H140.259V62.8631C140.26 67.9875 136.09 72.1562 130.966 72.1562ZM154.611 72.1562C149.487 72.1562 145.318 67.9875 145.318 62.8631V56.0072H163.904V62.8631C163.904 67.9875 159.736 72.1562 154.611 72.1562ZM168.963 62.8631V56.0072H187.549V62.8631C187.549 67.9875 183.381 72.1562 178.256 72.1562C173.132 72.1562 168.963 67.9875 168.963 62.8631ZM192.312 174.524L189.828 185.261L179.09 174.524H192.312ZM66.6884 174.524H79.9105L69.1732 185.261L66.6884 174.524ZM64.5759 212.159C62.4882 214.247 59.0904 214.247 57.0027 212.159C54.9145 210.071 54.9145 206.673 57.0027 204.585L108.105 153.483C109.148 152.44 110.52 151.917 111.891 151.917C113.263 151.917 114.634 152.439 115.678 153.483C116.689 154.494 117.246 155.84 117.246 157.27C117.246 158.7 116.689 160.045 115.677 161.056L64.5759 212.159ZM178.738 233.182C178.471 234.335 177.457 235.141 176.274 235.141H82.7272C81.5434 235.141 80.5302 234.335 80.2631 233.182L74.7088 209.18L109.365 174.524H149.637L184.293 209.18L178.738 233.182ZM201.998 212.159C199.911 214.247 196.513 214.247 194.425 212.159L143.323 161.057C142.311 160.045 141.754 158.701 141.754 157.27C141.754 155.84 142.311 154.495 143.323 153.484C144.367 152.44 145.738 151.918 147.109 151.918C148.481 151.918 149.852 152.44 150.896 153.484L201.998 204.585C204.086 206.673 204.086 210.071 201.998 212.159Z" fill="#5516FF"/>
<path d="M147.995 155.611C146.598 155.611 145.466 156.743 145.466 158.141V158.199C145.466 159.596 146.598 160.728 147.995 160.728C149.392 160.728 150.524 159.596 150.524 158.199V158.141C150.524 156.743 149.392 155.611 147.995 155.611Z" fill="#5516FF"/>
<path d="M111.005 155.611C109.608 155.611 108.476 156.743 108.476 158.141V158.199C108.476 159.596 109.608 160.728 111.005 160.728C112.402 160.728 113.534 159.596 113.534 158.199V158.141C113.534 156.743 112.402 155.611 111.005 155.611Z" fill="#5516FF"/>
<path d="M124.062 114.573C122.994 114.573 122.002 113.891 121.656 112.821L114.446 90.5166H109.04C107.643 90.5166 106.511 89.3845 106.511 87.9873C106.511 86.5901 107.643 85.458 109.04 85.458H116.286C117.383 85.458 118.355 86.1652 118.693 87.2093L126.469 111.265C126.899 112.594 126.17 114.02 124.841 114.45C124.582 114.533 124.32 114.573 124.062 114.573Z" fill="#FF8B00"/>
<path d="M146.878 114.572H120.151C118.755 114.572 117.622 113.44 117.622 112.043C117.622 110.646 118.755 109.513 120.151 109.513H144.76L146.939 97.3101H120.151C118.755 97.3101 117.622 96.1779 117.622 94.7808C117.622 93.3836 118.755 92.2515 120.151 92.2515H149.96C150.708 92.2515 151.419 92.5828 151.899 93.157C152.379 93.7311 152.581 94.4884 152.449 95.2254L149.368 112.487C149.152 113.694 148.103 114.572 146.878 114.572Z" fill="#FF8B00"/>
<path d="M125.568 130.105C121.938 130.105 118.985 127.153 118.985 123.523C118.985 119.894 121.938 116.941 125.568 116.941C129.197 116.941 132.15 119.894 132.15 123.523C132.15 127.153 129.197 130.105 125.568 130.105ZM125.568 122C124.727 122 124.044 122.683 124.044 123.524C124.044 124.364 124.727 125.047 125.568 125.047C126.408 125.047 127.091 124.364 127.091 123.524C127.091 122.683 126.408 122 125.568 122Z" fill="#FF8B00"/>
<path d="M144.454 130.105C140.825 130.105 137.872 127.153 137.872 123.523C137.872 119.894 140.825 116.941 144.454 116.941C148.084 116.941 151.037 119.894 151.037 123.523C151.037 127.153 148.084 130.105 144.454 130.105ZM144.454 122C143.614 122 142.931 122.683 142.931 123.524C142.931 124.364 143.614 125.047 144.454 125.047C145.295 125.047 145.978 124.364 145.978 123.524C145.978 122.683 145.295 122 144.454 122Z" fill="#FF8B00"/>
<path d="M61.1517 109.483C60.5042 109.483 59.8573 109.236 59.363 108.742C58.3751 107.755 58.3751 106.153 59.363 105.166L64.4216 100.107C65.4096 99.1192 67.0106 99.1192 67.9986 100.107C68.9865 101.095 68.9865 102.696 67.9986 103.684L62.94 108.742C62.4462 109.236 61.7992 109.483 61.1517 109.483Z" fill="#FF6C6C"/>
<path d="M207.603 91.1444C206.956 91.1444 206.309 90.8975 205.815 90.4033L202.545 87.1334L199.275 90.4033C198.287 91.3913 196.686 91.3913 195.698 90.4033C194.71 89.4159 194.71 87.8143 195.698 86.8269L200.757 81.7683C201.745 80.7804 203.346 80.7804 204.334 81.7683L209.392 86.8269C210.38 87.8143 210.38 89.4159 209.392 90.4033C208.898 90.897 208.251 91.1444 207.603 91.1444Z" fill="#6C6CFF"/>
<path d="M65.3417 34.7567C64.6942 34.7567 64.0472 34.5098 63.553 34.0156L60.2831 30.7457L57.0132 34.0156C56.0253 35.0036 54.4242 35.0036 53.4363 34.0156C52.4483 33.0282 52.4483 31.4266 53.4363 30.4392L58.4949 25.3806C59.4828 24.3927 61.0839 24.3927 62.0718 25.3806L67.1304 30.4392C68.1183 31.4266 68.1183 33.0282 67.1304 34.0156C66.6367 34.5098 65.9892 34.7567 65.3417 34.7567Z" fill="#6C6CFF"/>
<path d="M220.039 183.723C219.392 183.723 218.745 183.476 218.251 182.981C217.263 181.994 217.263 180.392 218.251 179.405L223.309 174.346C224.297 173.358 225.898 173.358 226.886 174.346C227.874 175.334 227.874 176.935 226.886 177.923L221.828 182.981C221.334 183.476 220.687 183.723 220.039 183.723Z" fill="#FF6C6C"/>
<path d="M44.0194 194.792C43.3719 194.792 42.7249 194.545 42.2307 194.051L38.9608 190.781L35.6909 194.051C34.703 195.039 33.1019 195.039 32.114 194.051C31.1261 193.063 31.1261 191.462 32.114 190.474L37.1726 185.416C38.1605 184.428 39.7616 184.428 40.7495 185.416L45.8081 190.474C46.7961 191.462 46.7961 193.063 45.8081 194.051C45.3139 194.545 44.6664 194.792 44.0194 194.792Z" fill="#FF9D33"/>
</g>
<defs>
<linearGradient id="paint0_linear_831_8337" x1="215.343" y1="-32.024" x2="75.6095" y2="231.244" gradientUnits="userSpaceOnUse">
<stop offset="0.007" stop-color="#9494FF"/>
<stop offset="0.992" stop-color="#FFE8DC" stop-opacity="0"/>
</linearGradient>
<clipPath id="clip0_831_8337">
<rect width="259" height="259" fill="white"/>
</clipPath>
</defs>
</svg>
