<svg width="24" height="24" viewBox="0 0 24 24" fill="none" xmlns="http://www.w3.org/2000/svg">
<path fill-rule="evenodd" clip-rule="evenodd" d="M0 8V16C0 17.6569 1.34315 19 3 19H16.6202C17.496 19 18.328 18.6173 18.898 17.9524L22.3265 13.9524C23.2895 12.8289 23.2895 11.1711 22.3265 10.0476L18.898 6.04763C18.328 5.38269 17.496 5 16.6202 5H3C1.34315 5 0 6.34315 0 8ZM15 15C16.6569 15 18 13.6569 18 12C18 10.3431 16.6569 9 15 9C13.3431 9 12 10.3431 12 12C12 13.6569 13.3431 15 15 15Z" fill="#171717"/>
</svg>
