<svg width="25" height="24" viewBox="0 0 25 24" fill="none" xmlns="http://www.w3.org/2000/svg">
<path fill-rule="evenodd" clip-rule="evenodd" d="M5.83984 4.46777H7.83984V7.02487C9.02985 6.08978 10.5305 5.53207 12.1613 5.53207C16.0273 5.53207 19.1613 8.66608 19.1613 12.5321C19.1613 16.3981 16.0273 19.5321 12.1613 19.5321C10.0108 19.5321 8.0868 18.5623 6.80273 17.0363L8.42205 15.8515C9.33795 16.8825 10.6738 17.5321 12.1613 17.5321C14.9227 17.5321 17.1613 15.2935 17.1613 12.5321C17.1613 9.77065 14.9227 7.53207 12.1613 7.53207C11.0745 7.53207 10.0686 7.87884 9.24833 8.46777H11.8399V10.4678H5.83984V4.46777Z" fill="#171717"/>
</svg>
