<svg width="48" height="47" viewBox="0 0 48 47" fill="none" xmlns="http://www.w3.org/2000/svg">
<rect width="48" height="46.6667" rx="10" fill="#FFC042"/>
<path fill-rule="evenodd" clip-rule="evenodd" d="M12.3333 27.9998V18.6665C12.3333 18.0222 12.8557 17.4998 13.5 17.4998H29.3902C29.7308 17.4998 30.0544 17.6487 30.2761 17.9072L34.276 22.5739C34.6505 23.0108 34.6505 23.6555 34.276 24.0924L30.2761 28.7591C30.0544 29.0176 29.7308 29.1665 29.3902 29.1665H13.5C12.8557 29.1665 12.3333 28.6442 12.3333 27.9998ZM10 27.9998V18.6665C10 16.7335 11.567 15.1665 13.5 15.1665H29.3902C30.412 15.1665 31.3827 15.613 32.0477 16.3887L36.0476 21.0554C37.1711 22.3661 37.1711 24.3002 36.0476 25.611L32.0477 30.2776C31.3827 31.0534 30.412 31.4998 29.3902 31.4998H13.5C11.567 31.4998 10 29.9329 10 27.9998ZM28.6667 23.3332C28.6667 23.9775 28.1444 24.4998 27.5 24.4998C26.8556 24.4998 26.3333 23.9775 26.3333 23.3332C26.3333 22.6888 26.8556 22.1665 27.5 22.1665C28.1444 22.1665 28.6667 22.6888 28.6667 23.3332ZM31 23.3332C31 25.2662 29.4331 26.8332 27.5 26.8332C25.5669 26.8332 24 25.2662 24 23.3332C24 21.4001 25.5669 19.8332 27.5 19.8332C29.4331 19.8332 31 21.4001 31 23.3332Z" fill="white"/>
</svg>
