<svg width="24" height="24" viewBox="0 0 24 24" fill="none" xmlns="http://www.w3.org/2000/svg">
<path fill-rule="evenodd" clip-rule="evenodd" d="M22 5H2C1.44772 5 1 5.44772 1 6V10C1.00356 11.2683 1.80427 12.3973 3 12.82V22C3 22.5523 3.44772 23 4 23H20C20.5523 23 21 22.5523 21 22V12.82C22.1957 12.3973 22.9964 11.2683 23 10V6C23 5.44772 22.5523 5 22 5ZM15 7H17V10C17 10.5523 16.5523 11 16 11C15.4477 11 15 10.5523 15 10V7ZM11 7H13V10C13 10.5523 12.5523 11 12 11C11.4477 11 11 10.5523 11 10V7ZM7 7H9V10C9 10.5523 8.55228 11 8 11C7.44772 11 7 10.5523 7 10V7ZM4 11C3.44772 11 3 10.5523 3 10V7H5V10C5 10.5523 4.55228 11 4 11ZM14 21H10V19C10 17.8954 10.8954 17 12 17C13.1046 17 14 17.8954 14 19V21ZM19 21H16V19C16 16.7909 14.2091 15 12 15C9.79086 15 8 16.7909 8 19V21H5V12.82C5.36757 12.6836 5.70664 12.4801 6 12.22C7.1388 13.2386 8.8612 13.2386 10 12.22C11.1388 13.2386 12.8612 13.2386 14 12.22C15.1388 13.2386 16.8612 13.2386 18 12.22C18.2934 12.4801 18.6324 12.6836 19 12.82V21ZM21 10C21 10.5523 20.5523 11 20 11C19.4477 11 19 10.5523 19 10V7H21V10ZM4.3 3H20C20.5523 3 21 2.55228 21 2C21 1.44772 20.5523 1 20 1H4.3C3.74772 1 3.3 1.44772 3.3 2C3.3 2.55228 3.74772 3 4.3 3Z" fill="#171717"/>
</svg>
