<svg width="58" height="59" viewBox="0 0 58 59" fill="none" xmlns="http://www.w3.org/2000/svg">
<path d="M9.31327 52.5C9.9005 52.5 10.375 52.0265 10.375 51.4406V21.4488C10.375 20.8655 10.8495 20.3895 11.4368 20.3895H23.0766C24.1173 20.3319 26.1858 20.5647 27.6958 20.91C28.7418 21.0565 30.5586 21.8464 31.7488 22.6782C32.6113 23.1307 33.8985 24.6138 34.6246 25.9871C35.3508 27.363 35.7126 29.0946 35.7126 31.1793C35.8358 32.5944 35.3561 34.8674 34.6456 36.259C34.2576 37.2608 32.9888 38.7832 31.8117 39.6594C31.0986 40.3186 29.2845 41.1713 27.7587 41.5637C26.233 41.956 24.6705 42.1548 23.074 42.1548H21.6399C21.0553 42.1548 20.5782 42.6283 20.5782 43.2142V51.4354C20.5782 52.0187 21.0527 52.4948 21.6399 52.4948H39.8442C40.4288 52.4948 41.2441 52.1626 41.661 51.7519L52.745 40.8522C53.1619 40.4415 53.5 39.6359 53.5 39.05V7.55936C53.5 6.97344 53.0255 6.49999 52.4383 6.49999H22.4028C21.8156 6.49999 20.9085 6.69617 20.3763 6.93943L5.46479 13.722C4.9326 13.9653 4.50004 14.6349 4.50004 15.2208V51.4406C4.50004 52.0239 4.97455 52.5 5.56178 52.5H9.31327Z" fill="white" stroke="white" stroke-width="2" stroke-linecap="round" stroke-linejoin="round"/>
</svg>
