<svg width="30" height="24" viewBox="0 0 30 24" fill="none" xmlns="http://www.w3.org/2000/svg">
<path fill-rule="evenodd" clip-rule="evenodd" d="M0.333496 4C0.333496 1.79087 2.12436 0 4.3335 0H25.6668C27.876 0 29.6668 1.79087 29.6668 4V20C29.6668 22.2092 27.876 24 25.6668 24H4.3335C2.12436 24 0.333496 22.2092 0.333496 20V4ZM4.3335 2.66667H25.6668C26.4032 2.66667 27.0002 3.26363 27.0002 4V20C27.0002 20.7364 26.4032 21.3333 25.6668 21.3333H4.3335C3.59712 21.3333 3.00016 20.7364 3.00016 20V4C3.00016 3.26363 3.59712 2.66667 4.3335 2.66667ZM7.00016 5.33333C6.26379 5.33333 5.66683 5.93029 5.66683 6.66667C5.66683 7.40304 6.26379 8 7.00016 8H12.3335C13.0699 8 13.6668 7.40304 13.6668 6.66667C13.6668 5.93029 13.0699 5.33333 12.3335 5.33333H7.00016ZM17.6668 5.33333C16.9304 5.33333 16.3335 5.93029 16.3335 6.66667V17.3333C16.3335 18.0697 16.9304 18.6667 17.6668 18.6667H23.0002C23.7366 18.6667 24.3335 18.0697 24.3335 17.3333V6.66667C24.3335 5.93029 23.7366 5.33333 23.0002 5.33333H17.6668ZM21.6668 8H19.0002V16H21.6668V8ZM5.66683 12C5.66683 11.2636 6.26379 10.6667 7.00016 10.6667H12.3335C13.0699 10.6667 13.6668 11.2636 13.6668 12C13.6668 12.7364 13.0699 13.3333 12.3335 13.3333H7.00016C6.26379 13.3333 5.66683 12.7364 5.66683 12ZM5.66683 17.3333C5.66683 16.5969 6.26379 16 7.00016 16H12.3335C13.0699 16 13.6668 16.5969 13.6668 17.3333C13.6668 18.0697 13.0699 18.6667 12.3335 18.6667H7.00016C6.26379 18.6667 5.66683 18.0697 5.66683 17.3333Z" fill="white"/>
</svg>
