<svg width="32" height="32" viewBox="0 0 32 32" fill="none" xmlns="http://www.w3.org/2000/svg">
<path d="M16.6663 9.33398C16.6663 8.7817 17.1141 8.33398 17.6663 8.33398H22.6663C23.2186 8.33398 23.6663 8.7817 23.6663 9.33398V14.334C23.6663 14.8863 23.2186 15.334 22.6663 15.334C22.1141 15.334 21.6663 14.8863 21.6663 14.334V11.7482L11.7472 21.6673H14.333C14.8853 21.6673 15.333 22.1151 15.333 22.6673C15.333 23.2196 14.8853 23.6673 14.333 23.6673H9.33301C8.78073 23.6673 8.33301 23.2196 8.33301 22.6673V17.6673C8.33301 17.1151 8.78073 16.6673 9.33301 16.6673C9.88529 16.6673 10.333 17.1151 10.333 17.6673V20.253L20.2521 10.334H17.6663C17.1141 10.334 16.6663 9.88626 16.6663 9.33398Z" fill="white"/>
<path fill-rule="evenodd" clip-rule="evenodd" d="M15.9233 1.66699C12.8455 1.66698 10.4334 1.66697 8.55145 1.91999C6.62513 2.17898 5.1051 2.71943 3.91202 3.91251C2.71894 5.10559 2.17849 6.62562 1.9195 8.55194C1.66648 10.4339 1.66649 12.846 1.6665 15.9238V16.0769C1.66649 19.1547 1.66648 21.5667 1.9195 23.4487C2.17849 25.375 2.71894 26.8951 3.91202 28.0882C5.1051 29.2813 6.62513 29.8217 8.55145 30.0807C10.4334 30.3337 12.8455 30.3337 15.9233 30.3337H16.0764C19.1542 30.3337 21.5662 30.3337 23.4482 30.0807C25.3745 29.8217 26.8946 29.2813 28.0877 28.0882C29.2808 26.8951 29.8212 25.375 30.0802 23.4487C30.3332 21.5667 30.3332 19.1547 30.3332 16.0769V15.9238C30.3332 12.846 30.3332 10.4339 30.0802 8.55194C29.8212 6.62562 29.2808 5.10559 28.0877 3.91251C26.8946 2.71943 25.3745 2.17898 23.4482 1.91999C21.5662 1.66697 19.1542 1.66698 16.0764 1.66699H15.9233ZM5.32624 5.32673C6.08577 4.56718 7.1134 4.13133 8.81794 3.90215C10.5513 3.66911 12.8289 3.66699 15.9998 3.66699C19.1708 3.66699 21.4484 3.66911 23.1817 3.90215C24.8862 4.13133 25.9138 4.56718 26.6734 5.32673C27.433 6.08626 27.8689 7.11389 28.098 8.81843C28.331 10.5517 28.3332 12.8294 28.3332 16.0003C28.3332 19.1713 28.331 21.4489 28.098 23.1822C27.8689 24.8867 27.433 25.9143 26.6734 26.6739C25.9138 27.4335 24.8862 27.8694 23.1817 28.0985C21.4484 28.3315 19.1708 28.3337 15.9998 28.3337C12.8289 28.3337 10.5513 28.3315 8.81794 28.0985C7.1134 27.8694 6.08577 27.4335 5.32624 26.6739C4.56669 25.9143 4.13084 24.8867 3.90166 23.1822C3.66862 21.4489 3.6665 19.1713 3.6665 16.0003C3.6665 12.8294 3.66862 10.5517 3.90166 8.81843C4.13084 7.11389 4.56669 6.08626 5.32624 5.32673Z" fill="white"/>
</svg>
