<svg width="32" height="32" viewBox="0 0 32 32" fill="none" xmlns="http://www.w3.org/2000/svg">
<path d="M16 1.75C7.45001 1.75 0.5 8.70001 0.5 17.25V20.04C0.5 22.74 2.41998 24.99 4.96002 25.52C5.98999 28.32 8.69 30.25 11.75 30.25H16C16.83 30.25 17.5 29.58 17.5 28.75C17.5 27.93 16.83 27.25 16 27.25H11.75C10.42 27.25 9.21997 26.63 8.42999 25.64H8.83001C9.65997 25.64 10.33 24.97 10.33 24.14V15.94C10.33 15.11 9.65997 14.44 8.83001 14.44H6.09998C5.25 14.44 4.44001 14.64 3.71998 14.98C4.78998 9.16998 9.88 4.75 16 4.75C22.12 4.75 27.21 9.16998 28.28 14.98C27.56 14.64 26.75 14.44 25.9 14.44H23.17C22.34 14.44 21.67 15.11 21.67 15.94V24.14C21.67 24.97 22.34 25.64 23.17 25.64H25.9C28.99 25.64 31.5 23.13 31.5 20.04V17.25C31.5 8.70001 24.55 1.75 16 1.75Z" fill="white"/>
</svg>
