<svg width="32" height="32" viewBox="0 0 32 32" fill="none" xmlns="http://www.w3.org/2000/svg">
<path d="M26 10H25.34L18.99 5.06C18.99 5.06 18.99 5.02 18.99 5C18.99 3.35 17.64 2 15.99 2C14.34 2 12.99 3.35 12.99 5V5.06L6.63998 10H5.97998C4.87998 10 3.97998 10.9 3.97998 12V28C3.97998 29.1 4.87998 30 5.97998 30H25.98C27.08 30 27.98 29.1 27.98 28V12C27.98 10.9 27.08 10 25.98 10H26ZM16 4C16.55 4 17 4.45 17 5C17 5.55 16.55 6 16 6C15.45 6 15 5.55 15 5C15 4.45 15.45 4 16 4ZM13.78 7C14.33 7.61 15.12 8 16 8C16.88 8 17.67 7.61 18.22 7L22.08 10H9.90998L13.77 7H13.78ZM26 12V23.59L22.71 20.3C22.32 19.91 21.69 19.91 21.3 20.3L18.51 23.09L12.72 17.3C12.33 16.91 11.7 16.91 11.31 17.3L6.01998 22.59V12H26.02H26ZM5.99998 25.41L12 19.41L20.59 28H5.99998V25.41ZM23.41 28L19.91 24.5L22 22.41L26 26.41V28H23.41Z" fill="white"/>
<path d="M19 18C20.1046 18 21 17.1046 21 16C21 14.8954 20.1046 14 19 14C17.8954 14 17 14.8954 17 16C17 17.1046 17.8954 18 19 18Z" fill="white"/>
</svg>
