<svg width="32" height="32" viewBox="0 0 32 32" fill="none" xmlns="http://www.w3.org/2000/svg">
<g clip-path="url(#clip0_285_1336)">
<path d="M7.68164 12.9277H9.55615V14.5525H7.68164V12.9277Z" fill="white"/>
<path d="M13.4219 12.9277H15.2966V14.5525H13.4219V12.9277Z" fill="white"/>
<path d="M11.4885 19.1116C12.9707 19.1116 14.1765 17.9058 14.1765 16.4238H12.3018C12.3018 16.8721 11.937 17.2368 11.4885 17.2368C11.0403 17.2368 10.6755 16.8721 10.6755 16.4238H8.80078C8.80078 17.9058 10.0066 19.1116 11.4885 19.1116Z" fill="white"/>
<path d="M21.5265 24.5671C21.389 24.5303 21.2474 24.5117 21.1058 24.5117C20.3724 24.5117 19.7276 25.0066 19.5379 25.7153C19.3062 26.5801 19.8211 27.4722 20.6859 27.7039C20.8233 27.7405 20.9649 27.7593 21.1065 27.7593H21.1068C21.8399 27.7593 22.4847 27.2644 22.6744 26.5557C22.9061 25.6909 22.3912 24.7988 21.5265 24.5671Z" fill="white"/>
<path d="M23.523 31.9993C25.8706 31.9812 28.1296 30.9851 29.7293 29.259C31.2236 27.6462 32.0271 25.5386 31.9912 23.324C31.9553 21.1104 31.0855 19.0288 29.5413 17.4631C28.7566 16.6675 27.842 16.043 26.823 15.6069C26.4138 15.4319 25.9839 15.343 25.5454 15.343C24.6199 15.343 23.73 15.7424 23.1035 16.4387C22.4844 17.1265 22.1973 18.0117 22.2944 18.9314C22.3093 19.073 22.3145 19.2175 22.3096 19.3616C22.2681 20.5518 21.53 21.5703 20.4927 22.0215C19.4045 21.0684 18.0815 20.4656 16.657 20.269C18.5481 18.7568 19.7617 16.4312 19.7617 13.8271V11.4829C20.6379 11.1096 21.3562 10.4094 21.7429 9.49707C22.4116 7.91943 21.9236 6.08765 20.5564 5.04224C19.0674 3.90381 17.4902 2.94556 15.8342 2.16943L16.3594 0.93042L14.6335 0.19873L14.1084 1.43799C12.3989 0.787354 10.6135 0.320557 8.75977 0.0422363C8.57349 0.0141601 8.38379 0 8.1958 0C6.68164 0 5.32251 0.897949 4.73364 2.28735C4.38135 3.11841 4.34277 4.03174 4.60938 4.87476C3.74316 6.09595 3.27051 7.56738 3.27051 9.07739V13.8271C3.27051 16.4316 4.48486 18.7578 6.37671 20.27C2.77856 20.7729 0 23.8704 0 27.6052V32L23.523 31.9993ZM11.5225 24.4858L9.70313 22.0728H13.342L11.5225 24.4858ZM6.45972 3.01904C6.7544 2.32397 7.43579 1.87476 8.1958 1.87476C8.29077 1.87476 8.38696 1.88184 8.48145 1.896C12.5056 2.50024 16.1851 4.05981 19.418 6.53149C20.1055 7.05713 20.3518 7.97583 20.0171 8.76538C19.7227 9.45996 19.0427 9.90869 18.2849 9.90869C17.9031 9.90869 17.5325 9.79248 17.2129 9.57275C14.3696 7.61621 11.2126 6.27808 7.82959 5.59546C7.26807 5.48218 6.79321 5.12793 6.5271 4.62354C6.26392 4.12402 6.23926 3.53931 6.45972 3.01904ZM5.74512 6.59692C6.22827 7.01221 6.81445 7.30322 7.45899 7.43335C9.03369 7.75098 10.5557 8.22241 12.0144 8.84253C11.4944 9.27026 10.834 9.51685 10.1401 9.51685H5.14526V9.07739C5.14526 8.19507 5.35034 7.35425 5.74512 6.59692ZM5.14526 13.8271V11.3914H10.1401C11.5642 11.3914 12.9036 10.759 13.8098 9.698C14.6126 10.1233 15.3936 10.5964 16.1501 11.1172C16.6729 11.4768 17.2668 11.696 17.8872 11.762V13.8271C17.8872 17.3401 15.0291 20.198 11.5161 20.198C8.00342 20.198 5.14526 17.3401 5.14526 13.8271ZM1.87476 27.6052C1.87476 24.5718 4.32886 22.1011 7.35571 22.0735L10.5852 26.3564V30.1252H1.87476V27.6052ZM12.46 30.1252V26.3564L15.6887 22.0742C16.3247 22.0813 16.9426 22.1931 17.5222 22.4041C16.8621 22.6323 16.282 23.0745 15.8792 23.6804C15.2683 24.5994 15.1582 25.7544 15.5847 26.7703C16.0134 27.7915 16.6311 28.7095 17.4202 29.4985C17.6433 29.7217 17.877 29.9304 18.1194 30.1252H12.46ZM28.3543 27.9846C27.0752 29.365 25.3367 30.125 23.4592 30.1252H23.4587C21.6787 30.1252 20.0049 29.4319 18.7459 28.1729C18.1294 27.5564 17.6475 26.8403 17.3132 26.0444C17.1277 25.6023 17.1741 25.1189 17.4404 24.7183C17.7004 24.3269 18.1091 24.1025 18.5618 24.1025C18.616 24.1025 18.6714 24.106 18.7263 24.1123C18.9678 24.1401 19.2131 24.1504 19.4597 24.1423C22.0193 24.0574 24.0942 21.9861 24.1831 19.4268C24.1912 19.1956 24.1831 18.9626 24.1587 18.7341C24.1182 18.3501 24.2383 17.9802 24.4971 17.6926C24.7686 17.3909 25.1506 17.2178 25.5457 17.2178C25.729 17.2178 25.9109 17.2556 26.0857 17.3306C26.8799 17.6704 27.5935 18.158 28.2065 18.7795C29.4104 20.0002 30.0889 21.6248 30.1167 23.354C30.1448 25.0835 29.5188 26.728 28.3543 27.9846Z" fill="white"/>
<path d="M26.3619 24.9978C26.2244 24.9612 26.0828 24.9424 25.9412 24.9424C25.2081 24.9424 24.5633 25.4373 24.3734 26.146C24.1417 27.0107 24.6568 27.9028 25.5216 28.1345C25.659 28.1714 25.8004 28.1899 25.9422 28.1899C26.6754 28.1899 27.3201 27.6951 27.5101 26.9863C27.7418 26.1216 27.2266 25.2295 26.3619 24.9978Z" fill="white"/>
<path d="M27.1812 20.1621C27.0438 20.1252 26.9022 20.1064 26.7606 20.1064C26.0272 20.1064 25.3824 20.6016 25.1927 21.3101C24.961 22.1748 25.4759 23.0669 26.3407 23.2986C26.4781 23.3354 26.6197 23.354 26.7613 23.354H26.7616C27.4947 23.354 28.1392 22.8591 28.3292 22.1506C28.4415 21.7317 28.3839 21.2939 28.1671 20.9185C27.95 20.543 27.5999 20.2742 27.1812 20.1621Z" fill="white"/>
</g>
<defs>
<clipPath id="clip0_285_1336">
<rect width="32" height="32" fill="white"/>
</clipPath>
</defs>
</svg>
