<svg width="32" height="32" viewBox="0 0 32 32" fill="none" xmlns="http://www.w3.org/2000/svg">
<path d="M4.00006 14C4.00006 14 2.00046 14 2.00006 14C0.768362 14 0.680272 16 2.00006 16H4.00002C5.27496 16 5.29789 14 4.00006 14Z" fill="white"/>
<path d="M30 14H28C26.7431 14 26.6818 16 28 16H30C31.2695 16 31.3004 14 30 14Z" fill="white"/>
<path d="M7.90339 6.90272C8.26056 6.55285 8.39048 5.97575 7.92871 5.51398C7.92871 5.51398 6.81243 4.3977 6.80763 4.3929C5.90355 3.48881 4.47357 4.88696 5.39355 5.80695C5.39355 5.80695 6.50999 6.92339 6.51463 6.92803C6.96182 7.37521 7.54622 7.25259 7.90339 6.90272Z" fill="white"/>
<path d="M25.1925 4.39311C25.1925 4.39311 24.0749 5.51077 24.0714 5.5142C23.1849 6.40077 24.5562 7.85753 25.4855 6.92827C25.4855 6.92827 26.6027 5.81111 26.6066 5.80719C27.5098 4.90396 26.1141 3.47158 25.1925 4.39311Z" fill="white"/>
<path d="M16 3.96489C16.5 3.96773 17 3.64886 17 2.99977C17 2.99977 17 1.00442 17 0.999784C17 -0.257446 15 -0.317576 15 0.999774V2.99974C15 3.63749 15.5 3.96205 16 3.96489Z" fill="white"/>
<path d="M16 19C16.5523 19 17 18.5523 17 18C17 17.4477 16.5523 17 16 17C15.4477 17 15 17.4477 15 18C15 18.5523 15.4477 19 16 19Z" fill="white"/>
<path d="M16.9853 6.05525C11.7557 5.50343 7 9.74261 7 15.0001C7 17.1285 7.75586 19.191 9.12305 20.8028C9.92285 21.7564 10.4746 22.9049 10.7637 24.2149C10.8643 24.6734 11.2705 25.0001 11.7402 25.0001H20.2598C20.7275 25.0001 21.1328 24.6763 21.2353 24.2203C21.5254 22.9322 22.1113 21.732 22.9297 20.7486C24.5918 18.7447 25.3018 16.1094 24.877 13.5225C24.252 9.61189 20.9326 6.47176 16.9853 6.05525ZM21.3906 19.4708C20.54 20.4932 19.8926 21.7008 19.4922 23.0001H12.5137C12.1221 21.692 11.499 20.523 10.6523 19.5133C9.58692 18.2579 9.00001 16.6549 9 15.0001C8.99998 11.8048 11.4125 8.78679 14.5632 8.18211C17.2445 7.6675 20.1521 8.78617 21.7464 11.0139C22.3462 11.852 22.7405 12.8252 22.9033 13.8424C23.2393 15.8912 22.7022 17.8902 21.3906 19.4708Z" fill="white"/>
<path d="M16 11C15.4473 11 15 11.4477 15 12V15C15 15.5522 15.4473 16 16 16C16.5527 16 17 15.5522 17 15V12C17 11.4477 16.5527 11 16 11Z" fill="white"/>
<path d="M20 26H12C11.4473 26 11 26.4477 11 27V29C11 30.6543 12.3457 32 14 32H18C19.6543 32 21 30.6543 21 29V27C21 26.4477 20.5527 26 20 26ZM18 30H14C13.4482 30 13 29.5513 13 29V28H19V29C19 29.5513 18.5518 30 18 30Z" fill="white"/>
</svg>
