<svg width="262" height="58" viewBox="0 0 262 58" fill="none" xmlns="http://www.w3.org/2000/svg">
<path d="M9.92035 49.5C10.4596 49.5 10.8954 49.078 10.8954 48.5558V21.8239C10.8954 21.304 11.3312 20.8797 11.8705 20.8797H22.5601C23.5159 20.8284 25.4155 21.0359 26.8023 21.3437C27.7629 21.4742 29.4313 22.1783 30.5244 22.9197C31.3165 23.323 32.4986 24.6449 33.1655 25.8689C33.8324 27.0952 34.1646 28.6386 34.1646 30.4968C34.2778 31.758 33.8372 33.784 33.1848 35.0243C32.8284 35.9173 31.6632 37.2741 30.5822 38.0552C29.9273 38.6427 28.2613 39.4027 26.8601 39.7524C25.4588 40.1021 24.0239 40.2793 22.5577 40.2793H21.2408C20.7039 40.2793 20.2657 40.7013 20.2657 41.2235V48.5511C20.2657 49.071 20.7015 49.4953 21.2408 49.4953H37.959C38.4959 49.4953 39.2446 49.1992 39.6274 48.8332L49.8067 39.1183C50.1895 38.7522 50.5 38.0342 50.5 37.5119V9.44421C50.5 8.92198 50.0643 8.5 49.525 8.5H21.9414C21.4021 8.5 20.5691 8.67485 20.0803 8.89167L6.38603 14.937C5.89729 15.1538 5.50004 15.7506 5.50004 16.2729V48.5558C5.50004 49.0757 5.93581 49.5 6.47511 49.5H9.92035Z" fill="white" stroke="white" stroke-width="2" stroke-linecap="round" stroke-linejoin="round"/>
<path d="M72.16 38.52C71.7093 38.52 71.2933 38.3467 70.912 38C70.5307 37.688 70.34 37.3067 70.34 36.856V20.06C70.34 19.124 70.6347 18.4133 71.224 17.928C71.8133 17.4427 72.472 17.2 73.2 17.2H78.712C79.8907 17.2 80.9827 17.4427 81.988 17.928C83.028 18.3787 83.86 19.0547 84.484 19.956C85.108 20.8573 85.42 21.9667 85.42 23.284C85.42 25.3293 84.7613 26.9587 83.444 28.172C82.1613 29.3853 80.6013 29.992 78.764 29.992H75.28C74.4133 29.992 73.98 30.512 73.98 31.552V36.856C73.98 37.3067 73.7893 37.688 73.408 38C73.0613 38.3467 72.6453 38.52 72.16 38.52ZM75.02 26.872H78.192C79.0587 26.872 79.8907 26.612 80.688 26.092C81.52 25.572 81.936 24.6707 81.936 23.388C81.936 22.3827 81.5547 21.6373 80.792 21.152C80.064 20.632 79.2667 20.372 78.4 20.372H75.176C74.3093 20.372 73.876 20.788 73.876 21.62V25.468C73.876 26.404 74.2573 26.872 75.02 26.872ZM92.1004 30.304V36.908C92.1004 37.428 91.9097 37.8267 91.5284 38.104C91.1817 38.3813 90.783 38.52 90.3324 38.52C89.8817 38.52 89.4657 38.3813 89.0844 38.104C88.7377 37.8267 88.5644 37.428 88.5644 36.908V24.688C88.5644 24.0987 88.7377 23.6653 89.0844 23.388C89.4657 23.076 89.8817 22.92 90.3324 22.92C90.783 22.92 91.1817 23.076 91.5284 23.388C91.9097 23.6653 92.1004 24.0987 92.1004 24.688V24.896C92.5857 24.2373 93.2097 23.7 93.9724 23.284C94.7697 22.868 95.6017 22.66 96.4684 22.66C96.8844 22.66 97.3004 22.712 97.7164 22.816C98.1324 22.92 98.4444 23.128 98.6524 23.44C98.8604 23.752 98.9644 24.0987 98.9644 24.48C98.9644 24.9307 98.8084 25.3467 98.4964 25.728C98.219 26.0747 97.803 26.248 97.2484 26.248C97.0057 26.248 96.7457 26.2133 96.4684 26.144C96.2257 26.0747 95.9137 26.04 95.5324 26.04C94.527 26.04 93.695 26.4213 93.0364 27.184C92.4124 27.9467 92.1004 28.9867 92.1004 30.304ZM103.13 38.52C102.68 38.52 102.264 38.3813 101.882 38.104C101.536 37.8267 101.362 37.428 101.362 36.908V24.428C101.362 23.8387 101.536 23.4053 101.882 23.128C102.264 22.816 102.68 22.66 103.13 22.66C103.581 22.66 103.98 22.816 104.326 23.128C104.708 23.4053 104.898 23.8387 104.898 24.428V36.908C104.898 37.428 104.708 37.8267 104.326 38.104C103.98 38.3813 103.581 38.52 103.13 38.52ZM103.182 19.8C102.524 19.8 101.952 19.592 101.466 19.176C101.016 18.7253 100.79 18.188 100.79 17.564C100.79 16.9747 101.016 16.472 101.466 16.056C101.952 15.6053 102.524 15.38 103.182 15.38C103.806 15.38 104.344 15.6053 104.794 16.056C105.245 16.472 105.47 16.9747 105.47 17.564C105.47 18.188 105.245 18.7253 104.794 19.176C104.344 19.592 103.806 19.8 103.182 19.8ZM122.183 38.52C121.732 38.52 121.316 38.3813 120.935 38.104C120.588 37.8267 120.415 37.428 120.415 36.908V30.356C120.415 28.8307 120.068 27.704 119.375 26.976C118.716 26.248 117.832 25.884 116.723 25.884C115.301 25.884 114.261 26.352 113.603 27.288C112.979 28.1893 112.667 29.1947 112.667 30.304V36.908C112.667 37.428 112.476 37.8267 112.095 38.104C111.748 38.3813 111.349 38.52 110.899 38.52C110.448 38.52 110.032 38.3813 109.651 38.104C109.304 37.8267 109.131 37.428 109.131 36.908V24.688C109.131 24.0987 109.304 23.6653 109.651 23.388C110.032 23.076 110.448 22.92 110.899 22.92C111.349 22.92 111.748 23.076 112.095 23.388C112.476 23.6653 112.667 24.0987 112.667 24.688C113.256 24.0987 114.019 23.6133 114.955 23.232C115.891 22.8507 116.775 22.66 117.607 22.66C119.548 22.66 121.091 23.284 122.235 24.532C123.379 25.78 123.951 27.6173 123.951 30.044V36.908C123.951 37.428 123.76 37.8267 123.379 38.104C122.997 38.3813 122.599 38.52 122.183 38.52ZM133.745 38.52C132.393 38.52 131.284 38.104 130.417 37.272C129.55 36.44 129.117 35.192 129.117 33.528V26.924C129.117 26.5773 128.944 26.404 128.597 26.404H127.661C127.21 26.404 126.829 26.2653 126.517 25.988C126.205 25.676 126.049 25.2947 126.049 24.844C126.049 24.3587 126.205 23.96 126.517 23.648C126.829 23.336 127.21 23.18 127.661 23.18H128.597C128.944 23.18 129.117 23.0067 129.117 22.66V18.292C129.117 17.8067 129.273 17.4253 129.585 17.148C129.932 16.836 130.348 16.68 130.833 16.68C131.353 16.68 131.769 16.836 132.081 17.148C132.428 17.4253 132.601 17.8067 132.601 18.292V22.66C132.601 23.0067 132.774 23.18 133.121 23.18H135.929C136.345 23.18 136.709 23.336 137.021 23.648C137.333 23.96 137.489 24.3587 137.489 24.844C137.489 25.2947 137.333 25.676 137.021 25.988C136.744 26.2653 136.362 26.404 135.877 26.404H133.121C132.774 26.404 132.601 26.5773 132.601 26.924V33.06C132.601 34.516 133.19 35.244 134.369 35.244C134.716 35.244 135.08 35.192 135.461 35.088C135.842 34.984 136.102 34.932 136.241 34.932C136.726 34.932 137.09 35.088 137.333 35.4C137.61 35.712 137.749 36.076 137.749 36.492C137.749 36.804 137.662 37.116 137.489 37.428C137.316 37.7053 137.038 37.9133 136.657 38.052C136.276 38.1907 135.79 38.2947 135.201 38.364C134.646 38.468 134.161 38.52 133.745 38.52ZM151.125 24.376C151.125 23.8907 151.281 23.492 151.593 23.18C151.94 22.8333 152.373 22.66 152.893 22.66C153.379 22.66 153.795 22.8333 154.141 23.18C154.488 23.492 154.661 23.8907 154.661 24.376V31.708C154.661 33.268 154.315 34.5507 153.621 35.556C152.928 36.5613 152.027 37.3067 150.917 37.792C149.808 38.2773 148.629 38.52 147.381 38.52C146.133 38.52 144.955 38.2773 143.845 37.792C142.736 37.3067 141.835 36.5613 141.141 35.556C140.448 34.5507 140.101 33.268 140.101 31.708V24.376C140.101 23.8907 140.257 23.492 140.569 23.18C140.916 22.8333 141.349 22.66 141.869 22.66C142.355 22.66 142.771 22.8333 143.117 23.18C143.464 23.492 143.637 23.8907 143.637 24.376V31.708C143.637 32.9907 144.019 33.9093 144.781 34.464C145.544 35.0187 146.411 35.296 147.381 35.296C148.387 35.296 149.253 35.0187 149.981 34.464C150.744 33.9093 151.125 32.9907 151.125 31.708V24.376ZM160.309 38.52C159.858 38.52 159.442 38.3813 159.061 38.104C158.714 37.8267 158.541 37.428 158.541 36.908V24.688C158.541 24.0987 158.714 23.6653 159.061 23.388C159.442 23.076 159.858 22.92 160.309 22.92C160.656 22.92 160.985 23.0067 161.297 23.18C161.609 23.3187 161.834 23.5787 161.973 23.96C162.042 24.168 162.077 24.3587 162.077 24.532C162.597 23.9773 163.273 23.5267 164.105 23.18C164.937 22.8333 165.752 22.66 166.549 22.66C168.802 22.66 170.466 23.5613 171.541 25.364C171.957 24.636 172.633 24.012 173.569 23.492C174.54 22.9373 175.718 22.66 177.105 22.66C178.977 22.66 180.468 23.284 181.577 24.532C182.686 25.78 183.241 27.6173 183.241 30.044V36.908C183.241 37.428 183.05 37.8267 182.669 38.104C182.288 38.3813 181.889 38.52 181.473 38.52C181.022 38.52 180.606 38.3813 180.225 38.104C179.878 37.8267 179.705 37.428 179.705 36.908V30.356C179.705 27.3747 178.596 25.884 176.377 25.884C175.129 25.884 174.228 26.2133 173.673 26.872C173.118 27.5307 172.772 28.3107 172.633 29.212V36.908C172.633 37.428 172.442 37.8267 172.061 38.104C171.68 38.3813 171.281 38.52 170.865 38.52C170.414 38.52 169.998 38.3813 169.617 38.104C169.27 37.8267 169.097 37.428 169.097 36.908V30.356C169.097 28.8307 168.802 27.704 168.213 26.976C167.624 26.248 166.826 25.884 165.821 25.884C164.33 25.884 163.325 26.352 162.805 27.288C162.32 28.1893 162.077 29.1947 162.077 30.304V36.908C162.077 37.428 161.886 37.8267 161.505 38.104C161.158 38.3813 160.76 38.52 160.309 38.52ZM194.151 38.52C192.625 38.52 191.239 38.1733 189.991 37.48C188.777 36.7867 187.824 35.8333 187.131 34.62C186.437 33.372 186.091 31.9853 186.091 30.46C186.091 28.9693 186.437 27.6347 187.131 26.456C187.824 25.2773 188.777 24.3587 189.991 23.7C191.239 23.0067 192.625 22.66 194.151 22.66C195.676 22.66 197.045 23.0067 198.259 23.7C199.472 24.3587 200.425 25.2773 201.119 26.456C201.847 27.6347 202.211 28.9693 202.211 30.46C202.211 31.9853 201.847 33.372 201.119 34.62C200.425 35.8333 199.472 36.7867 198.259 37.48C197.045 38.1733 195.676 38.52 194.151 38.52ZM194.151 35.296C195.503 35.296 196.595 34.8627 197.427 33.996C198.259 33.0947 198.675 31.916 198.675 30.46C198.675 29.0733 198.259 27.964 197.427 27.132C196.595 26.3 195.503 25.884 194.151 25.884C192.764 25.884 191.655 26.3 190.823 27.132C190.025 27.964 189.627 29.0733 189.627 30.46C189.627 31.916 190.025 33.0947 190.823 33.996C191.655 34.8627 192.764 35.296 194.151 35.296Z" fill="white"/>
</svg>
