<svg width="50" height="50" viewBox="0 0 50 50" fill="none" xmlns="http://www.w3.org/2000/svg">
<path fill-rule="evenodd" clip-rule="evenodd" d="M44.5 5.5C44.5 2.80761 42.3174 0.625 39.625 0.625H5.5C2.80761 0.625 0.625 2.80761 0.625 5.5V33.125C0.625 35.8174 2.80761 38 5.5 38H21.2763C21.0576 37.4993 20.9375 36.9487 20.9375 36.375C20.9375 34.4784 22.2498 32.8341 24.0993 32.4137L29.3771 31.2135C30.2915 31.0056 31.0056 30.2915 31.2135 29.3771L32.4137 24.0993C32.8341 22.2498 34.4784 20.9375 36.375 20.9375C38.2716 20.9375 39.9159 22.2498 40.3363 24.0993L41.5365 29.3771C41.7444 30.2915 42.4585 31.0056 43.3729 31.2135L44.5 31.4698V5.5ZM27.4375 3.875H17.6875V13.625H27.4375V3.875Z" fill="#7B53E7"/>
<path d="M36.375 23.375C37.1336 23.375 37.7913 23.9 37.9595 24.6397L39.1597 29.9176C39.5755 31.7463 41.0037 33.1745 42.8324 33.5903L48.1103 34.7905C48.85 34.9587 49.375 35.6164 49.375 36.375C49.375 37.1336 48.85 37.7913 48.1103 37.9595L42.8324 39.1597C41.0037 39.5755 39.5755 41.0037 39.1597 42.8324L37.9595 48.1103C37.7913 48.85 37.1336 49.375 36.375 49.375C35.6164 49.375 34.9587 48.85 34.7905 48.1103L33.5903 42.8324C33.1745 41.0037 31.7463 39.5755 29.9176 39.1597L24.6397 37.9595C23.9 37.7913 23.375 37.1336 23.375 36.375C23.375 35.6164 23.9 34.9587 24.6397 34.7905L29.9176 33.5903C31.7463 33.1745 33.1745 31.7463 33.5903 29.9176L34.7905 24.6397C34.9587 23.9 35.6164 23.375 36.375 23.375Z" fill="#7B53E7"/>
</svg>
