<svg width="58" height="64" viewBox="0 0 58 64" fill="none" xmlns="http://www.w3.org/2000/svg">
<path fill-rule="evenodd" clip-rule="evenodd" d="M53.1665 13.7878H4.83317C3.49848 13.7878 2.4165 14.9563 2.4165 16.3976V26.8368C2.42512 30.1467 4.36016 33.0931 7.24984 34.1964V58.1544C7.24984 59.5957 8.33182 60.7642 9.6665 60.7642H48.3332C49.6679 60.7642 50.7498 59.5957 50.7498 58.1544V34.1964C53.6395 33.0931 55.5746 30.1467 55.5832 26.8368V16.3976C55.5832 14.9563 54.5012 13.7878 53.1665 13.7878ZM36.2498 19.0074H41.0832V26.8368C41.0832 28.2782 40.0012 29.4466 38.6665 29.4466C37.3318 29.4466 36.2498 28.2782 36.2498 26.8368V19.0074ZM26.5832 19.0074H31.4165V26.8368C31.4165 28.2782 30.3345 29.4466 28.9998 29.4466C27.6651 29.4466 26.5832 28.2782 26.5832 26.8368V19.0074ZM16.9165 19.0074H21.7498V26.8368C21.7498 28.2782 20.6679 29.4466 19.3332 29.4466C17.9985 29.4466 16.9165 28.2782 16.9165 26.8368V19.0074ZM9.6665 29.4466C8.33182 29.4466 7.24984 28.2782 7.24984 26.8368V19.0074H12.0832V26.8368C12.0832 28.2782 11.0012 29.4466 9.6665 29.4466ZM33.8332 55.5446H24.1665V50.325C24.1665 47.4423 26.3305 45.1054 28.9998 45.1054C31.6692 45.1054 33.8332 47.4423 33.8332 50.325V55.5446ZM45.9165 55.5446H38.6665V50.325C38.6665 44.5596 34.3386 39.8858 28.9998 39.8858C23.6611 39.8858 19.3332 44.5596 19.3332 50.325V55.5446H12.0832V34.1964C12.9715 33.8404 13.7909 33.3094 14.4998 32.6306C17.2519 35.2888 21.4144 35.2888 24.1665 32.6306C26.9186 35.2888 31.0811 35.2888 33.8332 32.6306C36.5853 35.2888 40.7477 35.2888 43.4998 32.6306C44.2088 33.3094 45.0282 33.8404 45.9165 34.1964V55.5446ZM50.7498 26.8368C50.7498 28.2782 49.6679 29.4466 48.3332 29.4466C46.9985 29.4466 45.9165 28.2782 45.9165 26.8368V19.0074H50.7498V26.8368ZM10.3915 8.56823H48.3332C49.6679 8.56823 50.7498 7.39978 50.7498 5.95843C50.7498 4.51708 49.6679 3.34863 48.3332 3.34863H10.3915C9.05682 3.34863 7.97484 4.51708 7.97484 5.95843C7.97484 7.39978 9.05682 8.56823 10.3915 8.56823Z" fill="#7B53E7"/>
</svg>
