<svg width="58" height="58" viewBox="0 0 58 58" fill="none" xmlns="http://www.w3.org/2000/svg">
<path fill-rule="evenodd" clip-rule="evenodd" d="M42.5938 1.8125C43.4399 1.8125 44.1735 2.398 44.3611 3.22311L45.364 7.63329C45.8278 9.67313 47.4206 11.266 49.4605 11.7298L53.8707 12.7326C54.6957 12.9202 55.2812 13.6538 55.2812 14.5C55.2812 15.3462 54.6957 16.0798 53.8707 16.2674L49.4605 17.2702C47.4206 17.734 45.8278 19.3269 45.364 21.3667L44.3611 25.7769C44.1735 26.602 43.4399 27.1875 42.5938 27.1875C41.7476 27.1875 41.014 26.602 40.8264 25.7769L39.8235 21.3667C39.3597 19.3269 37.7669 17.734 35.727 17.2702L31.3168 16.2674C30.4918 16.0798 29.9062 15.3462 29.9062 14.5C29.9062 13.6538 30.4918 12.9202 31.3168 12.7326L35.727 11.7298C37.7669 11.266 39.3597 9.67313 39.8235 7.63329L40.8264 3.22311C41.014 2.398 41.7476 1.8125 42.5938 1.8125Z" fill="#7B53E7"/>
<path fill-rule="evenodd" clip-rule="evenodd" d="M31.8892 20.8438C29.1604 20.8438 26.9048 23.0512 26.9048 25.8281C26.9048 28.6051 29.1604 30.8125 31.8892 30.8125C34.618 30.8125 36.8735 28.6051 36.8735 25.8281C36.8735 23.0512 34.618 20.8438 31.8892 20.8438Z" fill="#7B53E7"/>
<path fill-rule="evenodd" clip-rule="evenodd" d="M9.96875 12.6875H27.5654C27.3214 13.2459 27.1875 13.8601 27.1875 14.5C27.1875 15.1399 27.3214 15.7541 27.5654 16.3125H9.96875C7.96672 16.3125 6.34375 17.9355 6.34375 19.9375V35.3634C14.321 33.3455 22.3682 35.4946 28.1991 40.473C32.0513 38.0082 36.5927 37.396 40.7812 38.43V29.5283C41.3397 29.7723 41.9538 29.9062 42.5938 29.9062C43.2337 29.9062 43.8478 29.7723 44.4062 29.5283V40.8991C44.4069 40.9263 44.4069 40.9537 44.4062 40.9811V48.9375C44.4062 52.9416 41.1603 56.1875 37.1562 56.1875H9.96875C5.96468 56.1875 2.71875 52.9416 2.71875 48.9375V19.9375C2.71875 15.9334 5.96468 12.6875 9.96875 12.6875Z" fill="#7B53E7"/>
</svg>
