<svg width="48" height="48" viewBox="0 0 48 48" fill="none" xmlns="http://www.w3.org/2000/svg">
<path fill-rule="evenodd" clip-rule="evenodd" d="M2 12C2 8.6863 4.6863 6 8 6H40C43.3138 6 46 8.6863 46 12V36C46 39.3138 43.3138 42 40 42H8C4.6863 42 2 39.3138 2 36V12ZM8 10H40C41.1046 10 42 10.8954 42 12V36C42 37.1046 41.1046 38 40 38H8C6.89544 38 6 37.1046 6 36V12C6 10.8954 6.89544 10 8 10ZM12 14C10.8954 14 10 14.8954 10 16C10 17.1046 10.8954 18 12 18H20C21.1046 18 22 17.1046 22 16C22 14.8954 21.1046 14 20 14H12ZM28 14C26.8954 14 26 14.8954 26 16V32C26 33.1046 26.8954 34 28 34H36C37.1046 34 38 33.1046 38 32V16C38 14.8954 37.1046 14 36 14H28ZM34 18H30V30H34V18ZM10 24C10 22.8954 10.8954 22 12 22H20C21.1046 22 22 22.8954 22 24C22 25.1046 21.1046 26 20 26H12C10.8954 26 10 25.1046 10 24ZM10 32C10 30.8954 10.8954 30 12 30H20C21.1046 30 22 30.8954 22 32C22 33.1046 21.1046 34 20 34H12C10.8954 34 10 33.1046 10 32Z" fill="#7B53E7"/>
</svg>
